<svg width="58" height="55" viewBox="0 0 58 40" fill="none" xmlns="http://www.w3.org/2000/svg">
<path d="M28.9993 9.00004C26.8238 9.00004 24.697 9.64518 22.8881 10.8539C21.0791 12.0626 19.6692 13.7805 18.8367 15.7905C18.0041 17.8005 17.7863 20.0122 18.2107 22.146C18.6351 24.2798 19.6828 26.2398 21.2212 27.7782C22.7595 29.3166 24.7196 30.3642 26.8534 30.7887C28.9871 31.2131 31.1989 30.9953 33.2089 30.1627C35.2189 29.3302 36.9368 27.9203 38.1455 26.1113C39.3542 24.3024 39.9993 22.1756 39.9993 20C39.9993 17.0827 38.8404 14.2848 36.7775 12.2219C34.7146 10.159 31.9167 9.00004 28.9993 9.00004ZM28.9993 29C27.2193 29 25.4793 28.4722 23.9992 27.4833C22.5192 26.4943 21.3656 25.0887 20.6844 23.4442C20.0032 21.7997 19.825 19.9901 20.1723 18.2442C20.5195 16.4984 21.3767 14.8948 22.6354 13.6361C23.8941 12.3774 25.4977 11.5202 27.2435 11.173C28.9894 10.8257 30.799 11.0039 32.4435 11.6851C34.088 12.3663 35.4936 13.5199 36.4826 14.9999C37.4715 16.48 37.9993 18.22 37.9993 20C37.9993 22.387 37.0511 24.6762 35.3633 26.364C33.6755 28.0518 31.3863 29 28.9993 29ZM31.1393 16.73L29.9993 13.06C29.9336 12.86 29.8063 12.6858 29.6358 12.5623C29.4652 12.4388 29.2599 12.3723 29.0493 12.3723C28.8387 12.3723 28.6335 12.4388 28.4629 12.5623C28.2923 12.6858 28.1651 12.86 28.0993 13.06L26.9093 16.73H22.9993C22.7885 16.7302 22.583 16.797 22.4124 16.9209C22.2418 17.0449 22.1147 17.2196 22.0493 17.42C21.9833 17.6208 21.9825 17.8374 22.0472 18.0386C22.1119 18.2398 22.2387 18.4154 22.4093 18.54L25.5293 20.8L24.3393 24.47C24.2733 24.6708 24.2725 24.8874 24.3372 25.0886C24.4019 25.2898 24.5287 25.4654 24.6993 25.59C24.8706 25.7152 25.0772 25.7826 25.2893 25.7826C25.5015 25.7826 25.7081 25.7152 25.8793 25.59L28.9993 23.32L32.1193 25.59C32.2909 25.7143 32.4975 25.7808 32.7093 25.78C32.8672 25.7799 33.0227 25.7425 33.1633 25.6707C33.3039 25.5989 33.4255 25.4949 33.5181 25.3671C33.6108 25.2393 33.6719 25.0914 33.6964 24.9355C33.721 24.7796 33.7083 24.6201 33.6593 24.47L32.4693 20.8L35.5893 18.54C35.7689 18.4222 35.9058 18.2496 35.9796 18.0479C36.0534 17.8461 36.0604 17.626 35.9993 17.42C35.9315 17.2112 35.7969 17.0305 35.6161 16.9058C35.4354 16.7811 35.2187 16.7193 34.9993 16.73H31.1393ZM30.3393 20.73L30.8093 22.16L29.5893 21.28C29.4181 21.1549 29.2115 21.0874 28.9993 21.0874C28.7872 21.0874 28.5806 21.1549 28.4093 21.28L27.1893 22.16L27.6593 20.73C27.7254 20.5293 27.7261 20.3127 27.6615 20.1115C27.5968 19.9103 27.47 19.7347 27.2993 19.61L26.0793 18.73H27.5793C27.7987 18.7408 28.0154 18.679 28.1961 18.5543C28.3769 18.4296 28.5115 18.2489 28.5793 18.04L28.9993 16.6L29.4593 18C29.5272 18.2089 29.6618 18.3896 29.8425 18.5143C30.0233 18.639 30.24 18.7008 30.4593 18.69H31.9593L30.7393 19.57C30.5533 19.6915 30.4129 19.8714 30.3405 20.0815C30.2681 20.2915 30.2677 20.5197 30.3393 20.73ZM55.9993 29C56.1611 29.0006 56.3206 28.9618 56.4641 28.8872C56.6076 28.8126 56.7308 28.7042 56.8233 28.5715C56.9157 28.4387 56.9745 28.2855 56.9948 28.125C57.015 27.9646 56.996 27.8016 56.9393 27.65L54.0693 19.93L56.9393 12.35C56.9952 12.1984 57.0134 12.0355 56.9925 11.8753C56.9716 11.7151 56.9122 11.5623 56.8193 11.43C56.7275 11.2976 56.6049 11.1893 56.4621 11.1144C56.3193 11.0395 56.1606 11.0003 55.9993 11H42.7293V7.27004C42.7293 7.00483 42.624 6.75047 42.4365 6.56293C42.2489 6.3754 41.9946 6.27004 41.7293 6.27004H34.7293L29.7293 1.27004C29.6364 1.17631 29.5258 1.10192 29.4039 1.05115C29.2821 1.00038 29.1514 0.974243 29.0193 0.974243C28.8873 0.974243 28.7566 1.00038 28.6348 1.05115C28.5129 1.10192 28.4023 1.17631 28.3093 1.27004L23.3093 6.27004H16.3093C16.0441 6.27004 15.7898 6.3754 15.6022 6.56293C15.4147 6.75047 15.3093 7.00483 15.3093 7.27004V11H1.99935C1.83813 11.0003 1.67936 11.0395 1.53658 11.1144C1.3938 11.1893 1.27124 11.2976 1.17935 11.43C1.08651 11.5623 1.02709 11.7151 1.00619 11.8753C0.985296 12.0355 1.00353 12.1984 1.05935 12.35L3.92935 19.93L1.05935 27.65C1.00273 27.8016 0.983718 27.9646 1.00394 28.125C1.02416 28.2855 1.08301 28.4387 1.17544 28.5715C1.26787 28.7042 1.39112 28.8126 1.53462 28.8872C1.67812 28.9618 1.83759 29.0006 1.99935 29H15.2693V32.73C15.2693 32.9953 15.3747 33.2496 15.5622 33.4371C15.7498 33.6247 16.0041 33.73 16.2693 33.73H23.2693L28.2693 38.73C28.3623 38.8238 28.4729 38.8982 28.5948 38.9489C28.7166 38.9997 28.8473 39.0258 28.9793 39.0258C29.1114 39.0258 29.2421 38.9997 29.3639 38.9489C29.4858 38.8982 29.5964 38.8238 29.6893 38.73L34.6893 33.73H41.6893C41.9546 33.73 42.2089 33.6247 42.3965 33.4371C42.584 33.2496 42.6893 32.9953 42.6893 32.73V29H55.9993ZM54.5493 13L52.0593 19.58C51.9793 19.8065 51.9793 20.0536 52.0593 20.28L54.5593 27H42.7293V25.69L47.7293 20.69C47.8231 20.5971 47.8975 20.4865 47.9482 20.3646C47.999 20.2428 48.0251 20.1121 48.0251 19.98C48.0251 19.848 47.999 19.7173 47.9482 19.5955C47.8975 19.4736 47.8231 19.363 47.7293 19.27L42.7293 14.27V13H54.5493ZM3.43935 27L5.93935 20.28C6.01941 20.0536 6.01941 19.8065 5.93935 19.58L3.44935 13H15.2693V14.31L10.2693 19.31C10.1756 19.403 10.1012 19.5136 10.0505 19.6355C9.99969 19.7573 9.97355 19.888 9.97355 20.02C9.97355 20.1521 9.99969 20.2828 10.0505 20.4046C10.1012 20.5265 10.1756 20.6371 10.2693 20.73L15.2693 25.73V27H3.43935ZM40.9993 24.56C40.9067 24.6535 40.8333 24.7643 40.7836 24.8861C40.7338 25.008 40.7086 25.1384 40.7093 25.27V31.73H34.2693C34.007 31.7311 33.7556 31.8353 33.5693 32.02L28.9993 36.59L24.4293 32C24.2431 31.8153 23.9917 31.7111 23.7293 31.71H17.2693V25.27C17.2701 25.1384 17.2449 25.008 17.1951 24.8861C17.1454 24.7643 17.072 24.6535 16.9793 24.56L12.4093 20L16.9993 15.44C17.092 15.3466 17.1654 15.2358 17.2151 15.1139C17.2649 14.9921 17.2901 14.8616 17.2893 14.73V8.27004H23.7493C24.0117 8.26894 24.2631 8.16479 24.4493 7.98004L28.9993 3.41004L33.5693 8.00004C33.7556 8.18479 34.007 8.28894 34.2693 8.29004H40.7293V14.75C40.7286 14.8816 40.7538 15.0121 40.8036 15.1339C40.8533 15.2558 40.9267 15.3666 41.0193 15.46L45.5893 20L40.9993 24.56ZM8.99935 9.00004H0.999346V7.00004H8.99935V9.00004ZM13.9993 9.00004H10.9993V7.00004H13.9993V9.00004ZM56.9993 7.00004V9.00004H48.9993V7.00004H56.9993ZM46.9993 9.00004H43.9993V7.00004H46.9993V9.00004ZM0.999346 31H8.99935V33H0.999346V31ZM10.9993 31H13.9993V33H10.9993V31ZM48.9993 31H56.9993V33H48.9993V31ZM43.9993 31H46.9993V33H43.9993V31Z" fill="#F37324"/>
</svg>
