<svg width="44" height="44" viewBox="0 0 40 44" fill="none" xmlns="http://www.w3.org/2000/svg">
<path d="M40 14.8343C39.9959 14.8082 39.9959 14.7818 40 14.7557L37.056 1.84643C36.9379 1.3239 36.6423 0.856397 36.2177 0.520816C35.7932 0.185235 35.265 0.0015593 34.72 0H5.28C4.73503 0.0015593 4.20682 0.185235 3.78226 0.520816C3.35771 0.856397 3.06208 1.3239 2.944 1.84643L0 14.7557C0.00406386 14.7818 0.00406386 14.8082 0 14.8343V14.9286V40.0714C0 41.1133 0.421427 42.1126 1.17157 42.8493C1.92172 43.5861 2.93913 44 4 44H36C37.0609 44 38.0783 43.5861 38.8284 42.8493C39.5786 42.1126 40 41.1133 40 40.0714V14.9286C40 14.9286 40 14.8657 40 14.8343ZM35.496 2.18429L38.2 14.1429H26.32L24.896 1.57143H34.72C34.9008 1.57241 35.076 1.63353 35.2169 1.74482C35.3578 1.85612 35.4562 2.01103 35.496 2.18429ZM15.2 15.7143H24.8V24.5771L20.4 22.1021C20.2784 22.0332 20.1404 21.9969 20 21.9969C19.8596 21.9969 19.7216 22.0332 19.6 22.1021L15.2 24.5771V15.7143ZM23.28 1.57143L24.704 14.1429H15.296L16.72 1.57143H23.28ZM4.504 2.18429C4.54464 2.00704 4.64657 1.84911 4.79243 1.73737C4.93829 1.62563 5.11907 1.56699 5.304 1.57143H15.104L13.68 14.1429H1.8L4.504 2.18429ZM38.4 40.0714C38.4 40.6966 38.1471 41.2961 37.6971 41.7382C37.247 42.1802 36.6365 42.4286 36 42.4286H4C3.36348 42.4286 2.75303 42.1802 2.30294 41.7382C1.85286 41.2961 1.6 40.6966 1.6 40.0714V15.7143H13.6V25.9286C13.6008 26.0657 13.6382 26.2002 13.7084 26.3187C13.7786 26.4373 13.8791 26.5357 14 26.6043C14.1216 26.6732 14.2596 26.7095 14.4 26.7095C14.5404 26.7095 14.6784 26.6732 14.8 26.6043L20 23.6893L25.2 26.6121C25.3219 26.68 25.4599 26.7152 25.6 26.7143C25.7414 26.717 25.8806 26.6788 26 26.6043C26.1209 26.5357 26.2214 26.4373 26.2916 26.3187C26.3618 26.2002 26.3992 26.0657 26.4 25.9286V15.7143H38.4V40.0714ZM11.2 40.0714H4.8C4.58783 40.0714 4.38434 39.9886 4.23431 39.8413C4.08429 39.6939 4 39.4941 4 39.2857V36.1429C4 35.9345 4.08429 35.7346 4.23431 35.5873C4.38434 35.4399 4.58783 35.3571 4.8 35.3571H11.2C11.4122 35.3571 11.6157 35.4399 11.7657 35.5873C11.9157 35.7346 12 35.9345 12 36.1429V39.2857C12 39.4941 11.9157 39.6939 11.7657 39.8413C11.6157 39.9886 11.4122 40.0714 11.2 40.0714ZM5.6 38.5H10.4V36.9286H5.6V38.5ZM20.8 35.3571H13.6V36.9286H20.8V35.3571ZM20.8 38.5H13.6V40.0714H20.8V38.5ZM36 39.2857V35.3571H34.4V38.5H30.4V40.0714H35.2C35.4122 40.0714 35.6157 39.9886 35.7657 39.8413C35.9157 39.6939 36 39.4941 36 39.2857ZM28.8 38.5H27.2V40.0714H28.8V38.5Z" fill="#F37324"/>
</svg>
