<svg width="48" height="47" viewBox="0 0 48 47" fill="none" xmlns="http://www.w3.org/2000/svg">
<path fill-rule="evenodd" clip-rule="evenodd" d="M25.5 0C24.6775 0 24 0.67749 24 1.5C24 2.14684 24.421 2.69777 25 2.90625V4.76758L21.9863 7.26758L21.9961 16H19V10.2598L14 6.25977V3.90625C14.579 3.69777 15 3.14681 15 2.5C15 1.67749 14.3225 1 13.5 1C12.6775 1 12 1.67749 12 2.5C12 3.14681 12.421 3.69777 13 3.90625V6.74023L18 10.7402V16H15.5V11.6504L11.918 8.96289C11.9669 8.81563 12 8.66274 12 8.5C12 7.6775 11.3225 7 10.5 7C9.6775 7 9 7.6775 9 8.5C9 9.3225 9.6775 10 10.5 10C10.7972 10 11.0744 9.90965 11.3086 9.75781L14.5 12.1504V16H6.5C5.12365 16 4 17.1237 4 18.5V41H0.5C0.367396 41 0.240227 41.0527 0.146461 41.1465C0.0526962 41.2402 1.32584e-05 41.3674 0 41.5V43.5C0 45.4304 1.56965 47 3.5 47H44.5C46.4304 47 48 45.4304 48 43.5V41.5C48 41.3674 47.9473 41.2402 47.8535 41.1465C47.7598 41.0527 47.6326 41 47.5 41H44V18.5C44 17.1237 42.8764 16 41.5 16H33V12.1504L36.4492 9.56445C36.7207 9.83212 37.0927 10 37.5 10C38.3225 10 39 9.3225 39 8.5C39 7.6775 38.3225 7 37.5 7C36.6775 7 36 7.6775 36 8.5C36 8.54768 36.0092 8.59207 36.0137 8.63867L32 11.6504V16H30V10.7402L35 6.74023V3.90625C35.579 3.69777 36 3.14681 36 2.5C36 1.67749 35.3225 1 34.5 1C33.6775 1 33 1.67749 33 2.5C33 3.14681 33.421 3.69777 34 3.90625V6.25977L29 10.2598V16H26.002L26.0273 9.24609L29.5254 6.625C29.789 6.85383 30.1272 7 30.5 7C31.3225 7 32 6.3225 32 5.5C32 4.6775 31.3225 4 30.5 4C29.6775 4 29 4.6775 29 5.5C29 5.58599 29.0112 5.66779 29.0254 5.75L25.0273 8.74414L25.002 16H22.9961L22.9863 7.73633L26 5.23633V2.90625C26.579 2.69777 27 2.14684 27 1.5C27 0.67749 26.3225 0 25.5 0ZM25.5 1C25.7821 1 26 1.21793 26 1.5C26 1.78206 25.7821 2 25.5 2C25.2179 2 25 1.78206 25 1.5C25 1.21793 25.2179 1 25.5 1ZM13.5 2C13.7821 2 14 2.21793 14 2.5C14 2.78207 13.7821 3 13.5 3C13.2179 3 13 2.78207 13 2.5C13 2.21793 13.2179 2 13.5 2ZM34.5 2C34.7821 2 35 2.21793 35 2.5C35 2.78207 34.7821 3 34.5 3C34.2179 3 34 2.78207 34 2.5C34 2.21793 34.2179 2 34.5 2ZM30.5 5C30.7821 5 31 5.218 31 5.5C31 5.7821 30.7821 6 30.5 6C30.2179 6 30 5.7821 30 5.5C30 5.218 30.2179 5 30.5 5ZM10.5 8C10.7821 8 11 8.218 11 8.5C11 8.7821 10.7821 9 10.5 9C10.2179 9 10 8.7821 10 8.5C10 8.218 10.2179 8 10.5 8ZM37.5 8C37.7821 8 38 8.218 38 8.5C38 8.7821 37.7821 9 37.5 9C37.2179 9 37 8.7821 37 8.5C37 8.218 37.2179 8 37.5 8ZM6.5 17H41.5C42.3396 17 43 17.6604 43 18.5V41H5V18.5C5 17.6604 5.66035 17 6.5 17ZM7.5 19C7.3674 19 7.24023 19.0527 7.14646 19.1465C7.0527 19.2402 7.00001 19.3674 7 19.5V38.5C7.00001 38.6326 7.0527 38.7598 7.14646 38.8535C7.24023 38.9473 7.3674 39 7.5 39H40.5C40.6326 39 40.7598 38.9473 40.8535 38.8535C40.9473 38.7598 41 38.6326 41 38.5V19.5C41 19.3674 40.9473 19.2402 40.8535 19.1465C40.7598 19.0527 40.6326 19 40.5 19H7.5ZM8 20H14.5V22.8516L11.3105 25.2441C11.0758 25.0914 10.7982 25 10.5 25C9.6775 25 9 25.6775 9 26.5C9 27.3225 9.6775 28 10.5 28C11.3225 28 12 27.3225 12 26.5C12 26.3379 11.9665 26.1839 11.918 26.0371L15.5 23.3516V20H18V24.2598L13 28.2598V31.0918C12.421 31.3003 12 31.8532 12 32.5C12 33.3225 12.6775 34 13.5 34C14.3225 34 15 33.3225 15 32.5C15 31.8532 14.579 31.3003 14 31.0918V28.7402L19 24.7402V20H21.9902L22 27.2578L19.3281 29.2539C19.09 29.0944 18.8053 29 18.5 29C17.6775 29 17 29.6775 17 30.5C17 31.3225 17.6775 32 18.5 32C19.3225 32 20 31.3225 20 30.5C20 30.3444 19.9687 30.1963 19.9238 30.0547L23 27.7598L22.9902 20H25.0254L25 28.7344L28.0137 31.2344V33.0879C27.4277 33.2926 27 33.8482 27 34.5C27 35.3225 27.6775 36 28.5 36C29.3225 36 30 35.3225 30 34.5C30 33.8581 29.5858 33.3079 29.0137 33.0957V30.7637L26.002 28.2656L26.0254 20H29V25.1602L34 28.6602V31.0918C33.421 31.3003 33 31.8532 33 32.5C33 33.3225 33.6775 34 34.5 34C35.3225 34 36 33.3225 36 32.5C36 31.8532 35.579 31.3003 35 31.0918V28.1406L30 24.6406V20H32V23.25L36.043 26.1602C36.0171 26.2698 36 26.383 36 26.5C36 27.3225 36.6775 28 37.5 28C38.3225 28 39 27.3225 39 26.5C39 25.6775 38.3225 25 37.5 25C37.1619 25 36.8517 25.1186 36.5996 25.3105L33.041 22.75V20H40V38H8V20ZM10.5 26C10.7821 26 11 26.218 11 26.5C11 26.7821 10.7821 27 10.5 27C10.2179 27 10 26.7821 10 26.5C10 26.218 10.2179 26 10.5 26ZM37.5 26C37.7821 26 38 26.218 38 26.5C38 26.7821 37.7821 27 37.5 27C37.2179 27 37 26.7821 37 26.5C37 26.218 37.2179 26 37.5 26ZM18.5 30C18.7821 30 19 30.218 19 30.5C19 30.7821 18.7821 31 18.5 31C18.2179 31 18 30.7821 18 30.5C18 30.218 18.2179 30 18.5 30ZM13.5 32C13.7821 32 14 32.218 14 32.5C14 32.7821 13.7821 33 13.5 33C13.2179 33 13 32.7821 13 32.5C13 32.218 13.2179 32 13.5 32ZM34.5 32C34.7821 32 35 32.218 35 32.5C35 32.7821 34.7821 33 34.5 33C34.2179 33 34 32.7821 34 32.5C34 32.218 34.2179 32 34.5 32ZM28.5 34C28.7821 34 29 34.218 29 34.5C29 34.7821 28.7821 35 28.5 35C28.2179 35 28 34.7821 28 34.5C28 34.218 28.2179 34 28.5 34ZM1 42H18.0508V42.002C18.2847 43.1391 19.2957 44 20.5 44H28.5C29.7043 44 30.7153 43.1371 30.9492 42H47V43.5C47 44.8937 45.8937 46 44.5 46H3.5C2.10635 46 1 44.8937 1 43.5V42ZM19.2051 42H29.7949C29.5781 42.5581 29.1427 43 28.5 43H20.5C19.8573 43 19.4219 42.5581 19.2051 42Z" fill="#F37324"/>
</svg>
