<svg width="52" height="52" fill="none" xmlns="http://www.w3.org/2000/svg"><path d="M21.666 8.65a.866.866 0 011.733 0 .866.866 0 01-1.733 0zM44.2 29.405a.866.866 0 011.733 0 .867.867 0 01-1.734 0zM28.6 43.243a.866.866 0 011.733 0 .866.866 0 01-1.733 0zm-6.934 2.595a.866.866 0 011.733 0 .866.866 0 01-1.733 0zM7.8 25.946a.866.866 0 011.734 0 .866.866 0 01-1.733 0zM28.6 8.65a.866.866 0 011.733 0 .866.866 0 01-1.733 0zm13.867 13.836a.866.866 0 011.733 0 .866.866 0 01-1.733 0zm-4.334-8.648a.866.866 0 011.733 0 .866.866 0 01-1.733 0zm-26 0a.866.866 0 011.733 0 .866.866 0 01-1.733 0zm26 24.216a.866.866 0 011.733 0 .866.866 0 01-1.733 0zm-26 0a.866.866 0 011.733 0 .866.866 0 01-1.733 0zm13.765-12.973a2.598 2.598 0 00-2.482 2.2 2.586 2.586 0 001.717 2.836v1.017a.867.867 0 101.734 0V30.11a2.592 2.592 0 001.69-2.932 2.597 2.597 0 00-2.659-2.097zm.969 2.561a.863.863 0 01-.832.899.868.868 0 01-.849-1.165.865.865 0 01.78-.565H26a.868.868 0 01.867.831z" fill="#F37324"/><path d="M30.334 22.645v-1.024a4.32 4.32 0 00-1.27-3.058 4.338 4.338 0 00-6.128 0 4.32 4.32 0 00-1.27 3.058v1.024a2.6 2.6 0 00-1.732 2.436V32c0 .688.273 1.348.761 1.834.488.487 1.149.76 1.839.76h6.933a2.6 2.6 0 001.838-.76A2.592 2.592 0 0032.067 32v-6.92a2.59 2.59 0 00-1.733-2.435zM23.4 21.621c0-.688.274-1.348.762-1.834a2.603 2.603 0 013.677 0c.487.486.761 1.146.761 1.834v.865h-5.2v-.865zM30.334 32a.864.864 0 01-.867.864h-6.933a.867.867 0 01-.867-.864v-6.92a.864.864 0 01.867-.864h6.933a.868.868 0 01.867.865V32z" fill="#F37324"/><path d="M49.4 33.73c-.386.001-.767.09-1.114.26L46.293 32h-8.16v-1.73h4.334v-.73a1 1 0 00-1-1h-3.334v-1.73h4.538l4.929-2.459a2.598 2.598 0 004.288-1.153 2.584 2.584 0 00-1.291-3.012 2.599 2.599 0 00-3.215.662 2.586 2.586 0 00-.582 1.639c.004.105.015.21.032.313l-4.57 2.281h-4.129v-1.73h1.735a.865.865 0 000-1.73h-1.735v-1.73h3.826l2.86-2.853a2.562 2.562 0 002.559-.178 2.596 2.596 0 001.105-2.663 2.594 2.594 0 00-2.042-2.039 2.605 2.605 0 00-2.67 1.103 2.549 2.549 0 00-.178 2.553l-2.352 2.348h-3.108a4.325 4.325 0 00-1.27-3.056 4.343 4.343 0 00-3.063-1.268V11.6l4.953-4.942a2.562 2.562 0 002.558-.177 2.595 2.595 0 001.106-2.664 2.592 2.592 0 00-2.043-2.038 2.605 2.605 0 00-2.67 1.103 2.547 2.547 0 00-.178 2.553l-5.46 5.448v2.954h-1.733V12.11a.867.867 0 10-1.733 0v1.728h-1.733V7.625a2.599 2.599 0 001.696-2.885A2.594 2.594 0 0026 2.584a2.603 2.603 0 00-2.563 2.156 2.59 2.59 0 001.696 2.885v6.213H23.4V12.11a.867.867 0 00-1.733 0v1.728h-1.734V7.426l-3.726-3.72a2.549 2.549 0 00-.178-2.553A2.599 2.599 0 0013.359.05a2.602 2.602 0 00-2.042 2.038 2.59 2.59 0 001.105 2.664 2.561 2.561 0 002.558.178l3.22 3.212v5.696a4.343 4.343 0 00-3.063 1.268 4.325 4.325 0 00-1.27 3.056h-3.108l-2.352-2.348a2.548 2.548 0 00-.179-2.553 2.599 2.599 0 00-2.669-1.103 2.602 2.602 0 00-2.042 2.039 2.59 2.59 0 001.105 2.663 2.562 2.562 0 002.558.178l2.86 2.854h3.827v1.73H8.353l-4.54 3.774A2.563 2.563 0 002.6 25.08a2.604 2.604 0 00-2.402 1.602 2.59 2.59 0 00.564 2.827A2.601 2.601 0 005.2 27.676c0-.347-.07-.691-.205-1.01L8.98 23.35h4.887v1.73H12.13a.865.865 0 000 1.73h1.736v1.73h-7.8v1.73h7.8V32H9.07l-3.493 5.227a2.577 2.577 0 00-.377-.038 2.628 2.628 0 00-2.588 2.06 2.614 2.614 0 001.493 2.95 2.63 2.63 0 003.198-.857 2.615 2.615 0 00-.188-3.298l2.882-4.314h3.87a4.325 4.325 0 001.27 3.056 4.343 4.343 0 003.063 1.268v5.696l-3.22 3.212a2.561 2.561 0 00-2.558.178 2.596 2.596 0 00-1.105 2.663 2.593 2.593 0 002.042 2.039 2.604 2.604 0 002.67-1.103 2.549 2.549 0 00.178-2.553l3.726-3.719v-6.413h1.734v4.323a.867.867 0 001.733 0v-4.323h1.733v7.398l5.265 3.287a2.628 2.628 0 001.55 3.026 2.643 2.643 0 003.249-1.022 2.628 2.628 0 00-.469-3.367 2.641 2.641 0 00-3.404-.1l-4.457-2.782v-6.44H28.6v1.728a.867.867 0 001.733 0v-1.728h1.734v6.919h6.226a2.596 2.596 0 002.89 1.692 2.592 2.592 0 000-5.114 2.605 2.605 0 00-2.89 1.692H33.8v-5.189a4.344 4.344 0 003.063-1.268 4.325 4.325 0 001.27-3.056h7.441l1.486 1.483a2.548 2.548 0 00.178 2.553 2.599 2.599 0 002.67 1.103 2.602 2.602 0 002.042-2.038 2.589 2.589 0 00-1.106-2.664 2.604 2.604 0 00-1.444-.437zm0-12.108a.867.867 0 01.85 1.033.864.864 0 01-.68.68.868.868 0 01-1.037-.849.864.864 0 01.867-.864zm-3.467-7.784a.868.868 0 01.85 1.033.864.864 0 01-1.181.63.866.866 0 01-.281-1.41.868.868 0 01.612-.253zM39.867 3.459a.868.868 0 01.85 1.034.865.865 0 01-1.182.63.866.866 0 01.332-1.664zM26 4.324a.868.868 0 01.85 1.034.864.864 0 01-1.182.63.866.866 0 01-.28-1.41.867.867 0 01.612-.254zm-13-1.73a.863.863 0 01.535-.798.868.868 0 011.182.63.864.864 0 01-.85 1.033.868.868 0 01-.867-.864zm-7.8 12.11a.864.864 0 011.036-.848.866.866 0 01.631 1.179.865.865 0 01-1.413.28.864.864 0 01-.254-.611zM2.6 28.54a.868.868 0 01-.85-1.034.865.865 0 011.182-.63.867.867 0 01.535.799.864.864 0 01-.867.865zm2.6 12.108a.868.868 0 01-.85-1.034.865.865 0 011.182-.63.866.866 0 01.28 1.41.868.868 0 01-.612.254zm8.667 9.513a.868.868 0 01-.85-1.033.864.864 0 011.181-.63.866.866 0 01.281 1.41.868.868 0 01-.612.253zm19.066-1.73a.868.868 0 01.85 1.034.864.864 0 01-1.181.63.866.866 0 01-.281-1.41.868.868 0 01.612-.254zm7.8-5.189a.868.868 0 01.85 1.034.864.864 0 01-1.181.63.866.866 0 01-.282-1.41.868.868 0 01.613-.254zM36.4 33.73c0 .688-.274 1.348-.761 1.834a2.603 2.603 0 01-1.839.76H18.2a2.6 2.6 0 01-1.838-.76 2.592 2.592 0 01-.762-1.834V18.162c0-.688.274-1.348.761-1.834a2.603 2.603 0 011.839-.76h15.6c.69 0 1.35.273 1.839.76.487.486.761 1.146.761 1.834V33.73zm13 3.46a.867.867 0 01-.85-1.034.864.864 0 01.68-.68.868.868 0 011.037.848.864.864 0 01-.867.865z" fill="#F37324"/></svg>