<svg width="51" height="44" fill="none" xmlns="http://www.w3.org/2000/svg"><path d="M22.097 7.336a3.499 3.499 0 003.495-3.495A3.499 3.499 0 0022.097.346C10.189.346.502 10.034.502 21.941c0 11.908 9.687 21.595 21.595 21.595a3.499 3.499 0 003.495-3.495 3.499 3.499 0 00-3.495-3.495c-8.054 0-14.605-6.552-14.605-14.605S14.044 7.336 22.097 7.336zM5.162 21.941c0 9.338 7.597 16.935 16.935 16.935a1.166 1.166 0 010 2.33c-10.623 0-19.265-8.642-19.265-19.265 0-10.623 8.642-19.265 19.265-19.265a1.166 1.166 0 010 2.33c-9.338 0-16.935 7.597-16.935 16.935zM47.26 7.337c1.894-.01 3.46-1.456 3.564-3.292.118-2.058-1.53-3.698-3.489-3.698-11.907 0-21.595 9.687-21.595 21.595 0 11.866 9.653 21.553 21.518 21.594h.013c1.891 0 3.485-1.504 3.556-3.358a3.492 3.492 0 00-3.492-3.631c-6.566 0-12.361-4.426-14.091-10.762a.277.277 0 01.27-.348h4.771a1.165 1.165 0 100-2.33h-4.772a2.607 2.607 0 00-2.517 3.292c2.006 7.346 8.725 12.478 16.339 12.478.659 0 1.19.545 1.164 1.211-.024.618-.574 1.118-1.228 1.118h-.005C36.683 41.17 28.07 32.527 28.07 21.942c0-10.623 8.642-19.265 19.265-19.265.666 0 1.201.557 1.163 1.235-.035.61-.584 1.091-1.25 1.095-7.57.038-14.252 5.166-16.25 12.47a2.609 2.609 0 002.515 3.3H47.27c.65 0 1.2.496 1.23 1.107.031.67-.5 1.223-1.164 1.223h-3.613a1.165 1.165 0 100 2.33h3.613c1.948 0 3.587-1.621 3.49-3.663-.087-1.866-1.65-3.327-3.556-3.327H33.513a.279.279 0 01-.267-.356c1.723-6.3 7.486-10.722 14.014-10.754z" fill="#F37324"/></svg>