<svg width="52" height="57" fill="none" xmlns="http://www.w3.org/2000/svg"><path d="M51.32 24.42l-8.948-8.947a1.963 1.963 0 00-1.157-.558v-2.057h2.37a1.95 1.95 0 001.807-1.207 1.949 1.949 0 00-.424-2.13L36.02.573A1.94 1.94 0 0034.637 0c-.522 0-1.013.203-1.382.573L24.307 9.52a1.95 1.95 0 00-.424 2.13 1.949 1.949 0 001.806 1.207h2.37v10.136a16.75 16.75 0 00-5.563-.038v-2.86h2.37a1.95 1.95 0 001.806-1.207 1.949 1.949 0 00-.423-2.13l-3.845-3.845a.823.823 0 10-1.164 1.164l3.845 3.844a.295.295 0 01.067.338.295.295 0 01-.286.19h-3.193a.823.823 0 00-.823.823v4.034a16.58 16.58 0 00-2.484.88l-5.972-5.972a1.957 1.957 0 00-2.765 0l-.235.236H6.97a.295.295 0 01-.286-.191.295.295 0 01.067-.338L15.7 8.974a.31.31 0 01.438 0l2.385 2.386a.823.823 0 101.164-1.164L17.3 7.811a1.957 1.957 0 00-2.764 0l-8.948 8.948a1.95 1.95 0 00-.424 2.13 1.95 1.95 0 001.806 1.207h.778L.681 27.164a1.95 1.95 0 00-.424 2.13 1.95 1.95 0 001.806 1.207h2.37v21.655c0 1.078.878 1.955 1.956 1.955h9.245c.358 0 .707-.098 1.01-.281a16.61 16.61 0 008.517 2.339 16.63 16.63 0 009.539-2.997c.343.562.961.94 1.667.94h9.245a1.957 1.957 0 001.955-1.956V27.758h2.37a1.95 1.95 0 001.807-1.207 1.95 1.95 0 00-.424-2.13zM6.39 52.467a.31.31 0 01-.31-.31V29.678a.823.823 0 00-.822-.823H2.063a.295.295 0 01-.286-.19.295.295 0 01.068-.338l8.948-8.948a.308.308 0 01.437 0l5.595 5.595c-5.003 2.891-8.377 8.3-8.377 14.482 0 5.25 2.435 9.943 6.235 13.01H6.39zm18.772 2.057c-8.308 0-15.067-6.76-15.067-15.067 0-8.309 6.759-15.068 15.067-15.068 8.309 0 15.068 6.76 15.068 15.068s-6.76 15.067-15.068 15.067zm25.063-28.601a.295.295 0 01-.286.19h-3.193a.823.823 0 00-.823.824v25.22a.31.31 0 01-.31.31h-9.245a.31.31 0 01-.31-.31l-.001-.036c3.56-3.068 5.819-7.607 5.819-12.664 0-1.613-.232-3.173-.66-4.65v-10.02a.823.823 0 10-1.646 0v6.209a16.786 16.786 0 00-9.864-7.625V12.035a.823.823 0 00-.822-.822H25.69a.295.295 0 01-.285-.191.294.294 0 01.067-.338l8.948-8.948a.308.308 0 01.437 0l8.948 8.948a.295.295 0 01.067.337.295.295 0 01-.286.191h-3.193a.823.823 0 00-.823.823v8.906a.823.823 0 101.646 0v-4.298l8.942 8.941a.295.295 0 01.067.338z" fill="#F37324"/><path d="M25.16 26.17c-2.82 0-5.517.874-7.795 2.527a.823.823 0 10.967 1.332 11.553 11.553 0 016.829-2.213c6.418 0 11.64 5.221 11.64 11.64 0 6.418-5.222 11.64-11.64 11.64-6.419 0-11.64-5.222-11.64-11.64 0-2.502.782-4.887 2.262-6.896a.823.823 0 00-1.325-.976 13.182 13.182 0 00-2.583 7.872c0 7.325 5.96 13.285 13.286 13.285 7.325 0 13.285-5.96 13.285-13.285 0-7.326-5.96-13.286-13.285-13.286z" fill="#F37324"/><path d="M25.16 48.64c5.065 0 9.185-4.12 9.185-9.185 0-5.064-4.12-9.185-9.185-9.185s-9.185 4.12-9.185 9.185 4.12 9.186 9.185 9.186zm0-16.724c4.157 0 7.54 3.382 7.54 7.54 0 4.157-3.383 7.54-7.54 7.54s-7.54-3.383-7.54-7.54c0-4.158 3.383-7.54 7.54-7.54z" fill="#F37324"/><path d="M24.338 44.227v.65a.823.823 0 101.645 0v-.65c1.683-.311 2.944-1.556 2.944-3.041 0-2.206-2-2.73-3.46-3.111-1.364-.357-1.849-.566-1.849-1.027 0-.544.721-1.02 1.543-1.02.821 0 1.542.476 1.542 1.02a.823.823 0 001.646 0c0-1.232-1.005-2.272-2.366-2.576v-.665a.823.823 0 10-1.645 0v.665c-1.36.304-2.365 1.344-2.365 2.576 0 1.813 1.779 2.279 3.078 2.619 1.673.438 2.23.719 2.23 1.519 0 .798-.97 1.472-2.12 1.472-1.15 0-2.12-.674-2.12-1.472a.823.823 0 10-1.646 0c0 1.485 1.26 2.73 2.943 3.041z" fill="#F37324"/></svg>