<svg width="56" height="56" viewBox="0 0 56 56" fill="none" xmlns="http://www.w3.org/2000/svg">
<path fill-rule="evenodd" clip-rule="evenodd" d="M26.1333 0V0.466667V3.73333H27.5333V11.2237C23.6454 11.4664 20.5333 14.695 20.5333 18.632V22.4H18.6667C18.2745 22.4 17.9108 22.5227 17.6094 22.7318L10.7096 18.8982C10.7227 18.822 10.7333 18.7463 10.7333 18.6667C10.7333 18.063 10.3404 17.5469 9.8 17.3523V12.1333H11.2V8.4H7.46667V8.86667V12.1333H8.86667V17.3523C8.32624 17.5469 7.93333 18.063 7.93333 18.6667C7.93333 19.4343 8.56566 20.0667 9.33333 20.0667C9.68505 20.0667 10.005 19.9289 10.2521 19.7112L16.9932 23.4573C16.8734 23.7031 16.8 23.9763 16.8 24.2667V31.2667H3.73333V29.8667H0V30.3333V33.6H3.73333V32.2H16.8V35.4521L10.2539 39.0906C10.0065 38.8717 9.68624 38.7333 9.33333 38.7333C8.56566 38.7333 7.93333 39.3657 7.93333 40.1333C7.93333 40.737 8.32624 41.2513 8.86667 41.4458V46.6667H7.46667V47.1333V50.4H11.2V46.6667H9.8V41.4458C10.3404 41.2513 10.7333 40.737 10.7333 40.1333C10.7333 40.0548 10.7223 39.9788 10.7096 39.9036L16.8 36.5203V41.0667C16.8 42.0928 17.6406 42.9333 18.6667 42.9333H27.5333V52.2667H26.1333V52.7333V56H29.8667V52.2667H28.4667V42.9333H37.3333C38.3594 42.9333 39.2 42.0928 39.2 41.0667V36.5203L45.2904 39.9036C45.2777 39.9788 45.2667 40.0548 45.2667 40.1333C45.2667 40.737 45.6596 41.2513 46.2 41.4458V46.6667H44.8V47.1333V50.4H48.5333V46.6667H47.1333V41.4458C47.6738 41.2513 48.0667 40.737 48.0667 40.1333C48.0667 39.3657 47.4343 38.7333 46.6667 38.7333C46.3147 38.7333 45.9951 38.8708 45.7479 39.0888L39.2 35.4539V32.2H52.2667V33.6H56V29.8667H52.2667V30.3333V31.2667H39.2V24.2667C39.2 23.9763 39.1266 23.7031 39.0068 23.4573L45.7497 19.7112C45.9967 19.9283 46.3155 20.0667 46.6667 20.0667C47.4343 20.0667 48.0667 19.4343 48.0667 18.6667C48.0667 18.063 47.6738 17.5469 47.1333 17.3523V12.1333H48.5333V8.4H44.8V8.86667V12.1333H46.2V17.3523C45.6596 17.5469 45.2667 18.063 45.2667 18.6667C45.2667 18.7463 45.2773 18.822 45.2904 18.8982L38.3906 22.7318C38.0892 22.5227 37.7255 22.4 37.3333 22.4H35.4667V18.632C35.4667 14.695 32.3546 11.4664 28.4667 11.2237V3.73333H29.8667V0H26.1333ZM27.0667 0.933333H28.9333V2.8H27.0667V0.933333ZM8.4 9.33333H10.2667V11.2H8.4V9.33333ZM45.7333 9.33333H47.6V11.2H45.7333V9.33333ZM28 12.1333C31.599 12.1333 34.5333 15.0482 34.5333 18.632V22.4H32.6685V18.6393C32.6685 16.0643 30.5969 14 27.9982 14C25.3994 14 23.3279 16.0643 23.3279 18.6393V22.4H21.4667V18.632C21.4667 15.0482 24.401 12.1333 28 12.1333ZM27.9982 14.9333C30.11 14.9333 31.7352 16.5584 31.7352 18.6393V22.4H24.2612V18.6393C24.2612 16.5584 25.8863 14.9333 27.9982 14.9333ZM9.33333 18.2C9.59659 18.2 9.8 18.4035 9.8 18.6667C9.8 18.93 9.59659 19.1333 9.33333 19.1333C9.07007 19.1333 8.86667 18.93 8.86667 18.6667C8.86667 18.4035 9.07007 18.2 9.33333 18.2ZM46.6667 18.2C46.9299 18.2 47.1333 18.4035 47.1333 18.6667C47.1333 18.93 46.9299 19.1333 46.6667 19.1333C46.4034 19.1333 46.2 18.93 46.2 18.6667C46.2 18.4035 46.4034 18.2 46.6667 18.2ZM18.6667 23.3333H37.3333C37.8585 23.3333 38.2667 23.7416 38.2667 24.2667V33.6H17.7333V24.2667C17.7333 23.7416 18.1415 23.3333 18.6667 23.3333ZM28 25.2C26.7169 25.2 25.6667 26.2502 25.6667 27.5333C25.6672 28.2517 26.0456 28.8798 26.6 29.318V32.6648H29.4V29.3161C29.9539 28.8785 30.3321 28.251 30.3333 27.5333C30.3333 26.2502 29.2831 25.2 28 25.2ZM28 26.1333C28.7787 26.1333 29.4 26.7547 29.4 27.5333C29.3991 28.0334 29.133 28.4937 28.7 28.7437L28.4667 28.8786V31.7333H27.5333V28.8805L27.3 28.7456C26.8665 28.4953 26.6004 28.0339 26.6 27.5333C26.6 26.7547 27.2213 26.1333 28 26.1333ZM0.933333 30.8H2.8V31.2667V32.2V32.6667H0.933333V30.8ZM53.2 30.8H55.0667V32.6667H53.2V30.8ZM17.7333 34.5333H38.2667V39.2H17.7333V34.5333ZM19.1333 35.4667V35.9333V38.2667H21.9333V35.4667H19.1333ZM22.8667 35.4667V35.9333V38.2667H25.6667V35.4667H22.8667ZM26.6 35.4667V35.9333V38.2667H29.4V35.4667H26.6ZM30.3333 35.4667V35.9333V38.2667H33.1333V35.4667H30.3333ZM34.0667 35.4667V35.9333V38.2667H36.8667V35.4667H34.0667ZM20.0667 36.4H21V37.3333H20.0667V36.4ZM23.8 36.4H24.7333V37.3333H23.8V36.4ZM27.5333 36.4H28.4667V37.3333H27.5333V36.4ZM31.2667 36.4H32.2V37.3333H31.2667V36.4ZM35 36.4H35.9333V37.3333H35V36.4ZM9.33333 39.6667C9.59659 39.6667 9.8 39.8701 9.8 40.1333C9.8 40.3966 9.59659 40.6 9.33333 40.6C9.07007 40.6 8.86667 40.3966 8.86667 40.1333C8.86667 39.8701 9.07007 39.6667 9.33333 39.6667ZM46.6667 39.6667C46.9299 39.6667 47.1333 39.8701 47.1333 40.1333C47.1333 40.3966 46.9299 40.6 46.6667 40.6C46.4034 40.6 46.2 40.3966 46.2 40.1333C46.2 39.8701 46.4034 39.6667 46.6667 39.6667ZM17.7333 40.1333H38.2667V41.0667C38.2667 41.5919 37.8585 42 37.3333 42H18.6667C18.1415 42 17.7333 41.5919 17.7333 41.0667V40.1333ZM8.4 47.6H10.2667V49.4667H8.4V47.6ZM45.7333 47.6H47.6V49.4667H45.7333V47.6ZM27.0667 53.2H28.9333V55.0667H27.0667V53.2Z" fill="#F37324"/>
</svg>
