<svg width="55" height="52" fill="none" xmlns="http://www.w3.org/2000/svg"><path d="M54.089 43.973a.808.808 0 00-.804.813v5.428a.136.136 0 01-.136.137h-3.055v-11.87a.808.808 0 00-.804-.813.808.808 0 00-.804.813v11.87h-5.904l1.598-1.776a1.305 1.305 0 00.307-1.067l-1.796-10.724.33-.503.087.062c.294.211.67.288 1.034.197a1.26 1.26 0 00.82-.666l1.828-3.702 4.176 1.634c.165.072 2.318 1.07 2.318 3.666v3.522c0 .449.36.812.805.812a.808.808 0 00.804-.812v-3.521c0-3.75-3.183-5.115-3.318-5.171-.006-.002-.01-.005-.016-.006l-7.11-2.783v-1.48a5.946 5.946 0 002.124-3.685 2.792 2.792 0 002.455-2.784c0-.651-.224-1.275-.625-1.77v-2.192c0-4.29-3.454-7.781-7.7-7.781a7.618 7.618 0 00-4.998 1.868 2.81 2.81 0 00-.623-1.69V7.806c0-4.29-3.454-7.781-7.7-7.781-4.247 0-7.701 3.49-7.701 7.781v2.25a2.666 2.666 0 00-.622 1.626 7.64 7.64 0 00-3.033-1.605.803.803 0 00-.982.58.814.814 0 00.573.992c2.67.71 4.536 3.159 4.536 5.953v1.215a7.981 7.981 0 00-.15-.027.942.942 0 00-.193-.55c-.205-.299-.575-.67-1.764-1.962a1.262 1.262 0 00-1.63-.2c-2.036 1.343-4.51 2.028-6.806 1.892-.748-.044-1.215.288-1.414.832l-.228.046v-1.246c0-2.694 1.782-5.118 4.333-5.895a.814.814 0 00.538-1.012.803.803 0 00-1.002-.544A7.762 7.762 0 007.91 12.92a7.764 7.764 0 00-1.55 4.683v2.25a2.665 2.665 0 00-.624 1.712 2.795 2.795 0 002.459 2.785 6.014 6.014 0 002.24 3.78v1.385l-7.101 2.782-.016.006C3.183 32.358 0 33.723 0 37.472v12.742c0 .972.782 1.763 1.744 1.763h24.763c.346 0 .668-.104.94-.28.271.176.593.28.94.28h24.762c.962 0 1.744-.79 1.744-1.762v-5.43a.808.808 0 00-.804-.812zM8.116 22.67a1.172 1.172 0 01-.772-1.106c0-.478.343-.871.772-1.058v2.164zm37.168 8.912l-1.578 3.197-1.778-1.276L43.9 31.04l1.383.541zm-4.519.789l-2.08-2.594v-.78a6.426 6.426 0 002.09.346 5.89 5.89 0 002.066-.379v.818l-2.076 2.589zm.944 2.969l-.295.45h-1.297l-.295-.45.944-.678.944.678zM27.444 22.575l-2.08-2.594v-.779a6.427 6.427 0 002.09.345 5.89 5.89 0 002.066-.379v.818l-2.076 2.59zm.944 2.97l-.295.449h-1.297l-.296-.45.945-.677.943.677zm-7.276-11.07c.132.037.267.061.404.078a6.013 6.013 0 002.24 3.78v1.385l-1.64.642a2.787 2.787 0 00-.355-.566v-2.192c0-1.103-.23-2.163-.649-3.127zm10.605-.86c0 2.378-1.92 4.307-4.262 4.307-2.643 0-4.41-2.07-4.41-4.307V9.81c2.54.103 5.178-.658 7.334-2.014.725.786 1.157 1.242 1.338 1.454v4.366zm1.535.938a2.99 2.99 0 00.401-.078 7.803 7.803 0 00-.651 3.127v2.25a2.69 2.69 0 00-.318.474l-1.556-.608v-1.48a5.947 5.947 0 002.124-3.685zm-8.946 6.694l1.974 2.462-1.347.966-.002.002-.427.306-1.578-3.196 1.38-.54zm4.99 1.602l1.284-1.603 1.383.54-1.578 3.197-.428-.307h-.002l-1.348-.969.688-.858zm.404 3.636l.086.062c.301.216.678.287 1.035.197a1.26 1.26 0 00.82-.666L33 23.33c.466.58 1.14.934 1.835 1.021a5.917 5.917 0 002.244 3.778v1.384l-6.837 2.679-.871-5.204.33-.503zm7.927 4.558l1.974 2.462-1.776 1.274-1.578-3.196 1.38-.54zm7.411-7.632c0 2.32-1.864 4.307-4.262 4.307-2.733 0-4.41-2.163-4.41-4.307v-3.806c2.522.102 5.163-.649 7.334-2.014.725.785 1.157 1.242 1.338 1.454v4.366zm2.381-1.847c0 .494-.302.933-.772 1.106v-2.21c.486.179.772.628.772 1.104zM34.61 17.602c0-3.395 2.733-6.157 6.093-6.157 3.359 0 6.092 2.762 6.092 6.157v1.215a5.546 5.546 0 00-.15-.027.942.942 0 00-.193-.55c-.211-.306-.577-.672-1.764-1.962a1.262 1.262 0 00-1.63-.2c-1.98 1.307-4.484 2.046-6.866 1.89-.67-.045-1.154.286-1.354.834l-.228.046v-1.246zm.148 2.905v2.162a1.17 1.17 0 01-.772-1.105c0-.478.343-.87.773-1.057zm-.66-8.739a1.174 1.174 0 01-.772 1.106v-2.21c.48.177.772.623.772 1.104zM27.381 1.65c3.36 0 6.093 2.762 6.093 6.156v1.215a5.754 5.754 0 00-.15-.027c-.013-.249-.084-.402-.228-.6-.216-.294-.613-.7-1.73-1.912a1.262 1.262 0 00-1.629-.2c-2.092 1.38-4.63 2.053-6.93 1.886a1.277 1.277 0 00-1.29.838l-.228.047V7.806c0-3.394 2.733-6.156 6.092-6.156zm-5.944 9.06v2.165a1.172 1.172 0 01-.772-1.107c0-.475.34-.87.772-1.057zm-1.433 9.75c.45.165.74.562.768 1.033a1.17 1.17 0 01-.767 1.176v-2.21zm-.074 3.891a2.814 2.814 0 001.911-1.12l1.406 2.847c.165.333.464.576.821.666.353.09.731.021 1.034-.197l.087-.062.33.503-.871 5.202-6.84-2.677v-1.48a5.951 5.951 0 002.122-3.682zm-5.807 8.02l-2.08-2.594v-.78a6.42 6.42 0 002.09.346c.72 0 1.436-.14 2.066-.379v.818l-2.076 2.589zm.944 2.969l-.296.45h-1.296l-.296-.45.944-.678.944.678zm2.192-4.299l1.383.542-1.578 3.196-.429-.307v-.001l-1.35-.968 1.974-2.462zm-7.535-7.63v-3.806c2.553.103 5.193-.668 7.334-2.014.718.778 1.156 1.242 1.338 1.454v4.366c0 2.363-1.907 4.307-4.262 4.307-2.623 0-4.41-2.046-4.41-4.307zm1.26 7.632l1.975 2.462-1.347.966-.002.001-.427.307-1.578-3.196 1.38-.54zM6.408 50.352V38.48a.808.808 0 00-.804-.813.808.808 0 00-.804.813v11.87H1.744a.136.136 0 01-.136-.136V37.472c0-2.61 2.176-3.604 2.317-3.665l4.173-1.635 1.828 3.702a1.25 1.25 0 001.855.469l.086-.062.331.503-1.796 10.724-.004.025a1.31 1.31 0 00.312 1.042l1.597 1.776h-5.9zm5.609-2.74l1.707-10.197h.8l1.708 10.196-2.108 2.343-2.107-2.343zm14.626 2.602c0 .076-.06.138-.135.138h-3.055V38.48a.808.808 0 00-.804-.813.808.808 0 00-.805.813v11.87H15.94l1.598-1.776a1.31 1.31 0 00.312-1.042l-.004-.025-1.796-10.724.33-.503.086.062a1.252 1.252 0 001.855-.469l1.828-3.702 4.176 1.634c1.217.535 2.318 1.915 2.318 3.666v12.742zm.804-15.694a5.766 5.766 0 00-1.31-1.472l.909-5.429h.8l.909 5.431a5.77 5.77 0 00-1.308 1.47zm5.604 15.832V38.48a.808.808 0 00-.805-.813.808.808 0 00-.804.813v11.87h-3.055a.136.136 0 01-.135-.136V37.472c0-.965.3-1.855.938-2.602.426-.494.99-.893 1.379-1.063l4.172-1.635 1.829 3.702a1.253 1.253 0 001.855.469l.086-.062.33.503-1.796 10.724-.004.025a1.31 1.31 0 00.312 1.042l1.598 1.776h-5.9zm5.608-2.74l1.708-10.197h.8l1.707 10.196-2.107 2.343-2.108-2.343z" fill="#F37324"/></svg>