<svg width="52" height="52" fill="none" xmlns="http://www.w3.org/2000/svg"><path d="M6.069 3.467a2.6 2.6 0 100 5.2 2.6 2.6 0 000-5.2zm0 3.467a.867.867 0 110-1.734.867.867 0 010 1.734zM13.002 5.2H11.27a.867.867 0 100 1.733h1.733a.867.867 0 100-1.733zm5.196 0h-1.734a.867.867 0 100 1.733h1.734a.867.867 0 000-1.733zM6.069 19.066a2.6 2.6 0 100 5.2 2.6 2.6 0 000-5.2zm0 3.467a.867.867 0 110-1.733.867.867 0 010 1.733zm6.933-1.733H11.27a.867.867 0 100 1.734h1.733a.867.867 0 000-1.734zm5.196 0h-1.734a.867.867 0 000 1.734h1.734a.867.867 0 000-1.734zM6.069 34.667a2.6 2.6 0 100 5.2 2.6 2.6 0 000-5.2zm0 3.467a.867.867 0 110-1.733.867.867 0 010 1.733zm6.933-1.734H11.27a.867.867 0 100 1.734h1.733a.867.867 0 100-1.734zm5.196 0h-1.734a.867.867 0 100 1.734h1.734a.867.867 0 000-1.734z" fill="#F37324"/><path d="M49.4 19.067h-6.067V18.2a2.6 2.6 0 00-2.6-2.6h-2.6v-3.467h2.6a2.6 2.6 0 002.6-2.6V2.6a2.6 2.6 0 00-2.6-2.6H2.6A2.6 2.6 0 000 2.6v6.933a2.6 2.6 0 002.6 2.6h2.6V15.6H2.6A2.6 2.6 0 000 18.2v6.933a2.6 2.6 0 002.6 2.6h2.6V31.2H2.6A2.6 2.6 0 000 33.8v6.933a2.6 2.6 0 002.6 2.6h16.467V46.8H.867a.867.867 0 000 1.733H33.8c.017 0 .03-.008.046-.01.7.62 1.432 1.201 2.193 1.744H.867a.867.867 0 100 1.733H39a.856.856 0 00.299-.06.668.668 0 00.069-.028.516.516 0 00.06-.025C51.856 44.834 52 33.262 52 32.772V21.667a2.6 2.6 0 00-2.6-2.6zM2.6 10.4a.867.867 0 01-.867-.867V2.6c0-.479.388-.867.867-.867h38.133c.479 0 .867.388.867.867v6.933a.867.867 0 01-.867.867H2.6zm33.8 1.733V15.6H6.933v-3.467H36.4zM2.6 26a.867.867 0 01-.867-.867V18.2c0-.479.388-.867.867-.867h38.133c.479 0 .867.388.867.867v.867h-13a2.6 2.6 0 00-2.6 2.6V26H2.6zM26 27.733V31.2H6.933v-3.467H26zM2.6 41.6a.867.867 0 01-.867-.867V33.8c0-.479.388-.867.867-.867H26a21.29 21.29 0 002.427 8.667H2.6zm19.933 5.2H20.8v-3.467h1.733V46.8zm1.734 0v-3.467h5.155a23.619 23.619 0 002.656 3.467h-7.811zm26-14.029c0 .443-.167 10.805-11.267 17.361-11.1-6.556-11.267-16.918-11.267-17.36V21.667c0-.479.388-.867.867-.867h20.8c.479 0 .867.388.867.867V32.77z" fill="#F37324"/><path d="M46.8 22.533a.867.867 0 100 1.733v8.494c-.006.327-.211 8.071-8.288 13.578a.866.866 0 10.976 1.432c8.812-6.007 9.04-14.621 9.045-14.998v-8.505c0-.958-.776-1.734-1.733-1.734zM31.202 32.772v-8.505h9.534a.867.867 0 000-1.734h-9.534c-.957 0-1.733.776-1.733 1.734v8.505a18.479 18.479 0 003.631 9.793.867.867 0 101.404-1.017 16.895 16.895 0 01-3.302-8.776z" fill="#F37324"/><path d="M44.815 28.746a.867.867 0 00-1.225 0l-6.43 6.429-1.012-1.012a.867.867 0 00-1.225 1.225l1.625 1.625a.867.867 0 001.225 0l7.042-7.042a.867.867 0 000-1.225z" fill="#F37324"/></svg>