<svg width="48" height="50" fill="none" xmlns="http://www.w3.org/2000/svg"><path d="M13.381 23.117h4.208a.733.733 0 100-1.465h-4.208a.734.734 0 100 1.465zm0 3.55h17.091a.734.734 0 100-1.465h-17.09a.734.734 0 100 1.465zm17.089 2.085h-4.556a.733.733 0 100 1.465h4.557a.734.734 0 100-1.465z" fill="#F37324"/><path d="M46.964 4.917L37.454.18a1.727 1.727 0 00-1.532 0l-9.51 4.738a1.699 1.699 0 00-.948 1.53V7.81H15.14a.733.733 0 100 1.465h10.324V11.5c0 1.069.08 2.084.241 3.052H13.381a.734.734 0 100 1.465H26.02c.192.723.436 1.417.73 2.085H13.38a.734.734 0 100 1.465h14.121a14.885 14.885 0 001.493 2.084h-8.466a.734.734 0 100 1.465h9.867c1.385 1.3 3.136 2.58 5.397 3.958a1.72 1.72 0 001.793 0l.222-.136v17.786H18.585v-1.366a.734.734 0 00-1.47 0v4.932c0 .135-.11.244-.244.244H1.713a.245.245 0 01-.245-.244V37.74c0-.134.11-.244.245-.244H16.87c.136 0 .245.11.245.245v2.2c0 .404.33.732.735.732a.733.733 0 00.735-.733v-2.2c0-.147-.021-.289-.056-.425h11.943a.734.734 0 100-1.465H16.224v-2.085h14.247a.734.734 0 100-1.465H16.194a6.835 6.835 0 00-.531-2.084h7.608a.734.734 0 100-1.465H14.8a6.93 6.93 0 00-8.755-1.914V9.274h5.666a.733.733 0 100-1.465H5.8c-.676 0-1.225.548-1.225 1.22v18.855a6.881 6.881 0 00-2.214 5.056v3.092h-.647C.77 36.032 0 36.8 0 37.742V48.29C0 49.233.77 50 1.714 50H16.87c.946 0 1.715-.767 1.715-1.709V46.19h19.467c.676 0 1.225-.548 1.225-1.221V25.997c2.615-1.744 4.425-3.373 5.75-5.153 1.941-2.61 2.885-5.666 2.885-9.343V6.446a1.7 1.7 0 00-.948-1.529zM11.816 36.032H6.769v-3.091a2.522 2.522 0 012.524-2.516 2.522 2.522 0 012.523 2.516v3.091zM3.83 32.941c0-3.003 2.45-5.446 5.463-5.446 3.011 0 5.462 2.443 5.462 5.446v3.091h-1.47v-3.091a3.991 3.991 0 00-3.992-3.981A3.991 3.991 0 005.3 32.94v3.093H3.83V32.94zM46.443 11.5c0 7.04-3.683 10.7-9.625 14.325a.251.251 0 01-.26 0C30.617 22.2 26.934 18.54 26.934 11.5V6.446c0-.093.052-.177.136-.218l9.51-4.738a.247.247 0 01.219 0l9.51 4.738a.243.243 0 01.135.218v5.055z" fill="#F37324"/><path d="M36.644 5.09c-4.1 0-7.435 3.326-7.435 7.412 0 4.087 3.335 7.412 7.435 7.412a7.45 7.45 0 007.004-4.923.735.735 0 00-1.384-.492 5.977 5.977 0 01-5.62 3.95c-3.29 0-5.966-2.668-5.966-5.947s2.676-5.946 5.966-5.946a5.948 5.948 0 015.87 4.9.734.734 0 001.448-.257 7.414 7.414 0 00-7.318-6.108z" fill="#F37324"/><path d="M39.194 10.499l-2.895 2.885-1.683-1.678a.736.736 0 00-1.04 0 .73.73 0 000 1.036l2.203 2.196a.736.736 0 001.04 0l3.414-3.404a.73.73 0 000-1.035.737.737 0 00-1.04 0z" fill="#F37324"/></svg>