<svg width="50" height="50" fill="none" xmlns="http://www.w3.org/2000/svg"><path d="M47.315 6.764H34.51C33.14 2.83 29.394 0 25 0c-1.6 0-3.131.365-4.55 1.085-.844.429-.182 1.735.663 1.306A8.51 8.51 0 0125 1.465c4.743 0 8.602 3.859 8.602 8.602S29.743 18.669 25 18.669s-8.602-3.859-8.602-8.602a8.6 8.6 0 012.067-5.593c.616-.72-.497-1.673-1.113-.953a10.05 10.05 0 00-1.859 3.242H2.686A2.689 2.689 0 000 9.45v37.866A2.689 2.689 0 002.686 50h44.629A2.689 2.689 0 0050 47.315V9.449a2.689 2.689 0 00-2.685-2.685zm0 1.464c.673 0 1.22.548 1.22 1.221v5.444H33.833a10.1 10.1 0 001.065-6.665h12.416zm-44.63 0h12.419a10.09 10.09 0 001.063 6.665H1.465V9.449c0-.673.547-1.22 1.22-1.22zm44.63 40.307H2.684c-.673 0-1.22-.547-1.22-1.22V16.357h15.682a10.052 10.052 0 0015.716-.012c.043.008 15.672.012 15.672.012v30.958c0 .673-.547 1.22-1.22 1.22z" fill="#F37324"/><path d="M40.545 35.38H9.458c-5.418 0-5.428 8.418 0 8.418h31.087c5.418 0 5.427-8.418 0-8.418zm0 6.953H9.458c-3.531 0-3.556-5.488 0-5.488h31.087c3.53 0 3.555 5.488 0 5.488z" fill="#F37324"/><path d="M11.83 38.856c-.942 0-.944 1.465 0 1.465.943 0 .945-1.465 0-1.465zm3.764 0c-.942 0-.944 1.465 0 1.465.943 0 .944-1.465 0-1.465zm3.763 0c-.943 0-.944 1.465 0 1.465.942 0 .944-1.465 0-1.465zm3.761 0c-.943 0-.944 1.465 0 1.465.942 0 .944-1.465 0-1.465zm3.762 0c-.942 0-.944 1.465 0 1.465.943 0 .945-1.465 0-1.465zm3.765 0c-.943 0-.944 1.465 0 1.465.942 0 .944-1.465 0-1.465zm3.763 0c-.943 0-.944 1.465 0 1.465.942 0 .944-1.465 0-1.465zm3.759 0c-.942 0-.944 1.465 0 1.465.943 0 .945-1.465 0-1.465zm2.378-14.528H9.458c-5.418 0-5.428 8.417 0 8.417h24.654c.947 0 .947-1.465 0-1.465H9.458c-3.531 0-3.556-5.488 0-5.488h31.087c3.53 0 3.555 5.488 0 5.488h-2.527c-.947 0-.947 1.465 0 1.465h2.527c5.418 0 5.427-8.417 0-8.417zM25.001 4.111a2.607 2.607 0 00-2.605 2.605v1.727a1.711 1.711 0 00-1.529 1.7v3.78c0 .942.767 1.709 1.71 1.709h4.849c.942 0 1.709-.767 1.709-1.71v-3.78c0-.88-.671-1.608-1.53-1.699V6.716a2.607 2.607 0 00-2.604-2.605zm-1.14 2.605c0-1.426 2.28-1.491 2.28 0v1.718h-2.28V6.716zm3.81 7.207c0 .134-.11.244-.245.244h-4.85a.245.245 0 01-.244-.244v-3.78c0-.135.11-.244.244-.244h4.85c.135 0 .244.11.244.244v3.78z" fill="#F37324"/><path d="M38.9 28.537a.732.732 0 00-.733-.732H11.83c-.947 0-.947 1.465 0 1.465h26.338a.732.732 0 00.733-.733zM25 11.3c-.942 0-.944 1.466 0 1.466.943 0 .945-1.465 0-1.465z" fill="#F37324"/></svg>