<svg width="52" height="52" fill="none" xmlns="http://www.w3.org/2000/svg"><path d="M41.277 12.551v.153a.762.762 0 101.524 0v-.153c0-.537-.19-1.06-.537-1.47a.762.762 0 10-1.165.98c.081.097.178.26.178.49zm.76 5.689a.762.762 0 00-.762.762v1.218a.762.762 0 101.524 0v-1.218a.762.762 0 00-.762-.762zm.762-2.996a.762.762 0 10-1.524 0v1.218a.762.762 0 101.524 0v-1.218zM29.656 46.962h-1.218a.762.762 0 100 1.523h1.218a.762.762 0 100-1.523zm-3.758 0H24.68a.762.762 0 000 1.523h1.218a.762.762 0 100-1.523zm-3.758 0h-1.218a.762.762 0 000 1.523h1.219a.762.762 0 000-1.523zm-3.757 0h-1.219a.762.762 0 000 1.523h1.219a.762.762 0 000-1.523zm-3.443-.06a.767.767 0 01-.413-.427.762.762 0 00-1.42.55 2.3 2.3 0 001.236 1.278.758.758 0 00.999-.402.762.762 0 00-.402-.999zm-1.223-1.917c.42 0 .761-.341.761-.762v-1.219a.762.762 0 10-1.523 0v1.22c0 .42.341.76.762.76zm3.468-27.593H6.621a.762.762 0 100 1.523h10.564a.762.762 0 100-1.523zm0 3.69H6.621a.762.762 0 000 1.524h10.564a.762.762 0 000-1.524zm0 3.674H6.621a.762.762 0 000 1.524h10.564a.762.762 0 100-1.524zm.762 4.469a.762.762 0 00-.762-.762H6.621a.762.762 0 100 1.524h10.564a.762.762 0 00.762-.762zM6.621 32.154a.762.762 0 100 1.524h4.736a.762.762 0 000-1.524H6.62zm15.487 7.937a.76.76 0 001.078 0l3.074-3.074a.762.762 0 10-1.077-1.078l-2.536 2.537-1.778-1.779a.762.762 0 10-1.078 1.077l2.317 2.317z" fill="#F37324"/><path d="M34.227 19.799a11.127 11.127 0 001.902-1.902 1.346 1.346 0 00-.111-1.78L34.63 14.73c.182-.36.337-.735.463-1.12h1.964c.68 0 1.255-.506 1.337-1.178.026-.213.045-.427.059-.641h.852a.762.762 0 100-1.524h-.86a11.31 11.31 0 00-.05-.526 1.345 1.345 0 00-1.337-1.179h-1.965a8.067 8.067 0 00-.463-1.12l1.388-1.388a1.345 1.345 0 00.111-1.779 11.135 11.135 0 00-1.902-1.902 1.345 1.345 0 00-1.778.111l-1.39 1.388a8.057 8.057 0 00-1.119-.463V1.444c0-.68-.507-1.255-1.179-1.337a11.186 11.186 0 00-2.69 0 1.345 1.345 0 00-1.18 1.337v1.964a8.15 8.15 0 00-1.12.463l-1.387-1.388a1.345 1.345 0 00-1.78-.111 11.129 11.129 0 00-1.901 1.902 1.346 1.346 0 00.11 1.779l1.39 1.388a8.07 8.07 0 00-.465 1.12h-1.964c-.68 0-1.255.507-1.336 1.179-.021.174-.037.35-.05.526H5.705c-.474 0-.92.185-1.256.52L.52 14.716c-.335.334-.52.781-.52 1.256v21.951c0 .98.797 1.777 1.777 1.777h11.176v.765a.762.762 0 001.524 0V39.7h2.08c.8 2.82 3.397 4.893 6.47 4.893a6.734 6.734 0 006.726-6.727c0-3.444-2.603-6.291-5.945-6.68v-3.46a.762.762 0 00-1.524 0v3.455c-3.36.371-5.984 3.227-5.984 6.685 0 .104.003.208.008.311H1.778a.254.254 0 01-.255-.254V15.971c0-.066.028-.132.075-.179l3.928-3.928a.252.252 0 01.18-.075h10.673c.013.215.033.43.058.642a1.345 1.345 0 001.337 1.179h1.964c.126.384.282.76.464 1.12l-1.389 1.388a1.346 1.346 0 00-.11 1.779 11.134 11.134 0 001.901 1.902c.498.39 1.198.374 1.68-.022v4.395a.762.762 0 001.524 0v-5.855c.35.174.712.324 1.083.446v1.964c0 .68.507 1.255 1.18 1.337a11.194 11.194 0 002.69 0 1.345 1.345 0 001.179-1.337v-1.964c.384-.126.76-.282 1.12-.464l1.388 1.389c.481.48 1.246.528 1.78.111zm-11.2 12.864a5.209 5.209 0 015.203 5.203 5.209 5.209 0 01-5.203 5.203 5.209 5.209 0 01-5.203-5.203 5.209 5.209 0 015.203-5.203zm7.435-15.77a6.45 6.45 0 01-1.094.453c-.57.177-.951.694-.951 1.287v1.937a9.707 9.707 0 01-2.002 0v-1.938c0-.592-.382-1.109-.952-1.286a6.522 6.522 0 01-1.094-.453 1.344 1.344 0 00-1.582.237l-1.37 1.369a9.613 9.613 0 01-1.415-1.415l1.369-1.37a1.344 1.344 0 00.237-1.582 6.53 6.53 0 01-.453-1.094 1.343 1.343 0 00-1.287-.952h-1.936a9.644 9.644 0 010-2.002h1.937c.592 0 1.109-.382 1.286-.951a6.54 6.54 0 01.453-1.094 1.344 1.344 0 00-.237-1.583l-1.369-1.369c.42-.52.896-.995 1.415-1.415l1.37 1.369a1.344 1.344 0 001.582.236c.35-.183.717-.335 1.094-.453.57-.177.952-.694.952-1.286V1.601a9.653 9.653 0 012.002 0v1.937c0 .593.382 1.11.951 1.286.377.118.745.27 1.095.453a1.343 1.343 0 001.582-.236l1.37-1.37c.519.422.994.897 1.414 1.416l-1.368 1.37a1.343 1.343 0 00-.237 1.582c.183.35.336.717.453 1.094.177.57.694.952 1.286.952H36.9a9.653 9.653 0 010 2.001h-1.937c-.593 0-1.11.383-1.286.952-.117.377-.27.745-.453 1.094a1.344 1.344 0 00.236 1.583l1.37 1.369c-.422.52-.897.994-1.416 1.415l-1.369-1.369a1.343 1.343 0 00-1.583-.237z" fill="#F37324"/><path d="M31.329 8.519a.762.762 0 00-.387 1.005 3.86 3.86 0 01-3.525 5.417 3.86 3.86 0 01-3.856-3.856 3.86 3.86 0 015.225-3.604.762.762 0 00.542-1.424 5.385 5.385 0 00-7.29 5.028 5.385 5.385 0 005.378 5.38 5.385 5.385 0 005.38-5.38 5.34 5.34 0 00-.462-2.179.762.762 0 00-1.005-.387z" fill="#F37324"/><path d="M27.414 8.72a2.367 2.367 0 00-2.365 2.365 2.367 2.367 0 002.365 2.365 2.367 2.367 0 002.364-2.364 2.367 2.367 0 00-2.364-2.365zm0 3.207a.842.842 0 010-1.683.842.842 0 010 1.683zm23.316 20.6c.7 0 1.27-.57 1.27-1.27v-5.555c0-.7-.57-1.27-1.27-1.27h-8.08a.757.757 0 00.151-.454v-1.219a.762.762 0 10-1.523 0v1.219c0 .17.057.328.152.455h-8.082c-.7 0-1.27.57-1.27 1.27v5.555c0 .7.57 1.27 1.27 1.27h7.93v1.527h-7.93c-.7 0-1.27.57-1.27 1.27v5.555c0 .7.57 1.27 1.27 1.27h7.93v1.527h-7.93c-.7 0-1.27.57-1.27 1.27v2.025a.761.761 0 000 1.504v2.026c0 .7.57 1.27 1.27 1.27H50.73c.7 0 1.27-.57 1.27-1.27v-5.556c0-.7-.57-1.27-1.27-1.27H42.8V42.15h1.99a.762.762 0 000-1.523H33.6v-5.048h16.877v5.048h-2.133a.762.762 0 100 1.523h2.386c.7 0 1.27-.57 1.27-1.27v-5.555c0-.7-.57-1.27-1.27-1.27H42.8v-1.527h7.93zM50.477 45.2v5.048H33.6V45.2h16.876zM33.6 31.004v-5.048h16.876v5.048H33.6z" fill="#F37324"/><path d="M47.624 27.718h-11.17a.762.762 0 100 1.523h11.17a.762.762 0 100-1.523zm.762 10.384a.762.762 0 00-.762-.762h-11.17a.762.762 0 000 1.524h11.17c.42 0 .762-.341.762-.762zM36.453 48.485h11.171a.762.762 0 100-1.523h-11.17a.762.762 0 000 1.523z" fill="#F37324"/></svg>