<svg width="48" height="52" fill="none" xmlns="http://www.w3.org/2000/svg"><path d="M47.757 17.109c-.47-5.184-1.71-8.747-1.764-8.897a.776.776 0 00-.93-.485c-3.71.824-8.116-.542-8.93-6.546a.768.768 0 00-.668-.642C35.42.534 30.984 0 23.983 0c-1.434 0-2.864.022-4.25.066a.766.766 0 00-.748.786c.014.42.37.75.797.737 4.273-.237 13.587.166 14.924.401.548 2.862 1.806 4.943 3.744 6.19 2.345 1.51 5.019 1.354 6.283 1.162 4.882 16.938-.493 34.68-20.75 41.092-3.309-1.108-6.297-2.496-8.887-4.126-.88-.513-1.674.713-.831 1.284 2.76 1.738 5.947 3.207 9.473 4.369.159.052.33.052.49 0C41.641 46.59 49.4 32.479 47.756 17.109zM12.458 44.461C1.32 36.311-.274 20.81 3.232 9.341c1.265.193 3.938.349 6.283-1.16 1.938-1.248 3.196-3.33 3.745-6.191a79.736 79.736 0 012.865-.23.765.765 0 00.721-.808.769.769 0 00-.82-.712c-2.232.142-3.473.293-3.525.3a.768.768 0 00-.669.641c-.415 2.71-1.475 4.632-3.15 5.716-2.548 1.649-5.748.838-5.779.83a.775.775 0 00-.93.485c-3.69 11.27-2.952 28.08 9.528 37.445a.775.775 0 001.085-.126.755.755 0 00-.128-1.07z" fill="#F37324"/><path d="M6.016 18.882a.767.767 0 00-.8.734c-.484 12.879 5.712 22.213 18.493 26.946a.792.792 0 00.547 0c12.276-4.566 18.492-13.279 18.522-25.568a.767.767 0 00-.77-.764h-.003a.767.767 0 00-.772.76c-.03 11.555-5.74 19.662-17.25 24.044C11.987 40.486 6.308 31.796 6.76 19.67a.766.766 0 00-.744-.79zm36.031-5.372a.768.768 0 00-.66-.61c-4.104-.604-7.282-2.574-9.3-7.132a.772.772 0 00-.667-.47 126.446 126.446 0 00-14.876 0 .772.772 0 00-.666.47c-2.017 4.554-5.191 6.525-9.293 7.131a.768.768 0 00-.66.611c-.18.922-.33 1.864-.445 2.798a.764.764 0 00.674.848.77.77 0 00.86-.664 38.69 38.69 0 01.329-2.164c4.237-.797 7.523-2.874 9.771-7.538 4.343-.25 9.393-.25 13.736 0 1.358 2.982 3.333 4.708 4.784 5.642 1.487.957 3.165 1.595 4.996 1.897.202 1.115.356 2.245.457 3.367a.768.768 0 00.838.691.765.765 0 00.701-.826 39.636 39.636 0 00-.579-4.05z" fill="#F37324"/><path d="M15.696 18.744c0-1.54-1.27-2.793-2.833-2.793-3.3.08-3.891 4.54-.772 5.48v4.855c0 .21.088.411.243.555l3.637 3.367a.78.78 0 001.092-.034.754.754 0 00-.034-1.076l-3.393-3.142v-4.525c1.187-.332 2.06-1.411 2.06-2.687zm-2.833 1.27a1.28 1.28 0 01-1.287-1.27c.07-1.685 2.504-1.684 2.575 0 0 .7-.578 1.27-1.288 1.27z" fill="#F37324"/><path d="M15.953 34.544a.754.754 0 000 1.077.78.78 0 001.092 0l3.565-3.515a.756.756 0 00.227-.539V16.74a.756.756 0 00-.227-.539l-3.565-3.514a.78.78 0 00-1.092 0 .754.754 0 000 1.077l3.338 3.292v14.197l-3.338 3.292zm14.984-5.446a.754.754 0 00-.034 1.076.78.78 0 001.092.034l3.636-3.367a.757.757 0 00.244-.555v-4.855c1.188-.332 2.06-1.411 2.06-2.687-.156-3.705-5.51-3.704-5.665 0 0 1.276.872 2.355 2.06 2.687v4.525l-3.393 3.142zm2.878-10.354c0-.7.577-1.27 1.287-1.27 1.709.07 1.708 2.47 0 2.54a1.28 1.28 0 01-1.287-1.27z" fill="#F37324"/><path d="M30.92 12.685L27.355 16.2a.756.756 0 00-.226.539v14.828c0 .202.081.396.226.539l3.565 3.515a.78.78 0 001.092 0 .754.754 0 000-1.078l-3.338-3.291V17.054l3.338-3.291a.754.754 0 000-1.078.78.78 0 00-1.092 0zm-6.935 6.865a.767.767 0 00.773-.762v-8.32c-.035-1.008-1.51-1.007-1.545 0v8.32c0 .42.346.762.772.762zm-2.833 18.98c0 1.54 1.271 2.794 2.833 2.794 3.3-.08 3.891-4.54.773-5.48v-2.939c-.036-1.009-1.51-1.008-1.546 0v2.938c-1.187.333-2.06 1.412-2.06 2.688zm2.833-1.269c.71 0 1.288.57 1.288 1.27-.071 1.684-2.505 1.684-2.576 0 0-.7.578-1.27 1.288-1.27zm-.003-10.663a.767.767 0 00.772-.762c-.035-1.009-1.51-1.008-1.545 0 0 .42.346.762.773.762zm.003-3.555a.767.767 0 00.773-.762c-.035-1.008-1.51-1.008-1.545 0 0 .42.346.762.772.762zm0 5.585a.767.767 0 00-.772.762c.035 1.008 1.51 1.008 1.545 0a.767.767 0 00-.773-.762z" fill="#F37324"/></svg>