<svg width="64" height="50" fill="none" xmlns="http://www.w3.org/2000/svg"><path d="M63.833 18.155c-.128-.185-3.2-4.58-8.654-9.031-3.21-2.62-6.578-4.71-10.013-6.21C40.85 1.03 36.42.074 32 .074c-4.421 0-8.851.955-13.166 2.84-3.435 1.5-6.804 3.59-10.013 6.21C3.367 13.575.295 17.97.167 18.154a.938.938 0 000 1.069c.1.144 2.499 3.58 6.815 7.457 3.778 3.393 9.753 7.721 17.196 9.628l-2.789 4.45a5.913 5.913 0 00-.165 6.08 5.913 5.913 0 005.238 3.088h11.076a5.913 5.913 0 005.239-3.088 5.914 5.914 0 00-.167-6.081l-.129-.206a.938.938 0 00-1.587.998l.128.204a4.062 4.062 0 01.114 4.177 4.061 4.061 0 01-3.599 2.121H26.463a4.061 4.061 0 01-3.598-2.121 4.062 4.062 0 01.114-4.177l3.483-5.558.003-.004 2.05-3.272a4.091 4.091 0 013.47-1.928h.031a4.091 4.091 0 013.47 1.928l2.051 3.272.002.004 1.033 1.647a.937.937 0 101.588-.996l-.336-.537c4.927-1.258 9.748-3.694 14.35-7.255a.938.938 0 00-1.148-1.483c-4.58 3.545-9.371 5.919-14.25 7.065l-1.7-2.713a6.015 6.015 0 00-1.35-1.509 12.342 12.342 0 005.816-3.969h2.302a2.962 2.962 0 002.804 2.02 2.961 2.961 0 002.958-2.957 2.961 2.961 0 00-2.958-2.958 2.962 2.962 0 00-2.804 2.02h-1.041a12.211 12.211 0 001.464-4.943h3.617a2.962 2.962 0 002.805 2.02 2.961 2.961 0 002.958-2.958 2.961 2.961 0 00-2.958-2.957 2.963 2.963 0 00-2.805 2.02h-3.617a12.212 12.212 0 00-1.464-4.944h1.04a2.962 2.962 0 002.806 2.02 2.961 2.961 0 002.957-2.957 2.961 2.961 0 00-2.957-2.958 2.963 2.963 0 00-2.805 2.02H41.54A12.284 12.284 0 0028.763 6.82a.938.938 0 00.494 1.81A10.418 10.418 0 0132 8.261c5.749 0 10.426 4.678 10.426 10.427 0 5.745-4.67 10.42-10.415 10.427h-.023c-5.744-.006-10.415-4.681-10.415-10.427 0-3.281 1.499-6.305 4.111-8.294a.937.937 0 10-1.136-1.492 12.457 12.457 0 00-2.102 2.03h-2.289a2.962 2.962 0 00-2.805-2.02 2.961 2.961 0 00-2.957 2.958 2.961 2.961 0 002.957 2.957 2.962 2.962 0 002.805-2.02h1.028a12.205 12.205 0 00-1.45 4.944h-3.619a2.962 2.962 0 00-2.804-2.02 2.961 2.961 0 00-2.958 2.957 2.961 2.961 0 002.958 2.958 2.963 2.963 0 002.804-2.02h3.618a12.21 12.21 0 001.464 4.943h-1.041a2.962 2.962 0 00-2.805-2.02 2.961 2.961 0 00-2.957 2.958 2.961 2.961 0 002.957 2.958 2.962 2.962 0 002.805-2.02h2.302a12.343 12.343 0 005.815 3.968 6.01 6.01 0 00-1.349 1.51l-1.7 2.712c-7.327-1.725-13.242-5.992-16.952-9.318-3.194-2.863-5.336-5.527-6.172-6.63.982-1.293 3.765-4.74 7.947-8.146C14.862 6.622 22.578 1.949 32 1.949c9.422 0 17.138 4.673 21.951 8.593 4.182 3.406 6.965 6.853 7.947 8.147-.785 1.036-2.723 3.45-5.6 6.109a.937.937 0 101.273 1.377c3.971-3.672 6.17-6.82 6.262-6.952a.938.938 0 000-1.068zm-17.186 6.27c.597 0 1.083.486 1.083 1.083s-.486 1.083-1.083 1.083a1.084 1.084 0 010-2.166zm0-13.637a1.084 1.084 0 010 2.166 1.084 1.084 0 010-2.166zm4.04 6.819c.598 0 1.084.485 1.084 1.082a1.084 1.084 0 11-1.083-1.083zm-33.334-4.653a1.084 1.084 0 01-1.083-1.083 1.084 1.084 0 111.083 1.083zm0 13.637a1.084 1.084 0 01-1.083-1.083 1.084 1.084 0 111.083 1.083zm-4.041-6.819a1.084 1.084 0 01-1.083-1.083 1.084 1.084 0 111.083 1.083z" fill="#F37324"/><path d="M32 24.678a5.995 5.995 0 005.988-5.989A5.995 5.995 0 0032 12.701a5.995 5.995 0 00-5.988 5.988A5.995 5.995 0 0032 24.678zm0-10.102a4.118 4.118 0 014.113 4.113A4.118 4.118 0 0132 22.803a4.118 4.118 0 01-4.113-4.114A4.118 4.118 0 0132 14.576zm3.805 22.626a.651.651 0 00-.944 0l-4.95 5.13-.78-.808a.65.65 0 00-.936.008.71.71 0 00-.008.97l1.252 1.296c.26.27.683.27.943 0l5.423-5.618a.71.71 0 000-.978z" fill="#F37324"/></svg>