<svg width="44" height="44" viewBox="0 0 44 44" fill="none" xmlns="http://www.w3.org/2000/svg">
<path d="M22.3802 0.003299C17.6846 -0.0780784 13.0392 1.34736 9.15891 4.13575C9.04109 4.22118 8.96193 4.34979 8.93874 4.49343C8.91554 4.63708 8.95021 4.78406 9.03516 4.90221C9.1201 5.02037 9.2484 5.10007 9.39198 5.12387C9.53557 5.14768 9.68274 5.11366 9.80128 5.02925C14.7168 1.49692 20.9215 0.267459 26.8124 1.66143C26.8835 1.68071 26.9578 1.68549 27.0309 1.6755C27.1039 1.6655 27.1742 1.64094 27.2375 1.60325C27.3009 1.56557 27.356 1.51554 27.3996 1.45614C27.4433 1.39674 27.4745 1.32917 27.4915 1.25747C27.5085 1.18576 27.5109 1.11136 27.4986 1.0387C27.4862 0.966047 27.4594 0.896608 27.4197 0.834513C27.38 0.772419 27.3282 0.718937 27.2675 0.677243C27.2067 0.635549 27.1381 0.606495 27.0659 0.591807C25.5158 0.225059 23.9455 0.0303515 22.3802 0.003299ZM30.0758 1.57767C29.9469 1.57659 29.8218 1.62077 29.7222 1.70252C29.6226 1.78427 29.5548 1.89838 29.5308 2.02496C29.5068 2.15153 29.5279 2.28253 29.5906 2.39509C29.6533 2.50765 29.7536 2.59463 29.8739 2.64085C38.5203 6.15734 43.785 14.9728 42.7772 24.2503C42.768 24.3228 42.7733 24.3964 42.7929 24.4668C42.8125 24.5372 42.8459 24.603 42.8912 24.6603C42.9365 24.7177 42.9928 24.7654 43.0568 24.8008C43.1207 24.8361 43.1911 24.8584 43.2638 24.8662C43.3365 24.8741 43.41 24.8674 43.48 24.8465C43.5501 24.8256 43.6152 24.791 43.6718 24.7446C43.7283 24.6983 43.775 24.6412 43.8091 24.5766C43.8433 24.512 43.8642 24.4412 43.8707 24.3684C44.931 14.6077 39.3853 5.32247 30.2885 1.62277C30.2213 1.59374 30.149 1.5784 30.0758 1.57767ZM21.7915 3.17781C21.3683 3.17781 20.9454 3.20171 20.5218 3.2358C20.4476 3.23838 20.3747 3.25595 20.3075 3.28746C20.2403 3.31896 20.1801 3.36374 20.1307 3.41911C20.0812 3.47448 20.0435 3.53929 20.0198 3.60962C19.996 3.67996 19.9868 3.75437 19.9926 3.82837C19.9984 3.90237 20.0191 3.97443 20.0535 4.04021C20.0879 4.10598 20.1353 4.16411 20.1928 4.2111C20.2503 4.25808 20.3167 4.29294 20.388 4.31358C20.4593 4.33422 20.5341 4.34022 20.6078 4.3312C23.7992 4.07992 26.999 4.69943 29.8674 6.12035C29.9322 6.15281 30.0028 6.17215 30.0751 6.17726C30.1474 6.18237 30.22 6.17314 30.2887 6.15011C30.3574 6.12707 30.4209 6.09069 30.4755 6.04305C30.5301 5.9954 30.5748 5.93744 30.6069 5.87249C30.6391 5.80754 30.658 5.73688 30.6628 5.66457C30.6675 5.59226 30.6579 5.51974 30.6345 5.45116C30.6111 5.38257 30.5743 5.31929 30.5264 5.26495C30.4785 5.21061 30.4202 5.16627 30.3551 5.13449C27.6895 3.81398 24.754 3.14526 21.7915 3.17781ZM17.2734 3.79853C17.224 3.7991 17.1749 3.80632 17.1274 3.82001C8.90145 6.02347 3.17763 13.4811 3.17774 21.995C3.17774 24.3184 3.36774 25.3457 3.13048 27.4398C2.99276 28.4452 2.55344 29.3854 1.86936 30.1354C1.77224 30.2435 1.72185 30.3856 1.72916 30.5308C1.73647 30.6759 1.80091 30.8123 1.9084 30.9101C2.0159 31.0079 2.15774 31.0593 2.30296 31.053C2.44819 31.0466 2.58502 30.9832 2.68361 30.8764C3.51916 29.9604 4.05478 28.812 4.22187 27.5837C4.22192 27.5794 4.22192 27.5751 4.22187 27.5708C4.47244 25.3665 4.27558 24.2592 4.27558 21.995C4.27547 13.9735 9.66078 6.95716 17.4109 4.88105C17.5405 4.84776 17.6536 4.76839 17.7288 4.6578C17.8041 4.5472 17.8365 4.41297 17.8199 4.28023C17.8033 4.14749 17.7389 4.02535 17.6387 3.93668C17.5385 3.84801 17.4094 3.7989 17.2756 3.79853H17.2734ZM6.82144 6.27714C6.67871 6.28111 6.54311 6.34042 6.44332 6.44253C1.36095 11.5236 -0.918028 18.7692 0.339695 25.844C0.351274 25.9161 0.377102 25.9851 0.415671 26.0472C0.454241 26.1092 0.504778 26.1629 0.564335 26.2052C0.623892 26.2474 0.691276 26.2774 0.762553 26.2934C0.833831 26.3094 0.907573 26.311 0.97948 26.2981C1.05139 26.2853 1.12001 26.2583 1.18136 26.2186C1.24271 26.179 1.29554 26.1275 1.33678 26.0673C1.37802 26.007 1.40684 25.9391 1.42156 25.8676C1.43627 25.7961 1.43659 25.7223 1.42249 25.6507C0.227468 18.9286 2.39211 12.0478 7.22105 7.22004C7.30013 7.14275 7.35407 7.0434 7.37583 6.93499C7.39758 6.82658 7.38613 6.71412 7.34299 6.61231C7.29984 6.5105 7.22699 6.42406 7.13395 6.36426C7.04091 6.30447 6.932 6.27411 6.82144 6.27714ZM21.8818 6.35232V6.35447C21.4625 6.35447 21.0443 6.37507 20.6293 6.41246C15.6497 6.85211 11.0529 9.66914 8.45208 14.1726C8.41251 14.2352 8.38599 14.3051 8.37412 14.3782C8.36225 14.4513 8.36526 14.5261 8.38298 14.598C8.4007 14.6699 8.43276 14.7374 8.47724 14.7966C8.52173 14.8558 8.57771 14.9055 8.64184 14.9425C8.70597 14.9796 8.77693 15.0033 8.85045 15.0123C8.92397 15.0212 8.99855 15.0152 9.06971 14.9947C9.14086 14.9741 9.20714 14.9394 9.26455 14.8927C9.32197 14.8459 9.36934 14.788 9.40383 14.7225C12.6301 9.13601 19.1463 6.34417 25.4181 7.8601C31.6898 9.37592 36.2082 14.8348 36.5253 21.2777C36.5287 21.3501 36.5463 21.4212 36.5772 21.4868C36.6081 21.5524 36.6516 21.6113 36.7053 21.66C36.7591 21.7088 36.8219 21.7464 36.8902 21.7708C36.9585 21.7952 37.0309 21.8059 37.1034 21.8022C37.1758 21.7985 37.2468 21.7806 37.3123 21.7494C37.3778 21.7182 37.4365 21.6744 37.485 21.6204C37.5335 21.5665 37.5708 21.5035 37.5949 21.4351C37.619 21.3667 37.6293 21.2942 37.6253 21.2218C37.2844 14.2966 32.4171 8.41775 25.6759 6.78833C24.4119 6.48283 23.1395 6.34253 21.8818 6.35232ZM32.9225 6.8184C32.8083 6.82304 32.6984 6.86312 32.608 6.93306C32.5177 7.003 32.4514 7.09934 32.4183 7.20868C32.3852 7.31803 32.3871 7.43496 32.4235 7.54323C32.4599 7.6515 32.5292 7.74574 32.6217 7.81285C35.5662 10.0173 37.7525 13.0825 38.8757 16.5846C38.8948 16.6567 38.9283 16.7242 38.9743 16.783C39.0203 16.8417 39.0778 16.8905 39.1432 16.9263C39.2087 16.9621 39.2807 16.9843 39.355 16.9914C39.4292 16.9985 39.5042 16.9904 39.5752 16.9677C39.6463 16.9449 39.712 16.908 39.7683 16.859C39.8246 16.8101 39.8704 16.7502 39.9028 16.683C39.9352 16.6159 39.9537 16.5428 39.957 16.4683C39.9603 16.3938 39.9483 16.3193 39.922 16.2496C38.729 12.5303 36.4085 9.27326 33.2812 6.93223C33.1788 6.85329 33.0517 6.81298 32.9225 6.8184ZM21.9999 9.53112C18.2577 9.53123 14.7123 11.213 12.345 14.1103C9.97761 17.0078 9.03721 20.8164 9.7841 24.4822C9.79803 24.5535 9.82593 24.6213 9.86618 24.6817C9.90644 24.7421 9.95825 24.7939 10.0186 24.8342C10.079 24.8745 10.1468 24.9025 10.218 24.9165C10.2893 24.9305 10.3626 24.9302 10.4337 24.9158C10.5049 24.9013 10.5725 24.8729 10.6326 24.8322C10.6927 24.7916 10.7442 24.7394 10.7841 24.6787C10.8239 24.6181 10.8514 24.5501 10.8649 24.4788C10.8783 24.4075 10.8776 24.3342 10.8626 24.2632C10.1814 20.92 11.039 17.4486 13.1979 14.8062C15.3567 12.1639 18.5872 10.6309 21.9999 10.6308C22.0728 10.6318 22.1452 10.6184 22.2128 10.5912C22.2805 10.564 22.342 10.5237 22.3939 10.4725C22.4458 10.4214 22.487 10.3604 22.5152 10.2932C22.5433 10.226 22.5578 10.1538 22.5578 10.081C22.5578 10.0081 22.5433 9.93596 22.5152 9.86874C22.487 9.80151 22.4458 9.74055 22.3939 9.68939C22.342 9.63823 22.2805 9.59789 22.2128 9.57072C22.1452 9.54355 22.0728 9.53009 21.9999 9.53112ZM25.6114 10.0853L25.6136 10.0874C25.595 10.0865 25.5763 10.0865 25.5577 10.0874C25.4291 10.0966 25.3078 10.1506 25.215 10.2401C25.1222 10.3296 25.0638 10.4488 25.05 10.577C25.0362 10.7051 25.0678 10.8341 25.1394 10.9413C25.211 11.0485 25.318 11.1271 25.4417 11.1635C30.1625 12.6634 33.365 17.0409 33.365 21.9929C33.365 21.9965 33.365 22.0001 33.365 22.0036C33.4266 24.9442 33.4157 28.0045 33.1201 30.6551C33.1057 30.7992 33.1486 30.9432 33.2396 31.0558C33.3307 31.1684 33.4624 31.2406 33.6063 31.2567C33.7503 31.2728 33.8948 31.2315 34.0084 31.1419C34.1221 31.0522 34.1959 30.9213 34.2136 30.7776C34.5183 28.0412 34.525 24.9463 34.4629 21.9907C34.462 16.565 30.945 11.7588 25.7726 10.1153C25.7206 10.0973 25.6663 10.0872 25.6114 10.0853ZM21.4671 12.7228C20.2633 12.7921 19.0659 13.0967 17.9459 13.6399C17.8803 13.671 17.8215 13.7148 17.7729 13.7687C17.7242 13.8226 17.6868 13.8857 17.6626 13.9541C17.6385 14.0226 17.6282 14.0952 17.6322 14.1676C17.6363 14.2401 17.6546 14.3111 17.6863 14.3764C17.7179 14.4418 17.7621 14.5002 17.8165 14.5484C17.8708 14.5966 17.9341 14.6335 18.0028 14.6571C18.0715 14.6807 18.1441 14.6904 18.2166 14.6858C18.289 14.6812 18.3599 14.6622 18.425 14.6301C21.0595 13.3523 24.1744 13.5773 26.5975 15.2208C26.6573 15.2624 26.7248 15.2918 26.796 15.3072C26.8673 15.3226 26.9408 15.3237 27.0125 15.3104C27.0842 15.2971 27.1525 15.2697 27.2134 15.2298C27.2744 15.1899 27.3269 15.1383 27.3677 15.078C27.4086 15.0176 27.437 14.9498 27.4514 14.8783C27.4658 14.8069 27.4659 14.7334 27.4516 14.6619C27.4373 14.5905 27.4089 14.5226 27.3682 14.4622C27.3274 14.4018 27.2751 14.3501 27.2141 14.3101C25.8406 13.3785 24.2708 12.8492 22.6702 12.7336C22.2701 12.705 21.8684 12.6997 21.4671 12.7228ZM15.8104 15.2616C15.6673 15.2661 15.5317 15.3262 15.4323 15.4291C13.6904 17.1705 12.7102 19.5324 12.7102 21.995V25.6399C12.7102 30.2972 10.7837 34.6063 7.56909 37.758C7.51286 37.8074 7.46729 37.8676 7.43515 37.9352C7.40302 38.0027 7.385 38.0761 7.3822 38.1508C7.3794 38.2255 7.39188 38.3001 7.41887 38.3698C7.44586 38.4395 7.48679 38.5031 7.53917 38.5564C7.59155 38.6098 7.65428 38.652 7.72351 38.6803C7.79273 38.7086 7.86701 38.7226 7.94181 38.7212C8.0166 38.7199 8.09033 38.7033 8.15849 38.6725C8.22665 38.6416 8.2878 38.5973 8.33822 38.542C11.7541 35.193 13.8102 30.6008 13.8102 25.6399V21.995C13.8102 19.8236 14.6742 17.7421 16.21 16.2066C16.2899 16.1294 16.3445 16.0299 16.3667 15.9211C16.3889 15.8123 16.3776 15.6994 16.3344 15.5971C16.2911 15.4948 16.2179 15.408 16.1244 15.3481C16.0309 15.2882 15.9214 15.2581 15.8104 15.2616ZM21.9999 15.8909C21.9301 15.8907 21.8608 15.9038 21.7958 15.9295C20.2658 15.9834 18.8017 16.5814 17.716 17.6714C16.5797 18.8119 15.9414 20.3573 15.9414 21.9693L15.9242 24.3663C15.9228 24.4389 15.9358 24.5112 15.9624 24.5788C15.9891 24.6464 16.0289 24.7081 16.0795 24.7603C16.1301 24.8124 16.1906 24.854 16.2574 24.8827C16.3243 24.9113 16.3961 24.9264 16.4688 24.9271C16.5415 24.9278 16.6136 24.9141 16.681 24.8868C16.7484 24.8595 16.8097 24.8191 16.8613 24.7679C16.913 24.7167 16.954 24.6559 16.9819 24.5888C17.0099 24.5217 17.0243 24.4497 17.0242 24.377L17.0414 21.9779C17.0414 20.656 17.5653 19.3896 18.4959 18.4554C19.426 17.5217 20.6856 16.9977 21.9999 16.997C24.773 16.997 27.0079 19.2332 27.0079 22.0058V23.5952C27.0079 26.4928 26.708 29.3809 26.112 32.2166C26.0961 32.2876 26.0944 32.3611 26.107 32.4328C26.1197 32.5045 26.1465 32.573 26.1858 32.6342C26.2252 32.6955 26.2763 32.7483 26.3362 32.7897C26.3961 32.831 26.4637 32.8601 26.5349 32.8751C26.6061 32.8902 26.6797 32.891 26.7512 32.8774C26.8227 32.8639 26.8909 32.8363 26.9517 32.7962C27.0124 32.7561 27.0647 32.7044 27.1053 32.644C27.1459 32.5836 27.1742 32.5157 27.1884 32.4443C27.7998 29.5343 28.1079 26.5688 28.1079 23.5952V22.0058C28.1079 18.7104 25.4707 16.0524 22.2019 15.9381C22.1378 15.9119 22.0692 15.8981 21.9999 15.8973V15.8909ZM29.2745 16.6061C29.1743 16.6061 29.076 16.6335 28.9902 16.6853C28.9044 16.7371 28.8344 16.8113 28.7877 16.8999C28.7411 16.9886 28.7195 17.0883 28.7254 17.1883C28.7313 17.2883 28.7644 17.3848 28.8211 17.4674C29.85 19.0169 30.3205 20.8687 30.1553 22.721C30.1432 22.8658 30.1888 23.0094 30.2822 23.1206C30.3757 23.2319 30.5093 23.3016 30.654 23.3147C30.7987 23.3277 30.9427 23.283 31.0546 23.1903C31.1664 23.0976 31.237 22.9644 31.251 22.8198C31.4384 20.7188 30.9054 18.6169 29.7385 16.8596C29.6887 16.7817 29.6201 16.7177 29.5389 16.6734C29.4578 16.6291 29.3669 16.606 29.2745 16.6061ZM7.39292 17.5318C7.2755 17.5379 7.16311 17.5814 7.07225 17.656C6.98139 17.7306 6.91683 17.8324 6.88804 17.9464C6.4651 19.525 6.29323 21.1618 6.37672 22.794C6.43282 24.5306 6.33544 25.1544 6.35524 27.5794C6.3552 27.583 6.3552 27.5866 6.35524 27.5902C6.40694 29.6599 5.30365 31.5916 3.46778 32.6312C3.34149 32.7033 3.24892 32.8226 3.21031 32.9628C3.17171 33.103 3.19021 33.2528 3.26177 33.3794C3.33333 33.506 3.45213 33.5992 3.59219 33.6384C3.73224 33.6777 3.88217 33.66 4.00918 33.5891C6.19034 32.354 7.51748 30.0402 7.45522 27.5622C7.43652 25.1735 7.53286 24.5401 7.47456 22.7489C7.47459 22.7454 7.47459 22.7418 7.47456 22.7382C7.39646 21.2207 7.55815 19.7019 7.9515 18.2342C7.976 18.1498 7.97992 18.0608 7.96292 17.9745C7.94592 17.8883 7.9085 17.8074 7.8538 17.7387C7.7991 17.6699 7.7287 17.6152 7.64851 17.5792C7.56833 17.5432 7.48068 17.527 7.39292 17.5318ZM21.9999 19.0611C20.3865 19.0611 19.0674 20.382 19.0674 21.995L19.0351 25.0042C18.9031 27.9722 18.3589 30.9067 17.4174 33.7244C17.39 33.7939 17.3771 33.8682 17.3794 33.9428C17.3817 34.0174 17.3992 34.0908 17.4308 34.1584C17.4624 34.2261 17.5074 34.2866 17.5631 34.3363C17.6188 34.3859 17.6841 34.4238 17.7549 34.4474C17.8258 34.4711 17.9007 34.4801 17.9751 34.4738C18.0495 34.4676 18.1219 34.4463 18.1878 34.4112C18.2537 34.3761 18.3117 34.328 18.3584 34.2697C18.4051 34.2115 18.4395 34.1443 18.4594 34.0724C19.4331 31.1577 19.9965 28.1235 20.133 25.0536C20.1331 25.0464 20.1331 25.0392 20.133 25.0321L20.1652 21.9972C20.1652 20.9784 20.9788 20.1628 21.9978 20.1629C23.0168 20.1629 23.8304 20.9784 23.8304 21.9972C23.8294 22.0701 23.8428 22.1424 23.87 22.21C23.8972 22.2776 23.9375 22.3392 23.9887 22.391C24.0399 22.4429 24.1009 22.4841 24.1681 22.5123C24.2353 22.5404 24.3075 22.5549 24.3804 22.5549C24.4533 22.5549 24.5254 22.5404 24.5927 22.5123C24.6599 22.4841 24.7209 22.4429 24.7721 22.391C24.8232 22.3392 24.8636 22.2776 24.8908 22.21C24.9179 22.1424 24.9314 22.0701 24.9304 21.9972C24.9304 20.3842 23.6113 19.0631 21.9978 19.0632L21.9999 19.0611ZM40.0917 19.0761V19.0826C40.015 19.086 39.9399 19.1054 39.8712 19.1396C39.8025 19.1738 39.7417 19.222 39.6928 19.281C39.6438 19.3401 39.6078 19.4088 39.5869 19.4826C39.5661 19.5564 39.5609 19.6338 39.5718 19.7097C39.6598 20.3823 39.7098 21.0591 39.72 21.7373V25.1803C39.72 28.5252 39.2647 31.8538 38.3644 35.0754C38.3433 35.1454 38.3363 35.2189 38.344 35.2917C38.3516 35.3644 38.3737 35.4349 38.409 35.499C38.4442 35.5631 38.4919 35.6195 38.5492 35.6649C38.6065 35.7104 38.6723 35.7439 38.7427 35.7636C38.8132 35.7834 38.8869 35.7888 38.9594 35.7797C39.032 35.7706 39.1021 35.7472 39.1655 35.7107C39.2289 35.6742 39.2843 35.6254 39.3286 35.5672C39.373 35.509 39.4052 35.4426 39.4235 35.3718C40.3507 32.0539 40.82 28.6253 40.82 25.1803V21.7287C40.8201 21.7244 40.8201 21.7201 40.82 21.7158C40.809 20.9956 40.7562 20.2759 40.6632 19.5615C40.647 19.4234 40.579 19.2965 40.473 19.2064C40.367 19.1163 40.2307 19.0698 40.0917 19.0761ZM37.0689 23.8529C36.9966 23.8552 36.9256 23.8716 36.8597 23.9013C36.7938 23.931 36.7344 23.9734 36.6849 24.0261C36.6355 24.0787 36.5969 24.1406 36.5713 24.2082C36.5458 24.2758 36.5338 24.3477 36.5361 24.42C36.623 29.396 35.8486 34.35 34.2459 39.0618C34.2218 39.1304 34.2116 39.203 34.2158 39.2756C34.22 39.3482 34.2385 39.4192 34.2703 39.4845C34.3022 39.5499 34.3466 39.6083 34.4011 39.6564C34.4556 39.7045 34.5191 39.7413 34.588 39.7647C34.6568 39.7881 34.7296 39.7976 34.8021 39.7928C34.8746 39.7879 34.9455 39.7687 35.0106 39.7363C35.0757 39.7039 35.1337 39.6589 35.1813 39.604C35.2288 39.549 35.2651 39.4852 35.2879 39.4162C36.9314 34.5842 37.7255 29.5035 37.6361 24.4006C37.6358 24.3271 37.6208 24.2544 37.592 24.1868C37.5631 24.1192 37.521 24.0581 37.4682 24.007C37.4153 23.956 37.3527 23.916 37.2841 23.8896C37.2156 23.8631 37.1424 23.8506 37.0689 23.8529ZM24.1978 24.609C24.0618 24.614 23.9324 24.6693 23.8348 24.7641C23.7372 24.8589 23.6782 24.9865 23.6693 25.1223C23.1809 31.3924 21.1794 37.4619 17.8299 42.8312C17.7904 42.8926 17.7635 42.9612 17.7508 43.0331C17.738 43.1049 17.7397 43.1786 17.7558 43.2498C17.7718 43.321 17.8019 43.3883 17.8442 43.4477C17.8866 43.5072 17.9403 43.5576 18.0023 43.5961C18.0643 43.6346 18.1334 43.6604 18.2055 43.6719C18.2776 43.6834 18.3512 43.6805 18.4221 43.6633C18.4931 43.6461 18.5599 43.6149 18.6186 43.5716C18.6774 43.5283 18.727 43.4738 18.7644 43.4112C22.2068 37.893 24.2628 31.6554 24.7649 25.2082C24.772 25.1305 24.7624 25.0522 24.7369 24.9784C24.7113 24.9047 24.6703 24.8373 24.6167 24.7806C24.563 24.7239 24.4979 24.6793 24.4257 24.6497C24.3535 24.6201 24.2758 24.6062 24.1978 24.609ZM30.7332 25.4337C30.5874 25.4332 30.4473 25.4906 30.3437 25.5933C30.2402 25.696 30.1817 25.8356 30.1811 25.9814C30.0711 31.7375 28.788 37.4116 26.4106 42.6551C26.377 42.7214 26.3571 42.7937 26.3523 42.8678C26.3474 42.9419 26.3575 43.0163 26.3822 43.0863C26.4068 43.1564 26.4454 43.2208 26.4956 43.2755C26.5458 43.3303 26.6065 43.3743 26.6742 43.405C26.7419 43.4356 26.8151 43.4522 26.8894 43.4538C26.9636 43.4554 27.0375 43.4419 27.1064 43.4142C27.1753 43.3865 27.2379 43.3451 27.2904 43.2925C27.3429 43.2399 27.3842 43.1773 27.4118 43.1083C29.851 37.7286 31.1685 31.9085 31.2811 26.0029C31.2837 25.9293 31.2714 25.8559 31.2451 25.7871C31.2187 25.7183 31.1788 25.6554 31.1277 25.6023C31.0766 25.5493 31.0154 25.507 30.9476 25.478C30.8798 25.449 30.8069 25.434 30.7332 25.4337ZM10.0312 27.0103C9.89487 27.0165 9.76574 27.0731 9.66887 27.1691C9.57199 27.2652 9.51429 27.3938 9.50695 27.53C9.29565 30.6565 7.80407 33.5569 5.38201 35.5458C5.3225 35.5903 5.27265 35.6465 5.23546 35.7108C5.19827 35.7752 5.17451 35.8464 5.16563 35.9202C5.15675 35.994 5.16293 36.0688 5.18378 36.1402C5.20464 36.2115 5.23975 36.2779 5.28699 36.3353C5.33422 36.3927 5.39261 36.4399 5.45862 36.4741C5.52462 36.5083 5.59688 36.5288 5.67102 36.5343C5.74517 36.5398 5.81965 36.5302 5.88999 36.5061C5.96032 36.4821 6.02505 36.444 6.08024 36.3942C8.73637 34.2131 10.3731 31.0336 10.6048 27.6052C10.6113 27.5273 10.6011 27.4488 10.5748 27.3752C10.5486 27.3015 10.507 27.2342 10.4527 27.1779C10.3984 27.1216 10.3327 27.0775 10.26 27.0486C10.1873 27.0197 10.1093 27.0066 10.0312 27.0103ZM16.0682 27.0188L16.066 27.021C15.9397 27.0286 15.8198 27.0796 15.7267 27.1652C15.6335 27.2509 15.5728 27.3661 15.5547 27.4914C14.8447 31.9971 13.0306 36.2583 10.2739 39.893C10.2277 39.9503 10.1934 40.0163 10.1731 40.0871C10.1528 40.1579 10.147 40.2321 10.156 40.3052C10.1649 40.3783 10.1884 40.4488 10.2252 40.5127C10.2619 40.5765 10.3111 40.6323 10.3698 40.6768C10.4286 40.7212 10.4956 40.7535 10.567 40.7715C10.6385 40.7896 10.7128 40.7931 10.7856 40.7819C10.8584 40.7707 10.9282 40.745 10.9909 40.7063C11.0536 40.6676 11.1078 40.6167 11.1505 40.5567C14.0167 36.7774 15.9037 32.3482 16.6418 27.6632C16.6562 27.5815 16.6519 27.4975 16.6293 27.4177C16.6066 27.3379 16.5662 27.2642 16.511 27.2022C16.4558 27.1402 16.3873 27.0915 16.3106 27.0598C16.2339 27.028 16.1511 27.014 16.0682 27.0188ZM33.1609 33.3614C33.0343 33.3637 32.9124 33.4097 32.8157 33.4914C32.719 33.5732 32.6535 33.6859 32.6303 33.8103C32.1127 36.3992 31.3262 38.9277 30.2842 41.3535C30.252 41.4204 30.2336 41.4931 30.2302 41.5672C30.2268 41.6414 30.2385 41.7154 30.2645 41.7849C30.2905 41.8545 30.3303 41.918 30.3815 41.9717C30.4327 42.0255 30.4943 42.0683 30.5625 42.0976C30.6307 42.1269 30.7041 42.1421 30.7784 42.1423C30.8526 42.1424 30.9261 42.1276 30.9945 42.0986C31.0628 42.0696 31.1246 42.0271 31.176 41.9736C31.2275 41.9201 31.2676 41.8568 31.294 41.7874C32.3663 39.2914 33.1763 36.6889 33.7088 34.0251C33.7259 33.9442 33.7246 33.8605 33.7048 33.7802C33.6851 33.6998 33.6475 33.625 33.5949 33.5612C33.5422 33.4974 33.4759 33.4464 33.4007 33.4118C33.3256 33.3772 33.2436 33.36 33.1609 33.3614ZM25.8434 34.9401C25.7262 34.9436 25.6131 34.9844 25.5208 35.0567C25.4284 35.1289 25.3615 35.2288 25.33 35.3417C24.5367 38.0586 23.4692 40.6877 22.146 43.1899C22.1119 43.2538 22.0907 43.3239 22.0836 43.396C22.0766 43.4681 22.0839 43.5409 22.105 43.6102C22.1262 43.6795 22.1608 43.744 22.207 43.7999C22.2531 43.8558 22.3099 43.902 22.3739 43.9359C22.438 43.9699 22.5081 43.9908 22.5802 43.9976C22.6524 44.0044 22.7252 43.9968 22.7945 43.9754C22.8637 43.954 22.928 43.9191 22.9838 43.8728C23.0395 43.8265 23.0856 43.7696 23.1193 43.7054C24.4771 41.1376 25.5707 38.4393 26.3848 35.651C26.4105 35.5675 26.4158 35.4791 26.4005 35.3932C26.3851 35.3072 26.3495 35.2261 26.2966 35.1567C26.2437 35.0872 26.175 35.0313 26.0962 34.9936C26.0174 34.956 25.9308 34.9376 25.8434 34.9401ZM16.6354 36.5445C16.5369 36.5533 16.4427 36.5885 16.3625 36.6463C16.2824 36.7042 16.2193 36.7825 16.1799 36.8731C15.4305 38.5159 14.5441 40.0922 13.5288 41.5855C13.4851 41.645 13.4538 41.7128 13.4369 41.7846C13.42 41.8565 13.4177 41.9311 13.4302 42.0038C13.4427 42.0766 13.4697 42.1461 13.5097 42.2082C13.5496 42.2703 13.6017 42.3237 13.6627 42.3653C13.7238 42.4069 13.7926 42.4357 13.865 42.4501C13.9375 42.4645 14.0121 42.4642 14.0844 42.4491C14.1567 42.4341 14.2252 42.4046 14.2859 42.3625C14.3466 42.3204 14.3982 42.2665 14.4375 42.2041C15.4876 40.6596 16.406 39.0277 17.1811 37.3285C17.2202 37.2453 17.2379 37.1536 17.2324 37.0618C17.227 36.97 17.1986 36.881 17.1499 36.803C17.1011 36.725 17.0336 36.6605 16.9535 36.6153C16.8734 36.5702 16.7832 36.5458 16.6912 36.5445C16.6726 36.5436 16.654 36.5436 16.6354 36.5445Z" fill="#F37324"/>
</svg>
