<svg width="50" height="50" viewBox="0 0 50 32" fill="none" xmlns="http://www.w3.org/2000/svg">
<path d="M6.77083 0C5.33713 0 4.16667 1.15995 4.16667 2.58066V25.8065H0.520833C0.382704 25.8065 0.250236 25.8608 0.152564 25.9576C0.0548918 26.0544 1.38109e-05 26.1857 0 26.3226V28.3871C0 30.3798 1.63505 32 3.64583 32H46.3542C48.3649 32 50 30.3798 50 28.3871V26.3226C50 26.1857 49.9451 26.0544 49.8474 25.9576C49.7498 25.8608 49.6173 25.8065 49.4792 25.8065H45.8333V2.58066C45.8333 1.15995 44.6629 0 43.2292 0H6.77083ZM6.77083 1.03226H43.2292C44.1038 1.03226 44.7917 1.71397 44.7917 2.58066V25.8065H5.20833V2.58066C5.20833 1.71397 5.8962 1.03226 6.77083 1.03226ZM7.8125 3.09679C7.67439 3.0968 7.54194 3.15117 7.44427 3.24793C7.3466 3.3447 7.29171 3.47599 7.29167 3.61285V23.2258C7.29168 23.3627 7.34656 23.494 7.44423 23.5908C7.5419 23.6875 7.67437 23.742 7.8125 23.742H42.1875C42.3256 23.742 42.4581 23.6875 42.5558 23.5908C42.6534 23.494 42.7083 23.3627 42.7083 23.2258V3.61285C42.7083 3.47599 42.6534 3.3447 42.5557 3.24793C42.4581 3.15117 42.3256 3.0968 42.1875 3.09679H7.8125ZM8.33333 4.12899H41.6667V22.7097H8.33333V4.12899ZM16.1763 5.16125C15.311 5.16125 14.5833 5.85245 14.5833 6.70964V9.80643V19.0968V20.129C14.5833 20.978 15.2892 21.6774 16.1458 21.6774H32.8125H34.8877C35.7443 21.6774 36.4502 20.978 36.4502 20.129V16.5161H36.4583V12.9032L36.4502 12.9135V11.8732C36.4502 11.0244 35.7443 10.3248 34.8877 10.3248H34.375V9.80869C34.375 8.95987 33.6691 8.2603 32.8125 8.2603H22.3958C22.0983 8.2603 21.875 8.03909 21.875 7.74417V6.71191C21.875 5.85472 21.1473 5.16352 20.282 5.16352H16.1763V5.16125ZM16.1763 6.19351H20.282C20.6037 6.19351 20.8333 6.42319 20.8333 6.70964V7.7419C20.8333 8.59083 21.5392 9.2903 22.3958 9.2903H32.8125C33.1101 9.2903 33.3333 9.51161 33.3333 9.80643V10.3226H20.3044C19.4477 10.3226 18.7419 11.0221 18.7419 11.871V20.129C18.7419 20.424 18.5186 20.6452 18.221 20.6452H16.1458C15.8483 20.6452 15.625 20.424 15.625 20.129V19.0968V9.80643V6.70964C15.625 6.42319 15.8546 6.19351 16.1763 6.19351ZM20.3044 11.3548H34.8877C35.1852 11.3548 35.4085 11.5761 35.4085 11.871V12.3871H19.7835V11.871C19.7835 11.5761 20.0068 11.3548 20.3044 11.3548ZM19.7917 13.4193H35.4085V15.4839H19.7917V13.4193ZM23.4375 13.9355C23.149 13.9355 22.9167 14.1657 22.9167 14.4516C22.9167 14.7375 23.149 14.9677 23.4375 14.9677C23.726 14.9677 23.9583 14.7375 23.9583 14.4516C23.9583 14.1657 23.726 13.9355 23.4375 13.9355ZM25.5208 13.9355C25.2323 13.9355 25 14.1657 25 14.4516C25 14.7375 25.2323 14.9677 25.5208 14.9677C25.8094 14.9677 26.0417 14.7375 26.0417 14.4516C26.0417 14.1657 25.8094 13.9355 25.5208 13.9355ZM27.6042 13.9355C27.3156 13.9355 27.0833 14.1657 27.0833 14.4516C27.0833 14.7375 27.3156 14.9677 27.6042 14.9677C27.8927 14.9677 28.125 14.7375 28.125 14.4516C28.125 14.1657 27.8927 13.9355 27.6042 13.9355ZM29.6875 13.9355C29.399 13.9355 29.1667 14.1657 29.1667 14.4516C29.1667 14.7375 29.399 14.9677 29.6875 14.9677C29.976 14.9677 30.2083 14.7375 30.2083 14.4516C30.2083 14.1657 29.976 13.9355 29.6875 13.9355ZM31.7708 13.9355C31.4823 13.9355 31.25 14.1657 31.25 14.4516C31.25 14.7375 31.4823 14.9677 31.7708 14.9677C32.0594 14.9677 32.2917 14.7375 32.2917 14.4516C32.2917 14.1657 32.0594 13.9355 31.7708 13.9355ZM19.7835 16.5161H19.7917H35.4085V18.5807H34.375V19.6129H35.4085V20.129C35.4085 20.424 35.1852 20.6452 34.8877 20.6452H32.8125H19.5658C19.6373 20.4686 19.7835 20.3296 19.7835 20.129V16.5161H19.7835ZM34.375 18.5807V17.5484H33.3333V18.5807H34.375ZM33.3333 18.5807H32.2917V19.6129H33.3333V18.5807ZM32.2917 18.5807V17.5484H31.25V18.5807H32.2917ZM31.25 18.5807H30.2083V19.6129H31.25V18.5807ZM30.2083 18.5807V17.5484H29.1667V18.5807H30.2083ZM29.1667 18.5807H28.125V19.6129H29.1667V18.5807ZM28.125 18.5807V17.5484H27.0833V18.5807H28.125ZM27.0833 18.5807H26.0417V19.6129H27.0833V18.5807ZM26.0417 18.5807V17.5484H25H22.9167C22.3396 17.5484 21.875 18.0088 21.875 18.5807C21.875 19.1525 22.3396 19.6129 22.9167 19.6129H25V18.5807H26.0417ZM22.9167 18.0645C23.0548 18.0645 23.1873 18.1189 23.285 18.2157C23.3826 18.3125 23.4375 18.4438 23.4375 18.5807C23.4375 18.7175 23.3826 18.8488 23.285 18.9456C23.1873 19.0424 23.0548 19.0968 22.9167 19.0968C22.7785 19.0968 22.6461 19.0424 22.5484 18.9456C22.4507 18.8488 22.3958 18.7175 22.3958 18.5807C22.3958 18.4438 22.4507 18.3125 22.5484 18.2157C22.6461 18.1189 22.7785 18.0645 22.9167 18.0645ZM1.04167 26.8388H18.8029C19.0465 28.0125 20.0997 28.9012 21.3542 28.9012H29.6875C30.942 28.9012 31.9951 28.0106 32.2388 26.8367H48.9583V28.3851C48.9583 29.8237 47.8059 30.9657 46.3542 30.9657H3.64583C2.19412 30.9657 1.04167 29.8237 1.04167 28.3851V26.8367V26.8388ZM20.0053 26.8388H31.0364C30.8105 27.4149 30.357 27.871 29.6875 27.871H21.3542C20.6847 27.871 20.2312 27.4149 20.0053 26.8388Z" fill="#F37324"/>
</svg>
