<svg width="52" height="52" fill="none" xmlns="http://www.w3.org/2000/svg"><path d="M40.258 33.548a.839.839 0 011.677 0v13.42a.839.839 0 01-1.677 0v-13.42zm0-3.354a.839.839 0 111.677 0 .839.839 0 01-1.677 0zm3.355 5.87a.839.839 0 111.678 0 .839.839 0 01-1.678 0z" fill="#F37324"/><path d="M51.953 15.918c-.367-3.328-3.03-6.106-6.33-6.604a7.236 7.236 0 00-1.012-.078 1.203 1.203 0 01-1.17-.974C42.59 3.57 38.481 0 33.548 0c-2.511 0-4.907.949-6.738 2.605a1.199 1.199 0 01-1.595-.003A10.008 10.008 0 0018.452 0c-4.93 0-9.034 3.565-9.891 8.25-.103.56-.608.97-1.178.983a7.046 7.046 0 00-2.282.432c-3.144 1.15-5.146 3.983-5.1 7.218.05 3.512 2.539 6.46 5.828 7.236.496.117.88.538.88 1.047v7.544a.839.839 0 001.678 0v-7.387a1 1 0 011-1h3.032a1 1 0 011 1v11.58a.84.84 0 00.839.839c.463 0 .839.375.839.839v7.953a.999.999 0 01-.106.447l-.615 1.229a1 1 0 00-.054.764l.78 2.342a1 1 0 00.95.684h3.121a1 1 0 00.949-.684l.781-2.343a1 1 0 00-.054-.763l-.614-1.229a1 1 0 01-.106-.447V38.58c0-.464.375-.84.839-.84a.839.839 0 00.838-.838V20.13a4.198 4.198 0 00-4.193-4.194 4.198 4.198 0 00-4.194 4.194.839.839 0 001.678 0c0-.585.202-1.121.539-1.547.43-.541 1.138-.088 1.138.604v7.653a.839.839 0 001.678 0v-7.653c0-.692.708-1.145 1.138-.604.337.426.539.962.539 1.547v14.936a1 1 0 01-1 1h-3.032a1 1 0 01-1-1v-11.42a1 1 0 00-1-1H7.548c-3.191 0-5.825-2.595-5.87-5.784-.035-2.513 1.534-4.718 4-5.62a5.27 5.27 0 011.983-.326c.457.013.797.393.871.844.013.079.027.156.042.234.086.455.553.714.999.588.445-.125.7-.589.62-1.045a8.465 8.465 0 01-.128-1.471c0-4.625 3.762-8.388 8.387-8.388a8.333 8.333 0 017.472 4.572c.21.413.692.63 1.124.46.431-.168.647-.656.442-1.071a9.948 9.948 0 00-.108-.214c-.196-.373-.174-.835.118-1.14a8.375 8.375 0 016.048-2.607c4.242 0 7.748 3.167 8.301 7.26.06.437-.22.834-.619 1.02a7.472 7.472 0 00-2.937 2.45c-.268.379-.118.893.288 1.117.404.225.91.074 1.19-.296 1.291-1.712 3.41-2.583 5.6-2.255 2.562.386 4.628 2.544 4.914 5.13a5.828 5.828 0 01-1.459 4.586 5.879 5.879 0 01-4.374 1.956H39.58a1 1 0 01-1-1v-3.107a1 1 0 00-.446-.832l-2.403-1.603a1 1 0 00-.555-.168h-.629a1 1 0 00-1 1v4.033a1.68 1.68 0 01-1.677 1.677 1.68 1.68 0 01-1.677-1.677v-4.032a1 1 0 00-1-1h-.63a1 1 0 00-.554.168l-2.404 1.602a1 1 0 00-.445.832v5.718a1 1 0 00.293.707l2.77 2.769a1 1 0 01.292.707v16.54c0 .215-.073.423-.188.605a4.155 4.155 0 00-.65 2.22A4.198 4.198 0 0031.87 52a4.199 4.199 0 004.194-4.194 4.16 4.16 0 00-.65-2.22 1.14 1.14 0 01-.19-.605V28.439a1 1 0 01.294-.707l.546-.546A.839.839 0 0034.879 26l-1.038 1.037a1 1 0 00-.293.707V45.61c0 .203.074.399.208.551.287.33.631.883.631 1.646a2.52 2.52 0 01-2.516 2.517 2.52 2.52 0 01-2.516-2.517c0-.763.344-1.315.631-1.646a.837.837 0 00.207-.551V27.744a1 1 0 00-.292-.707l-2.77-2.769a1 1 0 01-.292-.707V19.35a.839.839 0 111.677 0v1.619a3.358 3.358 0 003.355 3.355 3.358 3.358 0 003.355-3.355V19.35a.839.839 0 111.677 0v3.974a1 1 0 001 1h4.71a1 1 0 011 1v7.387a.839.839 0 001.677 0v-7.542c0-.51.385-.93.88-1.046a7.552 7.552 0 003.906-2.313 7.587 7.587 0 001.877-5.891zM19.038 48.339a1 1 0 01.054.764l-.179.536a1 1 0 01-.948.684h-.705a1 1 0 01-.949-.684l-.178-.536a1 1 0 01.054-.764l.482-.962a1 1 0 00.105-.448v-8.348a.839.839 0 011.678 0v8.349a1 1 0 00.105.447l.481.962z" fill="#F37324"/><path d="M38.066 7.846c.205.416.666.673 1.11.541.444-.132.702-.602.514-1.025a6.769 6.769 0 00-5.305-3.954c-.46-.058-.836.322-.836.786 0 .463.378.831.835.91a5.081 5.081 0 013.682 2.742zM16.773 32.71h1.678v1.677h-1.678v-1.678zm0-3.355h1.678v1.677h-1.678v-1.677zm14.26 18.451a.839.839 0 111.678 0 .839.839 0 01-1.678 0zm12.58-8.386a.839.839 0 111.678 0 .839.839 0 01-1.678 0zm-33.548-6.71h1.677v15.096h-1.678V32.71zm0-3.355h1.677v1.677h-1.678v-1.677zm-3.356 5.871h1.677v1.677H6.71v-1.677zm0 3.354h1.677v1.678H6.71v-1.677z" fill="#F37324"/></svg>