<svg width="52" height="52" fill="none" xmlns="http://www.w3.org/2000/svg"><path d="M14.873 10.294c5.112-2.306 8.89-5.282 10.925-8.607a.148.148 0 01.133-.077c.056 0 .101.026.132.077 1.504 2.456 3.919 4.696 7.177 6.655 3.188 1.917 7.021 3.471 11.395 4.62.105.027.18.116.187.221.058.854.087 1.751.087 2.668 0 3.4-.894 7.216-2.657 11.339a.76.76 0 00.4.997.796.796 0 00.997-.4c1.844-4.313 2.779-8.329 2.779-11.936 0-.951-.03-1.883-.091-2.77a1.765 1.765 0 00-1.316-1.588C36.56 9.27 30.122 5.407 27.358.893a1.664 1.664 0 00-1.427-.802c-.587 0-1.12.3-1.428.802C22.627 3.958 19.08 6.73 14.248 8.91a.76.76 0 00.625 1.385z" fill="#F37324"/><path d="M33.673 31.038v-6.13a2.636 2.636 0 00-2.408-2.622v-1.164a5.344 5.344 0 00-5.338-5.338 5.344 5.344 0 00-5.338 5.338v1.164a2.636 2.636 0 00-2.407 2.622v6.13a2.636 2.636 0 002.632 2.633H31.04a2.636 2.636 0 002.633-2.633zm-7.746-13.735a3.823 3.823 0 013.82 3.819v1.154h-7.639v-1.154a3.823 3.823 0 013.82-3.82zm-6.226 13.735v-6.13c0-.614.5-1.114 1.113-1.114H31.04c.614 0 1.114.5 1.114 1.114v6.13c0 .615-.5 1.114-1.114 1.114H20.814c-.614 0-1.113-.5-1.113-1.114z" fill="#F37324"/><path d="M25.868 26.053a1.562 1.562 0 00-.538 2.983v.98c0 .183.15.331.333.331h.614a.332.332 0 00.332-.332v-.979a1.562 1.562 0 00-.74-2.983z" fill="#F37324"/><path d="M49.786 36.95c-.875 0-1.634.511-1.992 1.251h-9.952a79.15 79.15 0 001.307-1.997h5.18c.366 0 .71-.142.968-.4l1.547-1.548h.909a2.216 2.216 0 002.033 1.342A2.216 2.216 0 0052 33.384c0-1.22-.993-2.213-2.214-2.213-.995 0-1.839.66-2.116 1.566h-.889c-.365 0-.708.142-.967.4l-1.547 1.548h-4.182a63.756 63.756 0 001.99-3.568.76.76 0 10-1.35-.695c-4.76 9.243-12.279 17.359-14.47 19.626a.452.452 0 01-.654 0c-1.835-1.898-6.556-7.001-10.778-13.376C9.599 28.784 6.95 21.78 6.95 15.852c0-.918.03-1.815.087-2.669a.248.248 0 01.187-.221 52.932 52.932 0 004.108-1.255.76.76 0 00-.504-1.433 51.335 51.335 0 01-3.99 1.219 1.765 1.765 0 00-1.316 1.587c-.06.888-.091 1.82-.091 2.771 0 5.501 2.132 11.826 6.342 18.834H7.59l-1.548-1.547a1.358 1.358 0 00-.967-.4H4.33a2.217 2.217 0 00-2.117-1.567A2.215 2.215 0 000 33.384c0 1.22.993 2.214 2.213 2.214.911 0 1.695-.554 2.034-1.342h.766l1.547 1.548c.258.258.602.4.967.4h5.184a78.677 78.677 0 001.309 1.997H4.207a2.216 2.216 0 00-1.994-1.251C.993 36.95 0 37.942 0 39.163c0 1.22.993 2.213 2.213 2.213a2.217 2.217 0 002.143-1.656h10.717c.495.699.992 1.378 1.485 2.035h-5.99a2.217 2.217 0 00-2.08-1.455c-1.22 0-2.213.994-2.213 2.214s.993 2.213 2.213 2.213c.954 0 1.769-.606 2.08-1.454h7.155c.514.658 1.02 1.287 1.51 1.885H15.95c-.365 0-.708.142-.967.4l-1.547 1.548h-.899a2.217 2.217 0 00-2.08-1.454c-1.22 0-2.213.993-2.213 2.214 0 1.22.993 2.213 2.214 2.213.954 0 1.768-.606 2.079-1.454h.962c.364 0 .708-.142.966-.4l1.548-1.548h4.493a97.915 97.915 0 004.003 4.426c.376.389.88.603 1.42.603.54 0 1.044-.214 1.42-.603.947-.98 2.366-2.5 4.013-4.428l.041.002h4.443l1.547 1.548c.259.258.602.4.967.4h.961a2.217 2.217 0 002.08 1.454c1.22 0 2.213-.993 2.213-2.213 0-1.22-.993-2.214-2.213-2.214a2.22 2.22 0 00-2.08 1.454h-.898l-1.548-1.548a1.359 1.359 0 00-.967-.4h-3.276c.493-.6.998-1.228 1.511-1.885h7.176a2.217 2.217 0 002.079 1.454c1.22 0 2.213-.993 2.213-2.213 0-1.22-.993-2.214-2.213-2.214-.954 0-1.769.607-2.08 1.455h-6.01c.493-.657.989-1.337 1.483-2.035h10.854a2.217 2.217 0 002.142 1.656 2.216 2.216 0 002.214-2.213c0-1.22-.993-2.213-2.214-2.213zm0-4.26a.695.695 0 11-.001 1.39.695.695 0 01.002-1.39zM2.213 34.079a.695.695 0 11.002-1.39.695.695 0 01-.002 1.39zm0 5.778a.695.695 0 11.002-1.39.695.695 0 01-.002 1.39zm6.275 3.352a.695.695 0 11.002-1.39.695.695 0 01-.002 1.39zm1.969 5.351a.695.695 0 11.001-1.39.695.695 0 01-.001 1.39zM41.4 47.171a.695.695 0 11-.002 1.39.695.695 0 01.002-1.39zm1.997-5.352a.695.695 0 11-.002 1.39.695.695 0 01.002-1.39zm6.39-1.962a.695.695 0 11.001-1.39.695.695 0 01-.002 1.39z" fill="#F37324"/><path d="M27.22 45.032a1.454 1.454 0 10-2.686-1.114 1.454 1.454 0 002.686 1.114zm-1.128-36.07a1.454 1.454 0 10-.465-2.87 1.454 1.454 0 00.465 2.87zm-15.32 5.742a1.454 1.454 0 100 2.908 1.454 1.454 0 000-2.908zm30.313 0a1.454 1.454 0 100 2.908 1.454 1.454 0 000-2.908z" fill="#F37324"/></svg>