<svg width="47" height="50" fill="none" xmlns="http://www.w3.org/2000/svg"><path d="M34.629 46.28a14.74 14.74 0 01-6.992 1.767H1.025a.982.982 0 00-.988.977c0 .539.442.976.988.976h26.612c2.767 0 5.512-.694 7.94-2.007a.97.97 0 00.392-1.325.993.993 0 00-1.34-.388zm11.163-13a3.982 3.982 0 00-5.564.014L34.44 39.02A9.34 9.34 0 0131 41.187c.17-.433.262-.903.262-1.394 0-2.146-1.765-3.892-3.935-3.892h-7.82l-1.475-1.487a10.776 10.776 0 00-7.601-3.154c-2.327 0-4.626.77-6.474 2.168L.425 36.102a.97.97 0 00-.185 1.37.995.995 0 001.385.181l3.533-2.674a8.788 8.788 0 015.273-1.766 8.78 8.78 0 016.192 2.57l1.766 1.779c.186.187.44.292.704.292h8.234c1.08 0 1.96.87 1.96 1.94 0 1.068-.88 1.938-1.96 1.938H14.36a.982.982 0 00-.988.977c0 .539.442.976.988.976h13.463a11.32 11.32 0 008.014-3.283l5.788-5.727a1.988 1.988 0 012.778-.007c.374.367.581.857.583 1.379a1.922 1.922 0 01-.577 1.38l-3.311 3.276a.97.97 0 000 1.381.995.995 0 001.396 0l3.312-3.275a3.852 3.852 0 001.155-2.767 3.854 3.854 0 00-1.169-2.761zm-7.121 10.26a1 1 0 00-.698.286.978.978 0 00-.29.69c0 .257.106.51.29.691a1 1 0 00.698.286.979.979 0 00.987-.977.978.978 0 00-.289-.69 1 1 0 00-.698-.286z" fill="#F37324"/><path d="M11.65 27.733h10.86v3.711c0 .54.442.977.988.977a.982.982 0 00.987-.977v-3.71h10.861c1.634 0 2.963-1.315 2.963-2.93v-4.688a2.9 2.9 0 00-.757-1.953 2.9 2.9 0 00.757-1.953v-4.688a2.9 2.9 0 00-.757-1.952 2.9 2.9 0 00.757-1.953V2.93c0-1.616-1.33-2.93-2.963-2.93H11.65c-1.634 0-2.963 1.314-2.963 2.93v4.687a2.9 2.9 0 00.757 1.953 2.9 2.9 0 00-.757 1.952v4.688a2.9 2.9 0 00.757 1.953 2.9 2.9 0 00-.757 1.953v4.688c0 1.615 1.33 2.93 2.963 2.93zm24.685-2.93a.983.983 0 01-.988.977H11.65a.983.983 0 01-.988-.976v-4.688c0-.538.443-.976.988-.976h23.697c.545 0 .988.438.988.976v4.688zM10.662 16.21v-4.688c0-.533.434-.967.971-.975h23.731a.98.98 0 01.97.975v4.688a.983.983 0 01-.987.976H11.65a.983.983 0 01-.988-.976zm0-13.28c0-.539.443-.977.988-.977h23.697c.545 0 .988.438.988.977v4.687a.983.983 0 01-.971.976H11.633a.983.983 0 01-.97-.976V2.93z" fill="#F37324"/><path d="M22.47 21.483h-8.262a.982.982 0 00-.987.977c0 .54.442.977.987.977h8.261a.982.982 0 00.988-.977.982.982 0 00-.988-.977zm5.144 0a.978.978 0 00-.987.977c0 .257.106.509.29.69a1 1 0 00.697.287 1 1 0 00.698-.287.978.978 0 00.29-.69.978.978 0 00-.29-.69 1 1 0 00-.698-.287zm5.174 0a.978.978 0 00-.987.977c0 .257.105.509.29.69a.998.998 0 001.396 0 .978.978 0 00.289-.69.978.978 0 00-.988-.977zM14.208 6.25h8.261a.982.982 0 00.988-.977.982.982 0 00-.988-.976h-8.26a.982.982 0 00-.988.976c0 .54.442.977.987.977zm13.406 0c.26 0 .514-.104.698-.286a.976.976 0 00.29-.69.978.978 0 00-.29-.691.998.998 0 00-1.396 0 .978.978 0 00-.289.69c0 .258.106.51.29.69a.996.996 0 00.697.287zm5.174 0c.26 0 .515-.104.698-.286a.977.977 0 00.29-.69.978.978 0 00-.988-.977.98.98 0 00-.987.977c0 .256.105.508.29.69a.996.996 0 00.697.286zM22.47 12.89h-8.262a.982.982 0 00-.987.976c0 .54.442.977.987.977h8.261a.982.982 0 00.988-.977.982.982 0 00-.988-.976zm5.144 0a1 1 0 00-.698.286.978.978 0 00-.289.69c0 .257.106.509.29.69a.998.998 0 00.697.287 1 1 0 00.698-.287.978.978 0 00.29-.69.978.978 0 00-.29-.69 1 1 0 00-.698-.286zm5.174 0a1 1 0 00-.698.286.978.978 0 00-.29.69c0 .257.106.509.29.69a.998.998 0 001.396 0 .978.978 0 00.29-.69.978.978 0 00-.29-.69.998.998 0 00-.698-.286z" fill="#F37324"/></svg>