<svg width="52" height="52" fill="none" xmlns="http://www.w3.org/2000/svg"><path d="M41.661 36.672l-1.41-2.968a16.1 16.1 0 001.272-3.075l3.099-1.102c.404-.143.675-.527.675-.957v-5.142c0-.43-.27-.813-.676-.957l-3.098-1.1a16.104 16.104 0 00-1.273-3.075l1.411-2.968c.184-.388.105-.85-.199-1.154l-3.636-3.636a1.015 1.015 0 00-1.154-.2l-2.968 1.411a16.103 16.103 0 00-3.075-1.272l-1.101-3.099a1.016 1.016 0 00-.957-.675h-5.143c-.43 0-.813.27-.957.676l-1.1 3.098a16.104 16.104 0 00-3.075 1.272l-2.968-1.41a1.016 1.016 0 00-1.154.199l-3.636 3.636a1.015 1.015 0 00-.2 1.154l1.412 2.968a16.1 16.1 0 00-1.273 3.075l-3.099 1.101a1.016 1.016 0 00-.675.957v5.143c0 .43.27.813.676.957l3.098 1.1a16.107 16.107 0 001.272 3.075l-1.41 2.968c-.184.388-.105.85.199 1.154l3.636 3.636c.304.304.766.384 1.154.199l2.968-1.41c.977.528 2.007.954 3.074 1.272l1.102 3.098c.144.405.527.676.957.676h5.143c.43 0 .813-.27.957-.676l1.1-3.099a16.104 16.104 0 003.075-1.272l2.968 1.41c.388.185.85.106 1.154-.198l3.636-3.636c.304-.304.384-.766.2-1.154zm-1.957-7.08a14.08 14.08 0 01-1.473 3.56c-.17.29-.185.645-.041.949l1.329 2.795-2.623 2.623-2.795-1.33a1.016 1.016 0 00-.95.042 14.077 14.077 0 01-3.559 1.472 1.016 1.016 0 00-.7.643l-1.037 2.92h-3.709l-1.038-2.92a1.015 1.015 0 00-.7-.643 14.078 14.078 0 01-3.56-1.472 1.016 1.016 0 00-.949-.041l-2.795 1.329-2.623-2.623 1.329-2.795c.144-.304.129-.66-.041-.95a14.075 14.075 0 01-1.473-3.559 1.016 1.016 0 00-.642-.7l-2.92-1.037v-3.709l2.92-1.038c.317-.113.557-.375.642-.7a14.08 14.08 0 011.473-3.56c.17-.29.185-.645.041-.95l-1.329-2.795 2.623-2.622 2.795 1.329c.304.144.66.129.95-.041a14.077 14.077 0 013.558-1.473c.326-.085.588-.326.701-.643l1.037-2.919h3.709l1.038 2.92c.113.317.375.557.7.642a14.08 14.08 0 013.56 1.473c.29.17.645.185.949.04l2.796-1.328 2.622 2.623-1.329 2.795c-.144.303-.129.659.041.95a14.075 14.075 0 011.473 3.558c.085.326.325.588.642.7l2.92 1.038v3.709l-2.92 1.038a1.015 1.015 0 00-.642.7zM4.672 9.344c.921 0 1.78-.27 2.504-.731l2.022 2.022a1.012 1.012 0 001.437 0 1.016 1.016 0 000-1.437L8.613 7.176a4.642 4.642 0 00.73-2.504A4.677 4.677 0 004.673 0 4.677 4.677 0 000 4.672a4.677 4.677 0 004.672 4.672zm0-7.313a2.644 2.644 0 012.64 2.64 2.644 2.644 0 01-2.64 2.641 2.644 2.644 0 01-2.64-2.64 2.644 2.644 0 012.64-2.64zm42.655 40.625c-.921 0-1.78.269-2.505.73l-2.022-2.02a1.016 1.016 0 00-1.436 1.436l2.022 2.022a4.643 4.643 0 00-.731 2.505A4.677 4.677 0 0047.327 52a4.677 4.677 0 004.672-4.672 4.677 4.677 0 00-4.672-4.672zm0 7.312a2.644 2.644 0 01-2.64-2.64 2.644 2.644 0 012.64-2.64 2.644 2.644 0 012.64 2.64 2.644 2.644 0 01-2.64 2.64zm-5.245-39.036c.26 0 .52-.099.718-.297l2.022-2.022a4.643 4.643 0 002.505.73 4.677 4.677 0 004.672-4.671A4.677 4.677 0 0047.327 0a4.677 4.677 0 00-4.672 4.672c0 .921.269 1.78.731 2.504l-2.022 2.022a1.016 1.016 0 00.718 1.734zm5.245-8.9a2.644 2.644 0 012.64 2.64 2.644 2.644 0 01-2.64 2.64 2.644 2.644 0 01-2.64-2.64 2.644 2.644 0 012.64-2.64zM9.198 41.365l-2.022 2.022a4.643 4.643 0 00-2.504-.731A4.677 4.677 0 000 47.328 4.677 4.677 0 004.672 52a4.677 4.677 0 004.672-4.672c0-.921-.27-1.78-.731-2.505l2.022-2.022a1.016 1.016 0 00-1.437-1.436zm-4.526 8.603a2.644 2.644 0 01-2.64-2.64 2.644 2.644 0 012.64-2.64 2.644 2.644 0 012.64 2.64 2.644 2.644 0 01-2.64 2.64z" fill="#F37324"/><path d="M30.907 16.41a1.015 1.015 0 10-.925 1.808A8.705 8.705 0 0134.746 26c0 1.99-.67 3.826-1.795 5.296a5.228 5.228 0 00-3.461-2.991 4.161 4.161 0 00.708-2.327v-.546a4.191 4.191 0 00-4.186-4.187 4.191 4.191 0 00-4.187 4.187v.546c0 .86.262 1.66.709 2.327a5.228 5.228 0 00-3.461 2.991A8.688 8.688 0 0117.277 26a8.708 8.708 0 014.744-7.771 1.016 1.016 0 10-.93-1.807A10.732 10.732 0 0015.246 26c0 5.936 4.83 10.766 10.766 10.766S36.777 31.936 36.777 26c0-4.064-2.249-7.739-5.87-9.59zm-7.05 9.021c0-1.188.966-2.155 2.155-2.155 1.188 0 2.155.967 2.155 2.155v.547a2.158 2.158 0 01-2.155 2.155 2.158 2.158 0 01-2.155-2.155v-.547zm-3.145 7.506a3.178 3.178 0 013.148-2.773h4.304a3.178 3.178 0 013.147 2.773 8.689 8.689 0 01-5.3 1.797 8.688 8.688 0 01-5.299-1.797z" fill="#F37324"/><path d="M26.016 17.266c.267 0 .529-.109.718-.298a1.02 1.02 0 00.297-.718c0-.267-.108-.53-.297-.718a1.023 1.023 0 00-.718-.298 1.019 1.019 0 00-.718 1.734c.189.189.45.298.718.298z" fill="#F37324"/></svg>