<svg width="48" height="48" fill="none" xmlns="http://www.w3.org/2000/svg"><path d="M35.497 6.041h3.954a3.176 3.176 0 100-1.851h-3.954a.937.937 0 100 1.851zm5.691-1.074a1.303 1.303 0 110 .297.802.802 0 000-.297zM31.91 6.041a.937.937 0 100-1.874.937.937 0 000 1.874zm2.284 13.074a1.874 1.874 0 00-3.314 1.372v2.286H16.8v-3.2a3.177 3.177 0 10-1.851 0v7.497L2.195 14.43 14.903 1.79v3.314a.938.938 0 001.006.937H28.16a.937.937 0 000-1.851H16.732V1.904a1.875 1.875 0 00-3.109-1.44L.275 13.767a.936.936 0 000 1.326l13.348 13.302a1.875 1.875 0 003.223-1.325v-2.286h14.08v4.571a3.178 3.178 0 101.851 0v-8.868l12.64 12.64-12.64 12.503v-3.246a.937.937 0 00-.937-.937H15.635a.936.936 0 00-.755 1.638.938.938 0 00.755.213h15.314v2.286a1.897 1.897 0 003.223 1.326l13.302-13.303a.94.94 0 000-1.326l-13.28-13.166zM15.91 17.858a1.303 1.303 0 110-2.605 1.303 1.303 0 010 2.605zm17.234 14.355a1.303 1.303 0 11-1.303-1.303 1.303 1.303 0 011.28 1.303h.023zM11.34 41.47a.937.937 0 100 1.874.937.937 0 000-1.874zm-6.15-2.24a3.177 3.177 0 100 6.354 3.177 3.177 0 000-6.355zm0 4.57a1.303 1.303 0 111.304-1.302A1.303 1.303 0 015.19 43.71v.09z" fill="#F37324"/><path d="M22.4 8.852a.937.937 0 00.938.914h10.49a.937.937 0 000-1.851h-10.49a.937.937 0 00-.938.937zm6.812 30.72a.937.937 0 000-1.851H18.721a.938.938 0 000 1.851" fill="#F37324"/></svg>