<svg width="52" height="52" fill="none" xmlns="http://www.w3.org/2000/svg"><path d="M30.825 10.762a1.016 1.016 0 00-.613 1.937 14.071 14.071 0 016.986 4.982A13.831 13.831 0 0139.949 26c0 7.691-6.257 13.948-13.948 13.948-7.691 0-13.948-6.257-13.948-13.948 0-3.024.951-5.9 2.75-8.319A14.07 14.07 0 0121.79 12.7a1.015 1.015 0 10-.612-1.937 15.898 15.898 0 00-8.003 5.707A15.848 15.848 0 0010.023 26c0 8.812 7.168 15.98 15.979 15.98S41.98 34.811 41.98 26c0-3.463-1.09-6.76-3.154-9.53a15.899 15.899 0 00-8.002-5.707z" fill="#F37324"/><path d="M50.984 19.816H47.63a22.344 22.344 0 00-1.963-4.736l2.374-2.374a1.016 1.016 0 000-1.436l-7.31-7.31a1.016 1.016 0 00-1.436 0L36.92 6.334a22.342 22.342 0 00-4.736-1.963V1.016C32.184.455 31.73 0 31.17 0H20.83c-.56 0-1.015.455-1.015 1.016V4.37a22.335 22.335 0 00-4.736 1.963L12.706 3.96a1.016 1.016 0 00-1.436 0l-7.31 7.31a1.016 1.016 0 000 1.435l2.374 2.374a22.342 22.342 0 00-1.963 4.736H1.016A1.017 1.017 0 000 20.83v10.34c0 .56.455 1.015 1.016 1.015H4.37a22.339 22.339 0 001.963 4.736L3.96 39.294a1.016 1.016 0 000 1.436l7.31 7.31a1.015 1.015 0 001.435 0l2.374-2.374a22.38 22.38 0 004.736 1.963v3.355c0 .561.454 1.016 1.015 1.016h10.34c.56 0 1.015-.455 1.015-1.016V47.63a22.341 22.341 0 004.736-1.963l2.374 2.374c.396.396 1.04.396 1.436 0l7.31-7.31a1.016 1.016 0 000-1.436l-2.374-2.374a22.344 22.344 0 001.963-4.736h3.355c.561 0 1.016-.454 1.016-1.015V20.83c0-.56-.455-1.015-1.016-1.015zM49.97 30.153h-3.121c-.467 0-.874.319-.986.772a20.328 20.328 0 01-2.336 5.636c-.241.4-.179.913.152 1.244l2.207 2.207-5.873 5.873-2.208-2.207a1.016 1.016 0 00-1.243-.151 20.323 20.323 0 01-5.636 2.335 1.016 1.016 0 00-.772.986v3.12h-8.306v-3.12c0-.467-.319-.874-.772-.986a20.323 20.323 0 01-5.636-2.335c-.4-.242-.913-.18-1.244.15l-2.207 2.208-5.873-5.873 2.207-2.207c.33-.33.393-.844.152-1.244a20.32 20.32 0 01-2.336-5.636 1.016 1.016 0 00-.986-.772h-3.12v-8.306h3.12c.467 0 .874-.319.986-.772a20.322 20.322 0 012.335-5.636c.242-.4.18-.913-.15-1.244l-2.208-2.207 5.873-5.873 2.207 2.207c.33.33.844.393 1.244.152a20.32 20.32 0 015.636-2.336c.454-.112.772-.519.772-.986v-3.12h8.306v3.12c0 .467.319.874.772.986a20.317 20.317 0 015.636 2.336c.4.241.913.179 1.243-.152l2.208-2.207 5.873 5.873-2.207 2.208c-.33.33-.393.843-.151 1.243a20.327 20.327 0 012.335 5.636c.112.454.519.772.986.772h3.12v8.306z" fill="#F37324"/><path d="M14.486 26c0 6.349 5.165 11.514 11.514 11.514 6.349 0 11.514-5.165 11.514-11.514 0-6.349-5.166-11.514-11.514-11.514-6.349 0-11.514 5.165-11.514 11.514zm20.996 0c0 5.229-4.253 9.482-9.482 9.482-5.229 0-9.482-4.253-9.482-9.482 0-5.229 4.253-9.482 9.482-9.482 5.229 0 9.482 4.253 9.482 9.482z" fill="#F37324"/><path d="M23.798 23.267a1.015 1.015 0 00-1.436 0l-2.873 2.872a1.016 1.016 0 000 1.436l3.365 3.366a3.027 3.027 0 002.155.893c.814 0 1.579-.317 2.154-.893l5.556-5.556a1.016 1.016 0 000-1.436l-2.872-2.873a1.016 1.016 0 00-1.437 0l-3.401 3.402-1.211-1.211zm5.33-.036l1.437 1.436-4.838 4.838a1.008 1.008 0 01-.718.297c-.271 0-.526-.105-.718-.297l-2.648-2.648 1.436-1.436 1.212 1.211a1.016 1.016 0 001.436 0l3.401-3.401zM26 12.052a1.016 1.016 0 100-2.032 1.016 1.016 0 000 2.032z" fill="#F37324"/></svg>