<svg width="50" height="43" viewBox="0 0 50 43" fill="none" xmlns="http://www.w3.org/2000/svg">
<path d="M21.4541 6.95908C23.3685 6.95908 24.9262 5.39823 24.9262 3.47954C24.9262 1.56084 23.3685 0 21.4541 0C9.6242 0 0 9.64482 0 21.4998C0 33.3549 9.6242 42.9997 21.4541 42.9997C23.3685 42.9997 24.9262 41.4388 24.9262 39.5201C24.9262 37.6014 23.3685 36.0406 21.4541 36.0406C13.4533 36.0406 6.94431 29.5176 6.94431 21.4998C6.94431 13.482 13.4534 6.95908 21.4541 6.95908ZM4.62954 21.4998C4.62954 30.7967 12.1769 38.3603 21.4541 38.3603C22.0923 38.3603 22.6115 38.8805 22.6115 39.5201C22.6115 40.1597 22.0923 40.68 21.4541 40.68C10.9006 40.68 2.31477 32.0758 2.31477 21.4998C2.31477 10.9239 10.9007 2.31969 21.4541 2.31969C22.0923 2.31969 22.6115 2.83992 22.6115 3.47954C22.6115 4.11916 22.0923 4.63939 21.4541 4.63939C12.1769 4.63939 4.62954 12.203 4.62954 21.4998Z" fill="#F37324"/>
<path d="M46.4541 6.95972C48.3351 6.95013 49.8904 5.51053 49.9948 3.6823C50.1116 1.63309 48.475 0.000488281 46.5283 0.000488281C34.6984 0.000488281 25.0742 9.64531 25.0742 21.5003C25.0742 33.314 34.6643 42.9587 46.4521 43H46.4646C48.3436 43 49.9272 41.5024 49.9978 39.6559C50.0733 37.6771 48.4993 36.0411 46.5285 36.0411C40.0047 36.0411 34.2478 31.6352 32.5289 25.3269C32.481 25.152 32.6142 24.9799 32.7966 24.9799H37.5374C38.1768 24.9799 38.6948 24.4606 38.6948 23.82C38.6948 23.1795 38.1768 22.6602 37.5374 22.6602H32.7966C31.0875 22.6602 29.846 24.2867 30.2957 25.9379C32.2888 33.2522 38.9639 38.3608 46.5283 38.3608C47.1828 38.3608 47.7102 38.9036 47.6848 39.5672C47.6613 40.1819 47.1144 40.6803 46.4647 40.6803C46.4632 40.6803 46.4616 40.6803 46.4602 40.6803C35.9442 40.6435 27.389 32.0395 27.389 21.5003C27.389 10.9244 35.9749 2.32018 46.5283 2.32018C47.1903 2.32018 47.722 2.87474 47.6837 3.54993C47.6488 4.15784 47.1036 4.63678 46.4422 4.64003C38.9218 4.67792 32.2829 9.78309 30.2979 17.0547C29.846 18.7097 31.0852 20.3405 32.7965 20.3405H46.4629C47.1078 20.3405 47.6556 20.8349 47.6843 21.4428C47.7156 22.1109 47.1876 22.6602 46.5283 22.6602H42.9384C42.2991 22.6602 41.781 23.1795 41.781 23.82C41.781 24.4606 42.2991 24.9799 42.9384 24.9799H46.5283C48.4639 24.9799 50.0923 23.3663 49.9965 21.3336C49.9093 19.476 48.3571 18.0208 46.463 18.0208H32.7966C32.6134 18.0208 32.4816 17.8467 32.5307 17.667C34.2427 11.3953 39.9681 6.99235 46.4541 6.95972Z" fill="#F37324"/>
</svg>
