<svg width="49" height="52" viewBox="0 0 49 52" fill="none" xmlns="http://www.w3.org/2000/svg">
<path d="M47.7855 17.1087C47.3153 11.9252 46.0731 8.36154 46.0204 8.21234C45.8875 7.83585 45.4809 7.62429 45.0897 7.72667C41.3747 8.55085 36.9629 7.18453 36.1483 1.18127C36.0965 0.843679 35.8229 0.581242 35.4789 0.539195C35.4348 0.533711 30.9926 0 23.983 0C22.5479 0 21.1164 0.0222422 19.7279 0.0661172C19.3009 0.079625 18.966 0.431437 18.9797 0.851906C18.9934 1.27237 19.3494 1.60205 19.7776 1.58874C24.0558 1.35241 33.3805 1.755 34.7188 1.99001C35.2684 4.85174 36.528 6.93265 38.4679 8.17994C40.8161 9.68987 43.4928 9.53397 44.7588 9.34171C49.6459 26.2798 44.2646 44.0216 23.9829 50.4344C20.6704 49.3256 17.6784 47.9381 15.086 46.3082C14.2037 45.7949 13.4098 47.0208 14.2535 47.5923C17.0166 49.3295 20.2075 50.7993 23.7377 51.9608C23.8969 52.0131 24.0688 52.0131 24.2279 51.9608C41.6633 46.5907 49.4306 32.4793 47.7855 17.1087Z" fill="#F37324"/>
<path d="M12.4441 44.4613C1.2921 36.3112 -0.304123 20.8088 3.20698 9.34193C4.4733 9.53409 7.14979 9.68968 9.49761 8.18006C11.4377 6.93257 12.6972 4.85176 13.2467 1.98973C13.8145 1.93285 14.7922 1.84459 16.1154 1.7607C16.5417 1.73369 16.865 1.37141 16.8375 0.951554C16.81 0.531797 16.4414 0.212992 16.0159 0.240414C13.7816 0.382195 12.5385 0.532711 12.4867 0.539109C12.1426 0.581258 11.869 0.843695 11.8173 1.18119C11.4017 3.89006 10.3405 5.81325 8.66299 6.89722C6.11221 8.54558 2.90791 7.73511 2.87749 7.72719C2.4856 7.62289 2.07845 7.83475 1.94511 8.21236C-1.74771 19.4818 -1.00952 36.2926 11.4855 45.6569C11.6274 45.7673 11.7964 45.8208 11.9643 45.8208C12.1929 45.8208 12.4192 45.7214 12.5719 45.5311C12.8365 45.201 12.7794 44.7219 12.4441 44.4613Z" fill="#F37324"/>
<path d="M5.99311 18.8819C5.56615 18.8658 5.20768 19.1953 5.19231 19.6158C4.70813 32.4947 10.9112 41.8286 23.7082 46.5615C23.8847 46.6274 24.0794 46.6274 24.256 46.5615C36.5459 41.9964 42.7703 33.2835 42.7997 20.9944C42.8012 20.5737 42.456 20.2316 42.0288 20.2302H42.0262C41.6003 20.2302 41.2542 20.5696 41.2528 20.9893C41.2235 32.5455 35.5066 40.6517 23.9821 45.0336C11.9719 40.4864 6.2863 31.7956 6.73821 19.6705C6.75357 19.2502 6.41995 18.897 5.99311 18.8819Z" fill="#F37324"/>
<path d="M42.0678 13.5108C42.0043 13.1879 41.7377 12.9416 41.4066 12.8999C37.2984 12.2957 34.1162 10.3263 32.0952 5.76806C31.9826 5.49841 31.7237 5.3157 31.4281 5.29752C26.7408 5.00563 21.2215 5.00563 16.5342 5.29762C16.2386 5.3158 15.9797 5.49851 15.8671 5.76816C13.848 10.3222 10.6698 12.2926 6.56273 12.899C6.23158 12.9409 5.9651 13.1875 5.90198 13.5104C5.72171 14.4321 5.57187 15.3735 5.45688 16.3084C5.40542 16.726 5.70759 17.1057 6.13155 17.1563C6.55551 17.207 6.9411 16.9094 6.99246 16.4918C7.08136 15.7702 7.1916 15.0446 7.32134 14.3279C11.5643 13.5312 14.854 11.4537 17.1047 6.78998C21.4533 6.53932 26.509 6.53942 30.8575 6.78998C32.2163 9.77185 34.1943 11.4983 35.647 12.4324C37.1355 13.3895 38.8157 14.0265 40.6488 14.3294C40.8512 15.444 41.005 16.5741 41.1068 17.6963C41.1427 18.0923 41.4802 18.3903 41.8762 18.3902C41.8993 18.3902 41.9225 18.3892 41.946 18.3872C42.3715 18.3497 42.6856 17.9797 42.6475 17.5608C42.5252 16.2091 42.3301 14.8465 42.0678 13.5108Z" fill="#F37324"/>
<path d="M15.6851 18.7437C15.6851 17.2036 14.4129 15.9507 12.8491 15.9507C9.54535 16.0311 8.95298 20.4904 12.0756 21.4311V26.2858C12.0756 26.4961 12.1639 26.6971 12.3196 26.841L15.9604 30.2081C16.2713 30.4956 16.7608 30.4814 17.0538 30.1743C17.3462 29.8676 17.3309 29.3856 17.0195 29.0975L13.6226 25.9561V21.431C14.8116 21.0987 15.6851 20.0198 15.6851 18.7437ZM12.8491 20.0132C12.1382 20.0132 11.56 19.4437 11.56 18.7437C11.6308 17.0594 14.0676 17.0599 14.1382 18.7437C14.1382 19.4437 13.5598 20.0132 12.8491 20.0132Z" fill="#F37324"/>
<path d="M15.9433 34.5435C15.6413 34.8409 15.6413 35.3233 15.9433 35.6206C16.2454 35.9181 16.7352 35.9181 17.0371 35.6206L20.6063 32.1057C20.7514 31.9629 20.8329 31.7691 20.8329 31.5671V16.739C20.8329 16.537 20.7514 16.3432 20.6063 16.2004L17.0371 12.6855C16.7351 12.388 16.2453 12.388 15.9433 12.6855C15.6413 12.983 15.6413 13.4653 15.9433 13.7627L19.2859 17.0545V31.2516L15.9433 34.5435Z" fill="#F37324"/>
<path d="M30.9452 29.0977C30.6337 29.3857 30.6184 29.8678 30.9108 30.1745C31.2037 30.4816 31.6932 30.4958 32.0042 30.2083L35.6451 26.8412C35.8007 26.6973 35.8891 26.4963 35.8891 26.286V21.4313C37.0782 21.0989 37.9517 20.02 37.9517 18.7439C37.7959 15.0385 32.4348 15.0398 32.2796 18.7439C32.2796 20.0199 33.1531 21.0989 34.3422 21.4312V25.9563L30.9452 29.0977ZM33.8265 18.7439C33.8265 18.0438 34.4047 17.4743 35.1156 17.4743C36.8257 17.5441 36.8252 19.9439 35.1156 20.0134C34.4047 20.0134 33.8265 19.4439 33.8265 18.7439Z" fill="#F37324"/>
<path d="M30.9285 12.6854L27.3594 16.2003C27.2143 16.3431 27.1328 16.5369 27.1328 16.7389V31.567C27.1328 31.769 27.2143 31.9627 27.3594 32.1056L30.9285 35.6206C31.2305 35.918 31.7203 35.918 32.0222 35.6206C32.3243 35.3231 32.3243 34.8408 32.0222 34.5434L28.6796 31.2516V17.0544L32.0222 13.7626C32.3243 13.4651 32.3243 12.9828 32.0222 12.6854C31.7203 12.3881 31.2305 12.3881 30.9285 12.6854Z" fill="#F37324"/>
<path d="M23.9844 19.5496C24.4116 19.5496 24.7579 19.2085 24.7579 18.7879V10.4686C24.7224 9.45994 23.2461 9.46076 23.2109 10.4686V18.7879C23.2109 19.2085 23.5572 19.5496 23.9844 19.5496Z" fill="#F37324"/>
<path d="M21.1484 38.5308C21.1484 40.0709 22.4206 41.3238 23.9845 41.3238C27.2882 41.2434 27.8806 36.7841 24.7579 35.8434V32.9051C24.7225 31.8965 23.2462 31.8973 23.211 32.9051V35.8434C22.0219 36.1758 21.1484 37.2548 21.1484 38.5308ZM23.9845 37.2613C24.6953 37.2613 25.2736 37.8308 25.2736 38.5308C25.2027 40.215 22.7659 40.2145 22.6954 38.5308C22.6954 37.8309 23.2736 37.2613 23.9845 37.2613Z" fill="#F37324"/>
<path d="M23.9805 26.5975C24.4077 26.5975 24.754 26.2564 24.754 25.8357C24.7186 24.8274 23.2422 24.8276 23.207 25.8357C23.207 26.2564 23.5533 26.5975 23.9805 26.5975Z" fill="#F37324"/>
<path d="M23.9844 23.0428C24.4116 23.0428 24.7579 22.7017 24.7579 22.2811C24.7225 21.2727 23.2461 21.273 23.2109 22.2811C23.2109 22.7017 23.5572 23.0428 23.9844 23.0428Z" fill="#F37324"/>
<path d="M23.9844 28.6284C23.5572 28.6284 23.2109 28.9695 23.2109 29.3901C23.2463 30.3984 24.7226 30.3982 24.7579 29.3901C24.7579 28.9695 24.4116 28.6284 23.9844 28.6284Z" fill="#F37324"/>
</svg>
