<svg width="52" height="56" viewBox="0 0 52 56" fill="none" xmlns="http://www.w3.org/2000/svg">
<path d="M51.4242 24.3475L42.4392 15.4263C42.1239 15.1133 41.7107 14.9215 41.2771 14.8707V12.8195H43.6574C44.4542 12.8195 45.166 12.3472 45.471 11.6163C45.7759 10.8854 45.6089 10.0516 45.0456 9.49226L36.0605 0.571049C35.6897 0.202782 35.1968 0 34.6723 0C34.1478 0 33.655 0.202782 33.2841 0.57094L24.2991 9.49215C23.7358 10.0516 23.5688 10.8854 23.8737 11.6162C24.1787 12.3472 24.8904 12.8193 25.6873 12.8193H28.0675V22.9254C27.122 22.7606 26.1496 22.6741 25.1572 22.6741C24.2463 22.6741 23.3525 22.7476 22.4805 22.8869V20.0357H24.8608C25.6576 20.0357 26.3694 19.5634 26.6744 18.8326C26.9793 18.1016 26.8123 17.2679 26.249 16.7085L22.3885 12.8755C22.0658 12.5551 21.5427 12.5551 21.2201 12.8755C20.8974 13.1958 20.8974 13.7152 21.2201 14.0355L25.0806 17.8686C25.2082 17.9953 25.1776 18.1336 25.1479 18.2048C25.1181 18.2759 25.0414 18.3952 24.8609 18.3952H21.6544C21.1981 18.3952 20.8283 18.7625 20.8283 19.2155V23.2374C19.9679 23.4656 19.1345 23.76 18.3341 24.115L12.3372 18.1607C11.5717 17.4008 10.3265 17.4006 9.56102 18.1607L9.32484 18.3952H6.8908C6.71015 18.3952 6.63337 18.2759 6.60373 18.2048C6.5741 18.1337 6.54337 17.9954 6.67115 17.8687L15.6561 8.94746C15.7773 8.82703 15.9743 8.82725 16.0953 8.94746L18.4905 11.3256C18.8133 11.646 19.3363 11.646 19.6589 11.3256C19.9816 11.0052 19.9816 10.4858 19.6589 10.1656L17.2638 7.78742C16.4983 7.02737 15.2531 7.02759 14.4876 7.78742L5.50271 16.7086C4.93926 17.2681 4.77215 18.1017 5.07706 18.8327C5.38209 19.5637 6.09393 20.0359 6.8908 20.0359H7.67248L0.576029 27.082C0.0125733 27.6415 -0.154536 28.4752 0.15038 29.2061C0.455406 29.937 1.16713 30.4093 1.96401 30.4093H4.3443V51.9996C4.3443 53.0743 5.22489 53.9487 6.3073 53.9487H15.5907C15.9504 53.9487 16.3005 53.8503 16.6045 53.6681C19.1107 55.1483 22.0355 56 25.1572 56C28.715 56 32.0169 54.8942 34.7349 53.0119C35.08 53.5725 35.7004 53.9488 36.4093 53.9488H45.6927C46.7751 53.9488 47.6557 53.0744 47.6557 51.9997V27.6748H50.036C50.8327 27.6748 51.5446 27.2025 51.8496 26.4716C52.1545 25.7407 51.9875 24.9069 51.4242 24.3475ZM6.3073 52.308C6.13601 52.308 5.99666 52.1697 5.99666 51.9996V29.5889C5.99666 29.1359 5.62686 28.7686 5.17048 28.7686H1.9639C1.78324 28.7686 1.70657 28.6493 1.67694 28.5782C1.6472 28.5071 1.61658 28.3688 1.74436 28.2419L10.7294 19.3207C10.8086 19.2421 10.901 19.2304 10.9489 19.2304C10.997 19.2304 11.0893 19.2421 11.1685 19.3207L16.7866 24.8989C11.7631 27.7814 8.37529 33.1737 8.37529 39.337C8.37529 44.5726 10.8206 49.251 14.6358 52.3079H6.3073V52.308ZM25.1572 54.3594C16.8148 54.3594 10.0275 47.6204 10.0275 39.3371C10.0275 31.0538 16.8147 24.3148 25.1572 24.3148C33.4998 24.3148 40.287 31.0538 40.287 39.3371C40.287 47.6204 33.4999 54.3594 25.1572 54.3594ZM50.323 25.8439C50.2933 25.915 50.2166 26.0343 50.0361 26.0343H46.8296C46.3732 26.0343 46.0034 26.4016 46.0034 26.8546V51.9996C46.0034 52.1697 45.864 52.308 45.6928 52.308H36.4094C36.2381 52.308 36.0987 52.1697 36.0987 51.9996C36.0987 51.9872 36.0974 51.9752 36.0969 51.963C39.6721 48.9048 41.9395 44.3791 41.9395 39.3371C41.9395 37.7292 41.7072 36.1744 41.2771 34.7023V24.711C41.2771 24.2579 40.9073 23.8907 40.4509 23.8907C39.9946 23.8907 39.6248 24.2579 39.6248 24.711V30.9018C37.4542 27.246 33.9195 24.4798 29.7199 23.3002V11.9991C29.7199 11.5461 29.3501 11.1788 28.8938 11.1788H25.6873C25.5066 11.1788 25.43 11.0595 25.4003 10.9884C25.3706 10.9173 25.34 10.7789 25.4676 10.6522L34.4526 1.73087C34.5318 1.65233 34.6243 1.64052 34.6723 1.64052C34.7203 1.64052 34.8126 1.65223 34.8918 1.73087L43.8769 10.6521C44.0046 10.7788 43.974 10.9171 43.9442 10.9883C43.9145 11.0594 43.8378 11.1787 43.6573 11.1787H40.4508C39.9944 11.1787 39.6246 11.546 39.6246 11.999V20.8781C39.6246 21.3312 39.9944 21.6984 40.4508 21.6984C40.9072 21.6984 41.277 21.3312 41.277 20.8781V16.5926L50.2557 25.5074C50.3834 25.6344 50.3528 25.7727 50.323 25.8439Z" fill="#F37324"/>
<path d="M25.1569 26.0913C22.3236 26.0913 19.6169 26.9626 17.3293 28.6111C16.96 28.8772 16.8779 29.3902 17.1459 29.7568C17.4139 30.1235 17.9307 30.205 18.2999 29.9389C20.3034 28.4952 22.6746 27.7319 25.1569 27.7319C31.6017 27.7319 36.8449 32.938 36.8449 39.3369C36.8449 45.736 31.6017 50.9421 25.1569 50.9421C18.712 50.9421 13.4688 45.736 13.4688 39.3369C13.4688 36.8425 14.2543 34.4652 15.7404 32.4621C16.0111 32.0973 15.9326 31.5838 15.5653 31.3151C15.1981 31.0464 14.6808 31.1243 14.4102 31.489C12.7133 33.7761 11.8164 36.4899 11.8164 39.3369C11.8164 46.6407 17.8009 52.5827 25.1569 52.5827C32.5128 52.5827 38.4973 46.6407 38.4973 39.3369C38.4973 32.0333 32.5128 26.0913 25.1569 26.0913Z" fill="#F37324"/>
<path d="M25.1549 48.4947C30.2406 48.4947 34.3781 44.3866 34.3781 39.337C34.3781 34.2873 30.2406 30.1792 25.1549 30.1792C20.0691 30.1792 15.9316 34.2873 15.9316 39.337C15.9316 44.3866 20.0691 48.4947 25.1549 48.4947ZM25.1549 31.8199C29.3294 31.8199 32.7257 35.1921 32.7257 39.3371C32.7257 43.482 29.3295 46.8542 25.1549 46.8542C20.9802 46.8542 17.584 43.482 17.584 39.3371C17.584 35.1921 20.9804 31.8199 25.1549 31.8199Z" fill="#F37324"/>
<path d="M24.3304 44.0944V44.7429C24.3304 45.196 24.7002 45.5632 25.1566 45.5632C25.613 45.5632 25.9827 45.196 25.9827 44.7429V44.0944C27.6719 43.7838 28.9384 42.5426 28.9384 41.0622C28.9384 38.8629 26.9305 38.3412 25.4647 37.9603C24.0944 37.6042 23.608 37.396 23.608 36.9367C23.608 36.3945 24.3316 35.919 25.1567 35.919C25.9818 35.919 26.7055 36.3945 26.7055 36.9367C26.7055 37.3898 27.0753 37.757 27.5317 37.757C27.988 37.757 28.3578 37.3898 28.3578 36.9367C28.3578 35.7081 27.3488 34.6719 25.9829 34.3686V33.7056C25.9829 33.2525 25.6131 32.8853 25.1567 32.8853C24.7003 32.8853 24.3305 33.2525 24.3305 33.7056V34.3686C22.9647 34.6719 21.9556 35.7081 21.9556 36.9367C21.9556 38.7443 23.7421 39.2084 25.0464 39.5474C26.7269 39.9841 27.2861 40.2642 27.2861 41.0622C27.2861 41.8575 26.3109 42.5294 25.1567 42.5294C24.0025 42.5294 23.0274 41.8575 23.0274 41.0622C23.0274 40.6092 22.6576 40.2419 22.2012 40.2419C21.7448 40.2419 21.375 40.6092 21.375 41.0622C21.3749 42.5426 22.6414 43.7837 24.3304 44.0944Z" fill="#F37324"/>
</svg>
