<svg width="50" height="50" viewBox="0 0 50 50" fill="none" xmlns="http://www.w3.org/2000/svg">
<path d="M13.964 23.1172H18.3555C18.779 23.1172 19.1222 22.7893 19.1222 22.3848C19.1222 21.9803 18.779 21.6523 18.3555 21.6523H13.964C13.5404 21.6523 13.1973 21.9803 13.1973 22.3848C13.1973 22.7893 13.5404 23.1172 13.964 23.1172Z" fill="#F37324"/>
<path d="M13.964 26.667H31.7997C32.2232 26.667 32.5664 26.3391 32.5664 25.9346C32.5664 25.5301 32.2232 25.2021 31.7997 25.2021H13.964C13.5404 25.2021 13.1973 25.5301 13.1973 25.9346C13.1973 26.3391 13.5404 26.667 13.964 26.667Z" fill="#F37324"/>
<path d="M31.7989 28.752H27.0441C26.6205 28.752 26.2773 29.0799 26.2773 29.4844C26.2773 29.8889 26.6205 30.2168 27.0441 30.2168H31.7989C32.2224 30.2168 32.5656 29.8889 32.5656 29.4844C32.5656 29.0799 32.2223 28.752 31.7989 28.752Z" fill="#F37324"/>
<path d="M49.0108 4.91736L39.0868 0.17937C38.5859 -0.05979 37.988 -0.05979 37.4872 0.17937L27.5629 4.91736C27.5628 4.91736 27.5628 4.91736 27.5628 4.91736C26.9527 5.20867 26.5736 5.79441 26.5736 6.44607V7.80906H15.7995C15.376 7.80906 15.0328 8.13699 15.0328 8.54148C15.0328 8.94597 15.376 9.2739 15.7995 9.2739H26.5737V11.5013C26.5737 12.5697 26.6576 13.5853 26.8253 14.5533H13.9637C13.5402 14.5533 13.197 14.8812 13.197 15.2857C13.197 15.6902 13.5402 16.0181 13.9637 16.0181H27.1535C27.3545 16.7408 27.6086 17.4348 27.9156 18.1029H13.9637C13.5402 18.1029 13.197 18.4308 13.197 18.8353C13.197 19.2398 13.5402 19.5678 13.9637 19.5678H28.6995C28.9687 20.005 29.2637 20.4303 29.5851 20.8443C29.7967 21.117 30.0204 21.386 30.257 21.6525H21.4221C20.9985 21.6525 20.6554 21.9804 20.6554 22.3849C20.6554 22.7894 20.9985 23.1174 21.4221 23.1174H31.7197C33.1652 24.4169 34.9922 25.6963 37.3513 27.0754C37.6398 27.244 37.9633 27.3283 38.2868 27.3283C38.6104 27.3283 38.9338 27.244 39.2224 27.0754C39.3008 27.0296 39.3777 26.984 39.4549 26.9385V44.725H19.3947V43.3594C19.3947 42.9549 19.0515 42.6269 18.628 42.6269C18.2044 42.6269 17.8613 42.9549 17.8613 43.3594V48.291C17.8613 48.4256 17.7467 48.5351 17.6057 48.5351H1.78899C1.64802 48.5351 1.53342 48.4256 1.53342 48.291V37.7415C1.53342 37.6069 1.64802 37.4973 1.78899 37.4973H17.6057C17.7467 37.4973 17.8613 37.6069 17.8613 37.7415V39.9414C17.8613 40.3459 18.2044 40.6738 18.628 40.6738C19.0515 40.6738 19.3947 40.3459 19.3947 39.9414V37.7415C19.3947 37.5943 19.373 37.4521 19.3362 37.3158H31.7994C32.223 37.3158 32.5661 36.9879 32.5661 36.5834C32.5661 36.1789 32.223 35.851 31.7994 35.851H16.931V33.7662H31.7993C32.2229 33.7662 32.566 33.4383 32.566 33.0338C32.566 32.6293 32.2229 32.3013 31.7993 32.3013H16.8989C16.8281 31.5675 16.6372 30.8665 16.3442 30.2166H24.2845C24.708 30.2166 25.0512 29.8887 25.0512 29.4842C25.0512 29.0797 24.708 28.7517 24.2845 28.7517H15.4451C14.1222 27.0991 12.0384 26.0303 9.69734 26.0303C8.47316 26.0303 7.31973 26.3233 6.30798 26.8383V9.2739H12.2216C12.6451 9.2739 12.9883 8.94597 12.9883 8.54148C12.9883 8.13699 12.6451 7.80906 12.2216 7.80906H6.05241C5.34775 7.80906 4.77456 8.35662 4.77456 9.02976V27.8837C3.3543 29.1462 2.46369 30.9455 2.46369 32.9405V36.0324H1.78899C0.802592 36.0324 0 36.7991 0 37.7414V48.291C0 49.2333 0.802592 50 1.78899 50H17.6057C18.5921 50 19.3947 49.2333 19.3947 48.291V46.1897H39.7106C40.4152 46.1897 40.9884 45.6422 40.9884 44.969V25.9975C43.7175 24.2529 45.607 22.6244 46.9887 20.8443C49.0149 18.234 50 15.1778 50 11.5014V6.44607C50.0001 5.79451 49.621 5.20877 49.0108 4.91736ZM12.3308 36.0325H7.06395V32.9406C7.06395 31.5534 8.2454 30.4249 9.69745 30.4249C11.1495 30.4249 12.3309 31.5534 12.3309 32.9406V36.0325H12.3308ZM3.99711 32.9406C3.99711 29.938 6.55435 27.4952 9.69745 27.4952C12.8405 27.4952 15.3977 29.938 15.3977 32.9406V36.0325H13.8644V32.9406C13.8644 30.7457 11.9951 28.96 9.69745 28.96C7.39977 28.96 5.53053 30.7457 5.53053 32.9406V36.0325H3.99711V32.9406ZM48.4667 11.5014C48.4667 18.5401 44.6233 22.2009 38.4222 25.8259C38.3398 25.874 38.2337 25.8739 38.1517 25.8259C31.9504 22.2008 28.1071 18.5401 28.1071 11.5014V6.44607C28.1071 6.35291 28.1612 6.26921 28.2484 6.22761L38.1726 1.48953C38.2441 1.45535 38.3295 1.45535 38.4011 1.48953L48.3252 6.22752C48.4124 6.26912 48.4666 6.35281 48.4666 6.44597V11.5014H48.4667Z" fill="#F37324"/>
<path d="M38.2411 5.09082C33.9629 5.09082 30.4824 8.41572 30.4824 12.5025C30.4824 16.5894 33.963 19.9143 38.2411 19.9143C41.5141 19.9143 44.4515 17.9357 45.5502 14.9909C45.6924 14.61 45.4843 14.1909 45.0855 14.0551C44.6867 13.9192 44.248 14.1181 44.1058 14.499C43.2241 16.8618 40.8673 18.4493 38.2411 18.4493C34.8085 18.4493 32.0158 15.7815 32.0158 12.5024C32.0158 9.22334 34.8085 6.55557 38.2411 6.55557C41.2634 6.55557 43.8402 8.61621 44.3682 11.4552C44.4423 11.8534 44.8404 12.1193 45.2571 12.0482C45.674 11.9775 45.952 11.5973 45.878 11.199C45.2198 7.65967 42.0081 5.09082 38.2411 5.09082Z" fill="#F37324"/>
<path d="M40.9009 10.4986L37.8799 13.3845L36.1234 11.7063C35.8239 11.4203 35.3386 11.4202 35.039 11.7063C34.7396 11.9924 34.7396 12.4562 35.039 12.7421L37.3377 14.9381C37.4816 15.0755 37.6765 15.1526 37.8799 15.1526C38.0834 15.1526 38.2782 15.0755 38.4222 14.9381L41.9852 11.5344C42.2846 11.2483 42.2846 10.7846 41.9852 10.4986C41.6858 10.2127 41.2004 10.2127 40.9009 10.4986Z" fill="#F37324"/>
</svg>
