<svg width="52" height="52" viewBox="0 0 52 52" fill="none" xmlns="http://www.w3.org/2000/svg">
<path d="M49.4 33.7501C49.0139 33.7516 48.6332 33.8403 48.2863 34.0097L46.293 32.0193H38.1333V30.2885H42.4667V29.5578C42.4667 29.0055 42.0189 28.5578 41.4667 28.5578H38.1333V26.827H42.6712L47.5999 24.3658C48.0319 24.779 48.5935 25.0304 49.1898 25.0776C49.7861 25.1248 50.3804 24.9648 50.8721 24.6247C51.3639 24.2847 51.7229 23.7854 51.8883 23.2115C52.0538 22.6375 52.0156 22.0241 51.7802 21.475C51.5448 20.9259 51.1266 20.4749 50.5965 20.1983C50.0663 19.9217 49.4568 19.8365 48.8709 19.9571C48.2851 20.0777 47.759 20.3967 47.3816 20.86C47.0042 21.3234 46.7988 21.9028 46.8 22.5001C46.8041 22.6053 46.8148 22.7103 46.8321 22.8142L42.2621 25.0962H38.1333V23.3654H39.8679C40.3459 23.3654 40.7333 22.978 40.7333 22.5001C40.7333 22.0221 40.3459 21.6347 39.8679 21.6347H38.1333V19.9039H41.9588L44.8188 17.0481C45.1659 17.2176 45.5469 17.3064 45.9333 17.3077C46.4476 17.3077 46.9502 17.1555 47.3778 16.8702C47.8054 16.5849 48.1386 16.1795 48.3354 15.7051C48.5322 15.2307 48.5837 14.7087 48.4834 14.2051C48.383 13.7015 48.1354 13.2389 47.7718 12.8758C47.4082 12.5127 46.9449 12.2655 46.4406 12.1653C45.9362 12.0651 45.4134 12.1165 44.9384 12.313C44.4633 12.5095 44.0572 12.8423 43.7715 13.2692C43.4858 13.6962 43.3333 14.1981 43.3333 14.7116C43.3348 15.0971 43.4237 15.4773 43.5933 15.8236L41.2412 18.1731H38.1333C38.132 17.026 37.675 15.9262 36.8626 15.115C36.0502 14.3039 34.9488 13.8476 33.8 13.8462V11.6083L38.753 6.66348C39.0998 6.83285 39.4806 6.9216 39.8667 6.9231C40.3809 6.9231 40.8836 6.77083 41.3111 6.48556C41.7387 6.20029 42.072 5.79483 42.2687 5.32044C42.4655 4.84606 42.517 4.32406 42.4167 3.82045C42.3164 3.31684 42.0688 2.85425 41.7051 2.49117C41.3415 2.12809 40.8782 1.88083 40.3739 1.78066C39.8695 1.68049 39.3468 1.7319 38.8717 1.9284C38.3966 2.12489 37.9905 2.45765 37.7048 2.88459C37.4192 3.31152 37.2667 3.81346 37.2667 4.32694C37.2682 4.71245 37.357 5.09263 37.5267 5.43896L32.0667 10.8909V13.8462H30.3333V12.1167C30.3333 11.6381 29.9453 11.25 29.4667 11.25C28.988 11.25 28.6 11.6381 28.6 12.1167V13.8462H26.8667V7.62925C27.4449 7.42511 27.9323 7.02342 28.2426 6.49518C28.5529 5.96694 28.6663 5.34616 28.5626 4.74255C28.4588 4.13895 28.1448 3.59139 27.6758 3.19665C27.2069 2.80191 26.6133 2.58541 26 2.58541C25.3867 2.58541 24.7931 2.80191 24.3242 3.19665C23.8552 3.59139 23.5412 4.13895 23.4374 4.74255C23.3337 5.34616 23.4471 5.96694 23.7574 6.49518C24.0677 7.02342 24.5551 7.42511 25.1333 7.62925V13.8462H23.4V12.1167C23.4 11.6381 23.012 11.25 22.5333 11.25C22.0547 11.25 21.6667 11.638 21.6667 12.1167V13.8462H19.9333V7.43021L16.2067 3.70905C16.3764 3.36246 16.4653 2.98197 16.4667 2.59616C16.4667 2.08269 16.3142 1.58075 16.0285 1.15381C15.7428 0.726876 15.3367 0.394119 14.8616 0.197622C14.3866 0.00112488 13.8638 -0.0502878 13.3594 0.0498857C12.8551 0.150059 12.3918 0.39732 12.0282 0.760399C11.6646 1.12348 11.4169 1.58607 11.3166 2.08968C11.2163 2.59328 11.2678 3.11528 11.4646 3.58967C11.6614 4.06406 11.9946 4.46952 12.4222 4.75479C12.8498 5.04006 13.3524 5.19232 13.8667 5.19232C14.2528 5.19083 14.6335 5.10207 14.9803 4.93271L18.2 8.14675V13.8462C17.0512 13.8476 15.9497 14.3039 15.1374 15.115C14.325 15.9262 13.868 17.026 13.8667 18.1731H10.7588L8.40667 15.8236C8.57628 15.4773 8.66517 15.0971 8.66667 14.7116C8.66667 14.1981 8.51418 13.6962 8.22849 13.2692C7.9428 12.8423 7.53673 12.5095 7.06164 12.313C6.58656 12.1165 6.06378 12.0651 5.55943 12.1653C5.05508 12.2655 4.59181 12.5127 4.22819 12.8758C3.86457 13.2389 3.61695 13.7015 3.51663 14.2051C3.4163 14.7087 3.46779 15.2307 3.66458 15.7051C3.86137 16.1795 4.19462 16.5849 4.62218 16.8702C5.04975 17.1555 5.55244 17.3077 6.06667 17.3077C6.45276 17.3062 6.8335 17.2175 7.18033 17.0481L10.0403 19.9039H13.8667V21.6347H8.35293L3.81333 25.4112C3.4413 25.2074 3.02434 25.0992 2.6 25.0962C2.08577 25.0962 1.58309 25.2485 1.15552 25.5338C0.727951 25.819 0.394702 26.2245 0.197914 26.6989C0.00112654 27.1733 -0.0503621 27.6953 0.0499594 28.1989C0.150281 28.7025 0.397907 29.1651 0.761524 29.5281C1.12514 29.8912 1.58842 30.1385 2.09277 30.2387C2.59712 30.3388 3.11989 30.2874 3.59498 30.0909C4.07007 29.8944 4.47613 29.5617 4.76182 29.1347C5.04751 28.7078 5.2 28.2059 5.2 27.6924C5.20059 27.3451 5.13071 27.0012 4.9946 26.6816L8.9804 23.3654H13.8667V25.0962H12.1321C11.6541 25.0962 11.2667 25.4837 11.2667 25.9616C11.2667 26.4395 11.6541 26.827 12.1321 26.827H13.8667V28.5578H6.06667V30.2885H13.8667V32.0193H9.06967L5.577 37.2497C5.45244 37.2278 5.32643 37.2151 5.2 37.2116C4.59706 37.2061 4.01061 37.4081 3.53927 37.7836C3.06794 38.1591 2.74047 38.6852 2.61195 39.2734C2.48344 39.8616 2.5617 40.4761 2.83359 41.0135C3.10548 41.5509 3.55441 41.9784 4.10487 42.2241C4.65533 42.4699 5.27375 42.5188 5.85611 42.3628C6.43847 42.2067 6.94924 41.8552 7.30253 41.3673C7.65582 40.8794 7.83008 40.2849 7.79598 39.6838C7.76189 39.0826 7.52153 38.5116 7.11533 38.0666L9.997 33.7501H13.8667C13.868 34.8972 14.325 35.997 15.1374 36.8082C15.9497 37.6193 17.0512 38.0756 18.2 38.077V43.7765L14.9803 46.9905C14.6335 46.8211 14.2528 46.7324 13.8667 46.7309C13.3524 46.7309 12.8498 46.8832 12.4222 47.1684C11.9946 47.4537 11.6614 47.8592 11.4646 48.3335C11.2678 48.8079 11.2163 49.3299 11.3166 49.8335C11.4169 50.3371 11.6646 50.7997 12.0282 51.1628C12.3918 51.5259 12.8551 51.7732 13.3594 51.8733C13.8638 51.9735 14.3866 51.9221 14.8616 51.7256C15.3367 51.5291 15.7428 51.1963 16.0285 50.7694C16.3142 50.3425 16.4667 49.8405 16.4667 49.3271C16.4652 48.9415 16.3763 48.5614 16.2067 48.215L19.9333 44.4939V38.077H21.6667V42.4027C21.6667 42.8813 22.0547 43.2693 22.5333 43.2693C23.012 43.2693 23.4 42.8813 23.4 42.4027V38.077H25.1333V45.4795L30.3975 48.768C30.256 49.3743 30.3341 50.0111 30.618 50.5653C30.9019 51.1196 31.3732 51.5555 31.9484 51.7958C32.5235 52.0361 33.1653 52.0653 33.7599 51.8781C34.3545 51.691 34.8636 51.2996 35.1967 50.7734C35.5298 50.2472 35.6656 49.6201 35.5798 49.0035C35.4941 48.3869 35.1924 47.8205 34.7283 47.4048C34.2642 46.9891 33.6677 46.751 33.0445 46.7327C32.4213 46.7143 31.8118 46.917 31.3239 47.3046L26.8667 44.5207V38.077H28.6V39.8065C28.6 40.2852 28.988 40.6732 29.4667 40.6732C29.9453 40.6732 30.3333 40.2852 30.3333 39.8065V38.077H32.0667V45.0001H38.2928C38.4972 45.5775 38.8995 46.0642 39.4285 46.374C39.9576 46.6839 40.5793 46.7971 41.1838 46.6935C41.7883 46.5899 42.3366 46.2763 42.732 45.8081C43.1273 45.3399 43.3441 44.7472 43.3441 44.1347C43.3441 43.5223 43.1273 42.9296 42.732 42.4614C42.3366 41.9931 41.7883 41.6795 41.1838 41.576C40.5793 41.4724 39.9576 41.5856 39.4285 41.8954C38.8995 42.2053 38.4972 42.6919 38.2928 43.2693H33.8V38.077C34.9488 38.0756 36.0502 37.6193 36.8626 36.8082C37.675 35.997 38.132 34.8972 38.1333 33.7501H45.5745L47.06 35.2342C46.8904 35.5806 46.8015 35.9607 46.8 36.3462C46.8 36.8597 46.9525 37.3617 47.2382 37.7886C47.5239 38.2155 47.9299 38.5483 48.405 38.7448C48.8801 38.9413 49.4029 38.9927 49.9072 38.8925C50.4116 38.7924 50.8749 38.5451 51.2385 38.182C51.6021 37.8189 51.8497 37.3563 51.95 36.8527C52.0504 36.3491 51.9989 35.8271 51.8021 35.3527C51.6053 34.8784 51.272 34.4729 50.8445 34.1876C50.4169 33.9024 49.9142 33.7501 49.4 33.7501ZM49.4 21.6347C49.5714 21.6347 49.739 21.6854 49.8815 21.7805C50.024 21.8756 50.1351 22.0108 50.2007 22.1689C50.2663 22.327 50.2835 22.501 50.25 22.6689C50.2166 22.8368 50.134 22.991 50.0128 23.112C49.8916 23.233 49.7372 23.3154 49.5691 23.3488C49.401 23.3822 49.2267 23.3651 49.0683 23.2996C48.91 23.2341 48.7746 23.1232 48.6794 22.9808C48.5842 22.8385 48.5333 22.6712 48.5333 22.5001C48.5333 22.2705 48.6246 22.0504 48.7872 21.8881C48.9497 21.7258 49.1701 21.6347 49.4 21.6347ZM45.9333 13.8462C46.1047 13.8462 46.2723 13.8969 46.4148 13.992C46.5573 14.0871 46.6684 14.2223 46.734 14.3804C46.7996 14.5385 46.8168 14.7125 46.7833 14.8804C46.7499 15.0483 46.6674 15.2025 46.5462 15.3235C46.425 15.4445 46.2705 15.5269 46.1024 15.5603C45.9343 15.5937 45.76 15.5766 45.6017 15.5111C45.4433 15.4456 45.308 15.3347 45.2127 15.1924C45.1175 15.05 45.0667 14.8827 45.0667 14.7116C45.0667 14.4821 45.158 14.2619 45.3205 14.0997C45.483 13.9374 45.7035 13.8462 45.9333 13.8462ZM39.8667 3.46155C40.0381 3.46155 40.2056 3.5123 40.3482 3.60739C40.4907 3.70248 40.6018 3.83764 40.6674 3.99577C40.733 4.1539 40.7501 4.3279 40.7167 4.49576C40.6832 4.66363 40.6007 4.81783 40.4795 4.93886C40.3583 5.05988 40.2039 5.1423 40.0357 5.17569C39.8676 5.20909 39.6934 5.19195 39.535 5.12645C39.3766 5.06095 39.2413 4.95003 39.1461 4.80772C39.0508 4.66541 39 4.49809 39 4.32694C39 4.09742 39.0913 3.87731 39.2538 3.71501C39.4164 3.55272 39.6368 3.46155 39.8667 3.46155ZM26 4.32694C26.1714 4.32694 26.339 4.37769 26.4815 4.47278C26.624 4.56787 26.7351 4.70302 26.8007 4.86115C26.8663 5.01928 26.8835 5.19328 26.85 5.36115C26.8166 5.52902 26.734 5.68322 26.6128 5.80424C26.4916 5.92527 26.3372 6.00769 26.1691 6.04108C26.001 6.07447 25.8267 6.05733 25.6683 5.99184C25.51 5.92634 25.3746 5.81542 25.2794 5.67311C25.1842 5.53079 25.1333 5.36348 25.1333 5.19232C25.1333 4.96281 25.2246 4.74269 25.3872 4.5804C25.5497 4.41811 25.7701 4.32694 26 4.32694ZM13 2.59616C13 2.425 13.0508 2.25769 13.1461 2.11538C13.2413 1.97307 13.3766 1.86215 13.535 1.79665C13.6934 1.73115 13.8676 1.71401 14.0357 1.7474C14.2039 1.78079 14.3583 1.86321 14.4795 1.98424C14.6007 2.10527 14.6832 2.25946 14.7167 2.42733C14.7501 2.5952 14.733 2.7692 14.6674 2.92733C14.6018 3.08546 14.4907 3.22061 14.3482 3.3157C14.2056 3.41079 14.0381 3.46155 13.8667 3.46155C13.6368 3.46155 13.4164 3.37037 13.2538 3.20808C13.0913 3.04579 13 2.82568 13 2.59616ZM5.2 14.7116C5.2 14.5404 5.25083 14.3731 5.34606 14.2308C5.44129 14.0885 5.57665 13.9776 5.73501 13.9121C5.89337 13.8466 6.06763 13.8294 6.23575 13.8628C6.40386 13.8962 6.55829 13.9786 6.67949 14.0997C6.8007 14.2207 6.88324 14.3749 6.91668 14.5427C6.95012 14.7106 6.93296 14.8846 6.86736 15.0427C6.80177 15.2009 6.69068 15.336 6.54816 15.4311C6.40564 15.5262 6.23808 15.577 6.06667 15.577C5.83681 15.577 5.61637 15.4858 5.45384 15.3235C5.29131 15.1612 5.2 14.9411 5.2 14.7116ZM2.6 28.5578C2.42859 28.5578 2.26103 28.507 2.11851 28.4119C1.97598 28.3168 1.8649 28.1817 1.79931 28.0235C1.73371 27.8654 1.71655 27.6914 1.74999 27.5236C1.78343 27.3557 1.86597 27.2015 1.98718 27.0805C2.10838 26.9594 2.26281 26.877 2.43092 26.8436C2.59904 26.8102 2.7733 26.8274 2.93166 26.8929C3.09002 26.9584 3.22538 27.0693 3.32061 27.2116C3.41584 27.3539 3.46667 27.5212 3.46667 27.6924C3.46667 27.9219 3.37536 28.142 3.21283 28.3043C3.0503 28.4666 2.82986 28.5578 2.6 28.5578ZM5.2 40.6732C5.02859 40.6732 4.86103 40.6224 4.71851 40.5273C4.57598 40.4323 4.4649 40.2971 4.39931 40.139C4.33371 39.9808 4.31655 39.8068 4.34999 39.639C4.38343 39.4711 4.46597 39.3169 4.58718 39.1959C4.70838 39.0748 4.86281 38.9924 5.03092 38.959C5.19904 38.9256 5.3733 38.9428 5.53166 39.0083C5.69002 39.0738 5.82538 39.1847 5.92061 39.327C6.01584 39.4693 6.06667 39.6366 6.06667 39.8078C6.06667 40.0373 5.97536 40.2574 5.81283 40.4197C5.6503 40.582 5.42985 40.6732 5.2 40.6732ZM13.8667 50.1924C13.6953 50.1924 13.5277 50.1417 13.3852 50.0466C13.2426 49.9515 13.1316 49.8164 13.066 49.6582C13.0004 49.5001 12.9832 49.3261 13.0167 49.1582C13.0501 48.9904 13.1326 48.8362 13.2538 48.7151C13.375 48.5941 13.5295 48.5117 13.6976 48.4783C13.8657 48.4449 14.04 48.462 14.1983 48.5275C14.3567 48.593 14.492 48.704 14.5873 48.8463C14.6825 48.9886 14.7333 49.1559 14.7333 49.3271C14.7333 49.5566 14.642 49.7767 14.4795 49.939C14.317 50.1013 14.0965 50.1924 13.8667 50.1924ZM32.9333 48.4617C33.1047 48.4617 33.2723 48.5124 33.4148 48.6075C33.5573 48.7026 33.6684 48.8378 33.734 48.9959C33.7996 49.154 33.8168 49.328 33.7833 49.4959C33.7499 49.6637 33.6674 49.8179 33.5462 49.939C33.425 50.06 33.2705 50.1424 33.1024 50.1758C32.9343 50.2092 32.76 50.1921 32.6017 50.1266C32.4433 50.0611 32.308 49.9501 32.2127 49.8078C32.1175 49.6655 32.0667 49.4982 32.0667 49.3271C32.0667 49.0975 32.158 48.8774 32.3205 48.7151C32.483 48.5528 32.7035 48.4617 32.9333 48.4617ZM40.7333 43.2693C40.9047 43.2693 41.0723 43.3201 41.2148 43.4152C41.3573 43.5103 41.4684 43.6454 41.534 43.8036C41.5996 43.9617 41.6168 44.1357 41.5833 44.3036C41.5499 44.4714 41.4674 44.6256 41.3462 44.7467C41.225 44.8677 41.0705 44.9501 40.9024 44.9835C40.7343 45.0169 40.56 44.9997 40.4017 44.9342C40.2433 44.8687 40.108 44.7578 40.0127 44.6155C39.9175 44.4732 39.8667 44.3059 39.8667 44.1347C39.8667 43.9052 39.958 43.6851 40.1205 43.5228C40.283 43.3605 40.5035 43.2693 40.7333 43.2693ZM36.4 33.7501C36.4 34.4386 36.1261 35.099 35.6385 35.5858C35.1509 36.0727 34.4896 36.3462 33.8 36.3462H18.2C17.5104 36.3462 16.8491 36.0727 16.3615 35.5858C15.8739 35.099 15.6 34.4386 15.6 33.7501V18.1731C15.6 17.4846 15.8739 16.8242 16.3615 16.3374C16.8491 15.8505 17.5104 15.577 18.2 15.577H33.8C34.4896 15.577 35.1509 15.8505 35.6385 16.3374C36.1261 16.8242 36.4 17.4846 36.4 18.1731V33.7501ZM49.4 37.2116C49.2286 37.2116 49.061 37.1609 48.9185 37.0658C48.776 36.9707 48.6649 36.8355 48.5993 36.6774C48.5337 36.5193 48.5165 36.3453 48.55 36.1774C48.5834 36.0096 48.666 35.8554 48.7872 35.7343C48.9084 35.6133 49.0628 35.5309 49.2309 35.4975C49.399 35.4641 49.5733 35.4812 49.7317 35.5467C49.89 35.6122 50.0254 35.7232 50.1206 35.8655C50.2158 36.0078 50.2667 36.1751 50.2667 36.3462C50.2667 36.5758 50.1754 36.7959 50.0128 36.9582C49.8503 37.1205 49.6299 37.2116 49.4 37.2116Z" fill="#F37324"/>
</svg>
