<svg width="50" height="50" viewBox="0 0 50 50" fill="none" xmlns="http://www.w3.org/2000/svg">
<path d="M37.1712 6.36583H41.3119C41.5442 7.13348 42.0428 7.79161 42.7169 8.22036C43.391 8.6491 44.1957 8.81993 44.9844 8.70174C45.7732 8.58354 46.4935 8.18418 47.0142 7.5764C47.5349 6.96861 47.8213 6.19284 47.8213 5.39037C47.8213 4.5879 47.5349 3.81213 47.0142 3.20434C46.4935 2.59656 45.7732 2.1972 44.9844 2.079C44.1957 1.96081 43.391 2.13164 42.7169 2.56038C42.0428 2.98913 41.5442 3.64726 41.3119 4.41491H37.1712C37.0311 4.39269 36.888 4.40128 36.7515 4.44009C36.6151 4.4789 36.4886 4.547 36.3808 4.6397C36.273 4.73241 36.1865 4.84752 36.1272 4.97711C36.0678 5.1067 36.0371 5.24769 36.0371 5.39037C36.0371 5.53305 36.0678 5.67404 36.1272 5.80363C36.1865 5.93322 36.273 6.04833 36.3808 6.14103C36.4886 6.23374 36.6151 6.30184 36.7515 6.34065C36.888 6.37946 37.0311 6.38805 37.1712 6.36583ZM43.1309 5.23381C43.1706 4.88557 43.3412 4.5658 43.6077 4.34006C43.8742 4.11432 44.2164 3.99972 44.5642 4.01974C44.912 4.03976 45.2389 4.19289 45.4781 4.44773C45.7173 4.70258 45.8505 5.03983 45.8505 5.39037C45.8505 5.74091 45.7173 6.07816 45.4781 6.33301C45.2389 6.58785 44.912 6.74098 44.5642 6.761C44.2164 6.78102 43.8742 6.66642 43.6077 6.44068C43.3412 6.21494 43.1706 5.89517 43.1309 5.54693C43.1503 5.44347 43.1503 5.33727 43.1309 5.23381Z" fill="#F37324"/>
<path d="M33.4134 6.36612C33.6404 6.36603 33.8604 6.28672 34.0358 6.14172C34.2112 5.99671 34.3313 5.79498 34.3755 5.57089C34.4197 5.34681 34.3853 5.11423 34.2782 4.91279C34.1711 4.71134 33.9979 4.5535 33.7882 4.46615C33.5784 4.3788 33.345 4.36734 33.1278 4.43373C32.9105 4.50013 32.7229 4.64026 32.5968 4.83026C32.4708 5.02026 32.4141 5.24837 32.4364 5.47572C32.4587 5.70307 32.5587 5.9156 32.7193 6.0771C32.8104 6.16878 32.9187 6.2415 33.0377 6.29109C33.1568 6.34068 33.2845 6.36618 33.4134 6.36612Z" fill="#F37324"/>
<path d="M35.8064 20.1427C35.5394 19.8152 35.1748 19.5828 34.7665 19.4798C34.3582 19.3768 33.9278 19.4086 33.5388 19.5706C33.1499 19.7326 32.8229 20.0161 32.6063 20.3793C32.3898 20.7425 32.2949 21.1662 32.3359 21.5878V23.9964H17.5923V20.6244C18.3551 20.3906 19.0091 19.8888 19.4352 19.2105C19.8612 18.5322 20.031 17.7224 19.9135 16.9287C19.7961 16.135 19.3992 15.4101 18.7952 14.8861C18.1913 14.3621 17.4204 14.0739 16.6229 14.0739C15.8255 14.0739 15.0546 14.3621 14.4506 14.8861C13.8466 15.4101 13.4498 16.135 13.3323 16.9287C13.2149 17.7224 13.3846 18.5322 13.8107 19.2105C14.2367 19.8888 14.8907 20.3906 15.6536 20.6244V28.5244L2.29813 15.2052L15.6057 1.8859V5.37829C15.6053 5.51428 15.6329 5.64888 15.6866 5.77366C15.7404 5.89843 15.8192 6.01069 15.918 6.1034C16.0169 6.19611 16.1337 6.26727 16.2612 6.31242C16.3887 6.35758 16.524 6.37575 16.6588 6.36579H29.4877C29.7186 6.32917 29.929 6.21078 30.0809 6.03195C30.2328 5.85311 30.3162 5.62559 30.3162 5.39033C30.3162 5.15508 30.2328 4.92755 30.0809 4.74872C29.929 4.56989 29.7186 4.4515 29.4877 4.41487H17.5205V2.00632C17.5265 1.62424 17.4222 1.24861 17.2203 0.924963C17.0184 0.601317 16.7276 0.34356 16.383 0.182941C16.0385 0.022322 15.655 -0.0342608 15.2791 0.0200527C14.9033 0.0743661 14.5511 0.237243 14.2654 0.488937L0.287627 14.5067C0.196441 14.5984 0.124106 14.7073 0.074754 14.8271C0.0254018 14.947 0 15.0754 0 15.2052C0 15.3349 0.0254018 15.4634 0.074754 15.5832C0.124106 15.7031 0.196441 15.8119 0.287627 15.9036L14.2654 29.9214C14.5385 30.2062 14.8903 30.4019 15.2753 30.483C15.6603 30.5642 16.0606 30.527 16.4243 30.3765C16.788 30.2259 17.0984 29.9688 17.3152 29.6386C17.532 29.3084 17.6452 28.9202 17.6401 28.5244V26.1159H32.3838V30.933C31.621 31.1668 30.9669 31.6686 30.5409 32.3469C30.1148 33.0252 29.9451 33.835 30.0625 34.6287C30.18 35.4224 30.5768 36.1473 31.1808 36.6713C31.7848 37.1952 32.5557 37.4835 33.3531 37.4835C34.1506 37.4835 34.9215 37.1952 35.5255 36.6713C36.1294 36.1473 36.5263 35.4224 36.6438 34.6287C36.7612 33.835 36.5914 33.0252 36.1654 32.3469C35.7393 31.6686 35.0853 31.1668 34.3225 30.933V21.5878L47.5583 34.9071L34.3225 48.0818V44.6617C34.3225 44.532 34.2971 44.4036 34.2478 44.2838C34.1985 44.164 34.1262 44.0551 34.0351 43.9634C33.9439 43.8717 33.8358 43.799 33.7167 43.7494C33.5977 43.6997 33.47 43.6742 33.3412 43.6742H16.3716C16.2316 43.652 16.0884 43.6606 15.9519 43.6994C15.8155 43.7382 15.689 43.8063 15.5812 43.899C15.4735 43.9917 15.3869 44.1068 15.3276 44.2364C15.2682 44.366 15.2375 44.507 15.2375 44.6497C15.2375 44.7924 15.2682 44.9333 15.3276 45.0629C15.3869 45.1925 15.4735 45.3076 15.5812 45.4003C15.689 45.493 15.8155 45.5611 15.9519 45.5999C16.0884 45.6388 16.2316 45.6473 16.3716 45.6251H32.4077V48.0337C32.4141 48.4243 32.534 48.8044 32.7527 49.1272C32.9714 49.4499 33.2793 49.7011 33.6383 49.8497C33.9973 49.9983 34.3917 50.0378 34.7728 49.9633C35.1538 49.8889 35.5049 49.7037 35.7825 49.4306L49.7124 35.4129C49.8036 35.3212 49.8759 35.2123 49.9252 35.0924C49.9746 34.9726 50 34.8441 50 34.7144C50 34.5847 49.9746 34.4562 49.9252 34.3364C49.8759 34.2165 49.8036 34.1076 49.7124 34.0159L35.8064 20.1427ZM16.6588 18.818C16.389 18.818 16.1252 18.7375 15.9009 18.5866C15.6765 18.4358 15.5017 18.2213 15.3984 17.9705C15.2952 17.7196 15.2681 17.4436 15.3208 17.1773C15.3734 16.911 15.5033 16.6663 15.6941 16.4743C15.8849 16.2823 16.128 16.1516 16.3927 16.0986C16.6573 16.0457 16.9316 16.0728 17.1809 16.1767C17.4302 16.2807 17.6433 16.4566 17.7932 16.6824C17.9431 16.9082 18.0231 17.1736 18.0231 17.4451C18.0231 17.8092 17.8794 18.1584 17.6235 18.4159C17.3677 18.6733 17.0207 18.818 16.6588 18.818ZM34.7054 33.9437C34.7054 34.2152 34.6254 34.4806 34.4755 34.7064C34.3256 34.9322 34.1125 35.1081 33.8633 35.212C33.614 35.3159 33.3397 35.3431 33.075 35.2902C32.8104 35.2372 32.5673 35.1064 32.3765 34.9144C32.1857 34.7224 32.0558 34.4778 32.0031 34.2115C31.9505 33.9452 31.9775 33.6692 32.0808 33.4183C32.184 33.1674 32.3589 32.953 32.5832 32.8022C32.8076 32.6513 33.0714 32.5708 33.3412 32.5708C33.6988 32.5771 34.0397 32.7245 34.2904 32.9813C34.5411 33.2381 34.6816 33.5837 34.6815 33.9437H34.7054Z" fill="#F37324"/>
<path d="M11.8735 43.6982C11.6465 43.6983 11.4265 43.7776 11.251 43.9226C11.0756 44.0677 10.9556 44.2694 10.9114 44.4935C10.8672 44.7176 10.9015 44.9501 11.0086 45.1516C11.1157 45.353 11.2889 45.5109 11.4987 45.5982C11.7085 45.6856 11.9418 45.697 12.1591 45.6306C12.3763 45.5642 12.5639 45.4241 12.69 45.2341C12.8161 45.0441 12.8728 44.816 12.8505 44.5886C12.8281 44.3613 12.7282 44.1488 12.5676 43.9873C12.4764 43.8956 12.3682 43.8229 12.2491 43.7733C12.13 43.7237 12.0024 43.6982 11.8735 43.6982Z" fill="#F37324"/>
<path d="M5.43627 41.3379C4.77827 41.3379 4.13505 41.5342 3.58795 41.9021C3.04084 42.27 2.61443 42.7928 2.36262 43.4046C2.11082 44.0163 2.04493 44.6895 2.1733 45.3389C2.30167 45.9883 2.61853 46.5849 3.0838 47.0531C3.54908 47.5213 4.14187 47.8401 4.78723 47.9693C5.43258 48.0985 6.10151 48.0322 6.70942 47.7788C7.31733 47.5254 7.83692 47.0963 8.20248 46.5458C8.56805 45.9952 8.76317 45.3479 8.76317 44.6858C8.76317 43.7979 8.41266 42.9463 7.78874 42.3185C7.16483 41.6906 6.31862 41.3379 5.43627 41.3379ZM5.43627 46.155C5.16645 46.155 4.90268 46.0745 4.67833 45.9236C4.45397 45.7728 4.27911 45.5583 4.17585 45.3075C4.0726 45.0566 4.04558 44.7806 4.09822 44.5143C4.15086 44.248 4.28079 44.0033 4.47159 43.8113C4.66239 43.6193 4.90547 43.4886 5.17012 43.4356C5.43476 43.3826 5.70907 43.4098 5.95835 43.5137C6.20764 43.6177 6.42071 43.7936 6.57062 44.0194C6.72053 44.2452 6.80054 44.5106 6.80054 44.7821C6.77627 45.1293 6.62189 45.4542 6.36862 45.6912C6.11536 45.9282 5.78211 46.0595 5.43627 46.0586V46.155Z" fill="#F37324"/>
<path d="M23.457 9.32784C23.4633 9.58554 23.5694 9.83057 23.7528 10.0106C23.9361 10.1906 24.1822 10.2913 24.4383 10.2913H35.4243C35.6552 10.2546 35.8656 10.1362 36.0175 9.95741C36.1693 9.77857 36.2528 9.55105 36.2528 9.31579C36.2528 9.08054 36.1693 8.85301 36.0175 8.67418C35.8656 8.49535 35.6552 8.37696 35.4243 8.34033H24.4383C24.1781 8.34033 23.9285 8.44437 23.7445 8.62957C23.5604 8.81476 23.457 9.06593 23.457 9.32784Z" fill="#F37324"/>
<path d="M30.5899 41.6985C30.8208 41.6619 31.0311 41.5435 31.183 41.3646C31.3349 41.1858 31.4184 40.9583 31.4184 40.723C31.4184 40.4878 31.3349 40.2602 31.183 40.0814C31.0311 39.9026 30.8208 39.7842 30.5899 39.7476H19.6039C19.373 39.7842 19.1626 39.9026 19.0107 40.0814C18.8589 40.2602 18.7754 40.4878 18.7754 40.723C18.7754 40.9583 18.8589 41.1858 19.0107 41.3646C19.1626 41.5435 19.373 41.6619 19.6039 41.6985" fill="#F37324"/>
</svg>
