<svg width="52" height="52" viewBox="0 0 52 52" fill="none" xmlns="http://www.w3.org/2000/svg">
<path d="M40.2578 33.5482C40.2578 33.085 40.6333 32.7095 41.0965 32.7095C41.5597 32.7095 41.9352 33.085 41.9352 33.5482V46.9675C41.9352 47.4307 41.5597 47.8062 41.0965 47.8062C40.6333 47.8062 40.2578 47.4307 40.2578 46.9675V33.5482Z" fill="#F37324"/>
<path d="M40.2578 30.1937C40.2578 29.7305 40.6333 29.355 41.0965 29.355C41.5597 29.355 41.9352 29.7305 41.9352 30.1937C41.9352 30.6569 41.5597 31.0324 41.0965 31.0324C40.6333 31.0324 40.2578 30.6569 40.2578 30.1937Z" fill="#F37324"/>
<path d="M43.6133 36.0643C43.6133 35.6011 43.9888 35.2256 44.452 35.2256C44.9152 35.2256 45.2907 35.6011 45.2907 36.0643C45.2907 36.5275 44.9152 36.903 44.452 36.903C43.9888 36.903 43.6133 36.5275 43.6133 36.0643Z" fill="#F37324"/>
<path d="M51.9529 15.9179C51.5855 12.5901 48.9228 9.81225 45.6224 9.31385C45.2829 9.26301 44.9455 9.23839 44.6112 9.23554C44.0436 9.2307 43.5424 8.82018 43.4411 8.26168C42.5895 3.57044 38.4817 0 33.5484 0C31.037 0 28.6412 0.94894 26.8097 2.60497C26.3623 3.00942 25.6607 3.00784 25.2146 2.602C23.4078 0.957942 21.0256 0 18.4516 0C13.5226 0 9.41768 3.56467 8.56068 8.24971C8.45819 8.81 7.95294 9.22094 7.38348 9.23314C6.6086 9.24975 5.8457 9.39274 5.10103 9.66523C1.95668 10.8152 -0.0454911 13.6483 0.000785384 16.8831C0.0508721 20.3948 2.53999 23.3424 5.82936 24.1193C6.32471 24.2363 6.70964 24.6569 6.70964 25.1659V32.7097C6.70964 33.1729 7.08515 33.5484 7.54835 33.5484C8.01156 33.5484 8.38706 33.1729 8.38706 32.7097V25.3226C8.38706 24.7703 8.83478 24.3226 9.38706 24.3226H12.4193C12.9716 24.3226 13.4193 24.7703 13.4193 25.3226V36.9032C13.4193 37.3664 13.7948 37.7419 14.258 37.7419C14.7212 37.7419 15.0967 38.1174 15.0967 38.5806V46.5337C15.0967 46.6891 15.0606 46.8423 14.991 46.9812L14.3763 48.2099C14.2576 48.4472 14.238 48.7219 14.3219 48.9735L15.1027 51.3162C15.2388 51.7246 15.6209 52 16.0514 52H19.1732C19.6036 52 19.9858 51.7246 20.1219 51.3163L20.903 48.9734C20.9869 48.7218 20.9674 48.4472 20.8488 48.21L20.2345 46.9811C20.1651 46.8422 20.129 46.6891 20.129 46.5339V38.5806C20.129 38.1174 20.5045 37.7419 20.9677 37.7419C21.4309 37.7419 21.8064 37.3664 21.8064 36.9032V20.129C21.8064 17.8168 19.9251 15.9355 17.6129 15.9355C15.3007 15.9355 13.4193 17.8168 13.4193 20.129C13.4193 20.5922 13.7948 20.9677 14.258 20.9677C14.7212 20.9677 15.0967 20.5922 15.0967 20.129C15.0967 19.5441 15.2987 19.0078 15.6359 18.5825C16.0653 18.0407 16.7742 18.4942 16.7742 19.1856V26.8387C16.7742 27.3019 17.1497 27.6774 17.6129 27.6774C18.0761 27.6774 18.4516 27.3019 18.4516 26.8387V19.1856C18.4516 18.4942 19.1604 18.0407 19.5899 18.5825C19.9271 19.0078 20.129 19.5441 20.129 20.129V35.0645C20.129 35.6168 19.6813 36.0645 19.129 36.0645H16.0967C15.5445 36.0645 15.0967 35.6168 15.0967 35.0645V23.6452C15.0967 23.0929 14.649 22.6452 14.0967 22.6452H7.54835C4.35692 22.6452 1.72325 20.05 1.6782 16.8606C1.64299 14.3478 3.21229 12.1429 5.67723 11.2411C6.33031 11.0014 6.98792 10.8968 7.6613 10.9153C8.11818 10.9279 8.45783 11.3084 8.53227 11.7593C8.54518 11.8375 8.55899 11.9155 8.57373 11.9933C8.65994 12.4485 9.12681 12.7075 9.5726 12.5815C10.0184 12.4555 10.2733 11.9922 10.1928 11.536C10.1074 11.0521 10.0645 10.5599 10.0645 10.0645C10.0645 5.43974 13.8268 1.67742 18.4516 1.67742C21.6507 1.67742 24.5009 3.44661 25.924 6.24934C26.1337 6.66231 26.6163 6.8782 27.0478 6.70974C27.4793 6.54123 27.6953 6.05287 27.49 5.63751C27.4547 5.56593 27.4185 5.49489 27.3816 5.42439C27.1861 5.0506 27.2085 4.58942 27.4998 4.28433C29.0709 2.63905 31.249 1.67742 33.5484 1.67742C37.79 1.67742 41.2965 4.84417 41.8494 8.93728C41.9084 9.37391 41.629 9.7708 41.23 9.95751C40.0739 10.4984 39.0588 11.3286 38.2934 12.4077C38.0254 12.7856 38.1754 13.2997 38.5806 13.5244C38.9855 13.7489 39.4912 13.5979 39.7701 13.2284C41.0623 11.516 43.1804 10.6445 45.3718 10.9728C47.933 11.3594 49.9994 13.5168 50.2849 16.1026C50.4724 17.8009 49.9544 19.4296 48.8261 20.6893C47.7135 21.9322 46.1188 22.6452 44.4516 22.6452H39.5806C39.0283 22.6452 38.5806 22.1974 38.5806 21.6452V18.538C38.5806 18.2036 38.4135 17.8914 38.1353 17.7059L35.7316 16.1034C35.5673 15.9939 35.3743 15.9355 35.1769 15.9355H34.5484C33.9961 15.9355 33.5484 16.3832 33.5484 16.9355V20.9677C33.5484 21.8929 32.7961 22.6452 31.8709 22.6452C30.9458 22.6452 30.1935 21.8929 30.1935 20.9677V16.9355C30.1935 16.3832 29.7458 15.9355 29.1935 15.9355H28.5646C28.3671 15.9355 28.1741 15.9939 28.0098 16.1035L25.6065 17.7059C25.3283 17.8914 25.1613 18.2036 25.1613 18.5379V24.2556C25.1613 24.5209 25.2666 24.7752 25.4542 24.9628L28.2232 27.7318C28.4107 27.9193 28.5161 28.1737 28.5161 28.4389V44.9806C28.5161 45.1963 28.4431 45.4042 28.3277 45.5864C27.9053 46.2539 27.6774 47.0228 27.6774 47.8064C27.6774 50.1186 29.5587 52 31.8709 52C34.1831 52 36.0645 50.1186 36.0645 47.8064C36.0645 47.0228 35.8365 46.2539 35.4141 45.5864C35.2988 45.4042 35.2258 45.1963 35.2258 44.9806V28.4389C35.2258 28.1737 35.3311 27.9193 35.5187 27.7318L36.0645 27.186C36.392 26.8585 36.392 26.3275 36.0645 26C35.737 25.6725 35.206 25.6725 34.8785 26L33.8412 27.0372C33.6537 27.2248 33.5484 27.4791 33.5484 27.7444V45.6089C33.5484 45.8117 33.622 46.0076 33.7556 46.1602C34.0431 46.4906 34.3871 47.0431 34.3871 47.8064C34.3871 49.1935 33.258 50.3226 31.8709 50.3226C30.4835 50.3226 29.3548 49.1935 29.3548 47.8064C29.3548 47.0431 29.6988 46.4906 29.9863 46.1602C30.1199 46.0076 30.1935 45.8117 30.1935 45.6089V27.7444C30.1935 27.4791 30.0882 27.2248 29.9006 27.0372L27.1316 24.2682C26.944 24.0807 26.8387 23.8263 26.8387 23.5611V19.3494C26.8387 19.0689 26.9789 18.807 27.2122 18.6515C27.7696 18.28 28.5161 18.6795 28.5161 19.3494V20.9677C28.5161 22.818 30.0207 24.3226 31.8709 24.3226C33.7212 24.3226 35.2258 22.818 35.2258 20.9677V19.3494C35.2258 18.6795 35.9723 18.28 36.5296 18.6515C36.763 18.807 36.9032 19.0689 36.9032 19.3494V23.3226C36.9032 23.8749 37.3509 24.3226 37.9032 24.3226H42.6129C43.1652 24.3226 43.6129 24.7703 43.6129 25.3226V32.7097C43.6129 33.1729 43.9884 33.5484 44.4516 33.5484C44.9148 33.5484 45.2903 33.1729 45.2903 32.7097V25.1679C45.2903 24.6588 45.6751 24.238 46.1709 24.1219C47.6654 23.7721 49.0347 22.972 50.076 21.8089C51.5061 20.213 52.1896 18.0658 51.9529 15.9179ZM19.0381 48.3394C19.1566 48.5766 19.176 48.8512 19.0922 49.1027L18.9134 49.6389C18.7772 50.0472 18.3951 50.3226 17.9647 50.3226H17.26C16.8295 50.3226 16.4473 50.0471 16.3112 49.6387L16.1327 49.1028C16.0489 48.8512 16.0684 48.5766 16.1871 48.3394L16.6685 47.3767C16.738 47.2378 16.7742 47.0847 16.7742 46.9294V38.5806C16.7742 38.1174 17.1497 37.7419 17.6129 37.7419C18.0761 37.7419 18.4516 38.1174 18.4516 38.5806V46.9296C18.4516 47.0848 18.4877 47.2378 18.557 47.3766L19.0381 48.3394Z" fill="#F37324"/>
<path d="M38.0662 7.8464C38.2713 8.26173 38.7322 8.51931 39.1762 8.38721C39.6202 8.25514 39.8778 7.78512 39.6904 7.36154C38.7433 5.22 36.7103 3.70488 34.3854 3.40816C33.9259 3.34951 33.5488 3.73048 33.5488 4.19369C33.5488 4.6569 33.927 5.02523 34.3836 5.10319C35.9714 5.37427 37.3537 6.40397 38.0662 7.8464Z" fill="#F37324"/>
<path d="M16.7734 32.7095H18.4509V34.3869H16.7734V32.7095Z" fill="#F37324"/>
<path d="M16.7734 29.355H18.4509V31.0324H16.7734V29.355Z" fill="#F37324"/>
<path d="M31.0332 47.8065C31.0332 47.3433 31.4087 46.9678 31.8719 46.9678C32.3351 46.9678 32.7106 47.3433 32.7106 47.8065C32.7106 48.2697 32.3351 48.6452 31.8719 48.6452C31.4087 48.6452 31.0332 48.2697 31.0332 47.8065Z" fill="#F37324"/>
<path d="M43.6133 39.4193C43.6133 38.9561 43.9888 38.5806 44.452 38.5806C44.9152 38.5806 45.2907 38.9561 45.2907 39.4193C45.2907 39.8825 44.9152 40.258 44.452 40.258C43.9888 40.258 43.6133 39.8825 43.6133 39.4193Z" fill="#F37324"/>
<path d="M10.0645 32.7095H11.7419V47.8062H10.0645V32.7095Z" fill="#F37324"/>
<path d="M10.0645 29.355H11.7419V31.0324H10.0645V29.355Z" fill="#F37324"/>
<path d="M6.70898 35.2256H8.3864V36.903H6.70898V35.2256Z" fill="#F37324"/>
<path d="M6.70898 38.5806H8.3864V40.258H6.70898V38.5806Z" fill="#F37324"/>
</svg>
