<svg width="58" height="40" viewBox="0 0 58 40" fill="none" xmlns="http://www.w3.org/2000/svg">
<path d="M28.9993 8.99992C26.8238 8.99992 24.697 9.64506 22.8881 10.8538C21.0791 12.0624 19.6692 13.7804 18.8367 15.7904C18.0041 17.8004 17.7863 20.0121 18.2107 22.1459C18.6351 24.2797 19.6828 26.2397 21.2212 27.7781C22.7595 29.3165 24.7196 30.3641 26.8534 30.7886C28.9871 31.213 31.1989 30.9952 33.2089 30.1626C35.2189 29.33 36.9368 27.9201 38.1455 26.1112C39.3542 24.3022 39.9993 22.1755 39.9993 19.9999C39.9993 17.0825 38.8404 14.2846 36.7775 12.2217C34.7146 10.1588 31.9167 8.99992 28.9993 8.99992ZM28.9993 28.9999C27.2193 28.9999 25.4793 28.4721 23.9992 27.4831C22.5192 26.4942 21.3656 25.0886 20.6844 23.4441C20.0032 21.7995 19.825 19.9899 20.1723 18.2441C20.5195 16.4983 21.3767 14.8946 22.6354 13.636C23.8941 12.3773 25.4977 11.5201 27.2435 11.1729C28.9894 10.8256 30.799 11.0038 32.4435 11.685C34.088 12.3662 35.4936 13.5197 36.4826 14.9998C37.4715 16.4798 37.9993 18.2199 37.9993 19.9999C37.9993 22.3869 37.0511 24.6761 35.3633 26.3639C33.6755 28.0517 31.3863 28.9999 28.9993 28.9999ZM31.1393 16.7299L29.9993 13.0599C29.9336 12.8599 29.8063 12.6857 29.6358 12.5622C29.4652 12.4387 29.2599 12.3722 29.0493 12.3722C28.8387 12.3722 28.6335 12.4387 28.4629 12.5622C28.2923 12.6857 28.1651 12.8599 28.0993 13.0599L26.9093 16.7299H22.9993C22.7885 16.7301 22.583 16.7969 22.4124 16.9208C22.2418 17.0447 22.1147 17.2194 22.0493 17.4199C21.9833 17.6207 21.9825 17.8372 22.0472 18.0385C22.1119 18.2397 22.2387 18.4152 22.4093 18.5399L25.5293 20.7999L24.3393 24.4699C24.2733 24.6707 24.2725 24.8872 24.3372 25.0885C24.4019 25.2897 24.5287 25.4652 24.6993 25.5899C24.8706 25.7151 25.0772 25.7825 25.2893 25.7825C25.5015 25.7825 25.7081 25.7151 25.8793 25.5899L28.9993 23.3199L32.1193 25.5899C32.2909 25.7141 32.4975 25.7807 32.7093 25.7799C32.8672 25.7798 33.0227 25.7423 33.1633 25.6706C33.3039 25.5988 33.4255 25.4948 33.5181 25.367C33.6108 25.2392 33.6719 25.0913 33.6964 24.9354C33.721 24.7795 33.7083 24.62 33.6593 24.4699L32.4693 20.7999L35.5893 18.5399C35.7689 18.422 35.9058 18.2495 35.9796 18.0477C36.0534 17.846 36.0604 17.6259 35.9993 17.4199C35.9315 17.2111 35.7969 17.0303 35.6161 16.9056C35.4354 16.7809 35.2187 16.7192 34.9993 16.7299H31.1393ZM30.3393 20.7299L30.8093 22.1599L29.5893 21.2799C29.4181 21.1548 29.2115 21.0873 28.9993 21.0873C28.7872 21.0873 28.5806 21.1548 28.4093 21.2799L27.1893 22.1599L27.6593 20.7299C27.7254 20.5291 27.7261 20.3126 27.6615 20.1114C27.5968 19.9102 27.47 19.7346 27.2993 19.6099L26.0793 18.7299H27.5793C27.7987 18.7407 28.0154 18.6789 28.1961 18.5542C28.3769 18.4295 28.5115 18.2488 28.5793 18.0399L28.9993 16.5999L29.4593 17.9999C29.5272 18.2088 29.6618 18.3895 29.8425 18.5142C30.0233 18.6389 30.24 18.7007 30.4593 18.6899H31.9593L30.7393 19.5699C30.5533 19.6914 30.4129 19.8713 30.3405 20.0814C30.2681 20.2914 30.2677 20.5196 30.3393 20.7299ZM55.9993 28.9999C56.1611 29.0004 56.3206 28.9617 56.4641 28.8871C56.6076 28.8124 56.7308 28.7041 56.8233 28.5713C56.9157 28.4386 56.9745 28.2854 56.9948 28.1249C57.015 27.9644 56.996 27.8014 56.9393 27.6499L54.0693 19.9299L56.9393 12.3499C56.9952 12.1983 57.0134 12.0354 56.9925 11.8752C56.9716 11.7149 56.9122 11.5622 56.8193 11.4299C56.7275 11.2975 56.6049 11.1892 56.4621 11.1143C56.3193 11.0394 56.1606 11.0002 55.9993 10.9999H42.7293V7.26992C42.7293 7.0047 42.624 6.75035 42.4365 6.56281C42.2489 6.37528 41.9946 6.26992 41.7293 6.26992H34.7293L29.7293 1.26992C29.6364 1.17619 29.5258 1.1018 29.4039 1.05103C29.2821 1.00026 29.1514 0.974121 29.0193 0.974121C28.8873 0.974121 28.7566 1.00026 28.6348 1.05103C28.5129 1.1018 28.4023 1.17619 28.3093 1.26992L23.3093 6.26992H16.3093C16.0441 6.26992 15.7898 6.37528 15.6022 6.56281C15.4147 6.75035 15.3093 7.0047 15.3093 7.26992V10.9999H1.99935C1.83813 11.0002 1.67936 11.0394 1.53658 11.1143C1.3938 11.1892 1.27124 11.2975 1.17935 11.4299C1.08651 11.5622 1.02709 11.7149 1.00619 11.8752C0.985296 12.0354 1.00353 12.1983 1.05935 12.3499L3.92935 19.9299L1.05935 27.6499C1.00273 27.8014 0.983718 27.9644 1.00394 28.1249C1.02416 28.2854 1.08301 28.4386 1.17544 28.5713C1.26787 28.7041 1.39112 28.8124 1.53462 28.8871C1.67812 28.9617 1.83759 29.0004 1.99935 28.9999H15.2693V32.7299C15.2693 32.9951 15.3747 33.2495 15.5622 33.437C15.7498 33.6246 16.0041 33.7299 16.2693 33.7299H23.2693L28.2693 38.7299C28.3623 38.8236 28.4729 38.898 28.5948 38.9488C28.7166 38.9996 28.8473 39.0257 28.9793 39.0257C29.1114 39.0257 29.2421 38.9996 29.3639 38.9488C29.4858 38.898 29.5964 38.8236 29.6893 38.7299L34.6893 33.7299H41.6893C41.9546 33.7299 42.2089 33.6246 42.3965 33.437C42.584 33.2495 42.6893 32.9951 42.6893 32.7299V28.9999H55.9993ZM54.5493 12.9999L52.0593 19.5799C51.9793 19.8064 51.9793 20.0535 52.0593 20.2799L54.5593 26.9999H42.7293V25.6899L47.7293 20.6899C47.8231 20.597 47.8975 20.4864 47.9482 20.3645C47.999 20.2426 48.0251 20.1119 48.0251 19.9799C48.0251 19.8479 47.999 19.7172 47.9482 19.5953C47.8975 19.4735 47.8231 19.3629 47.7293 19.2699L42.7293 14.2699V12.9999H54.5493ZM3.43935 26.9999L5.93935 20.2799C6.01941 20.0535 6.01941 19.8064 5.93935 19.5799L3.44935 12.9999H15.2693V14.3099L10.2693 19.3099C10.1756 19.4029 10.1012 19.5135 10.0505 19.6353C9.99969 19.7572 9.97355 19.8879 9.97355 20.0199C9.97355 20.1519 9.99969 20.2826 10.0505 20.4045C10.1012 20.5264 10.1756 20.637 10.2693 20.7299L15.2693 25.7299V26.9999H3.43935ZM40.9993 24.5599C40.9067 24.6534 40.8333 24.7642 40.7836 24.886C40.7338 25.0079 40.7086 25.1383 40.7093 25.2699V31.7299H34.2693C34.007 31.731 33.7556 31.8352 33.5693 32.0199L28.9993 36.5899L24.4293 31.9999C24.2431 31.8152 23.9917 31.711 23.7293 31.7099H17.2693V25.2699C17.2701 25.1383 17.2449 25.0079 17.1951 24.886C17.1454 24.7642 17.072 24.6534 16.9793 24.5599L12.4093 19.9999L16.9993 15.4399C17.092 15.3465 17.1654 15.2357 17.2151 15.1138C17.2649 14.992 17.2901 14.8615 17.2893 14.7299V8.26992H23.7493C24.0117 8.26882 24.2631 8.16466 24.4493 7.97992L28.9993 3.40992L33.5693 7.99992C33.7556 8.18466 34.007 8.28882 34.2693 8.28992H40.7293V14.7499C40.7286 14.8815 40.7538 15.012 40.8036 15.1338C40.8533 15.2557 40.9267 15.3665 41.0193 15.4599L45.5893 19.9999L40.9993 24.5599ZM8.99935 8.99992H0.999346V6.99992H8.99935V8.99992ZM13.9993 8.99992H10.9993V6.99992H13.9993V8.99992ZM56.9993 6.99992V8.99992H48.9993V6.99992H56.9993ZM46.9993 8.99992H43.9993V6.99992H46.9993V8.99992ZM0.999346 30.9999H8.99935V32.9999H0.999346V30.9999ZM10.9993 30.9999H13.9993V32.9999H10.9993V30.9999ZM48.9993 30.9999H56.9993V32.9999H48.9993V30.9999ZM43.9993 30.9999H46.9993V32.9999H43.9993V30.9999Z" fill="#F37324"/>
</svg>
