<svg width="52" height="52" viewBox="0 0 52 52" fill="none" xmlns="http://www.w3.org/2000/svg">
<path d="M30.825 10.7619C30.2906 10.5928 29.7196 10.8891 29.5504 11.424C29.3812 11.9588 29.6776 12.5294 30.2124 12.6986C32.9765 13.5729 35.4574 15.3425 37.198 17.6813C38.9978 20.0995 39.949 22.976 39.949 26C39.949 33.6912 33.6919 39.9482 26.0008 39.9482C18.3097 39.9482 12.0527 33.6911 12.0527 25.9999C12.0527 22.976 13.0041 20.0995 14.8038 17.6813C16.5443 15.3425 19.0252 13.5729 21.7893 12.6986C22.3242 12.5294 22.6205 11.9588 22.4513 11.424C22.2821 10.8892 21.7114 10.5927 21.1767 10.762C17.9635 11.7783 15.1962 13.7517 13.1743 16.4686C11.1117 19.2399 10.0215 22.5358 10.0215 25.9999C10.0215 34.811 17.1899 41.9794 26.0009 41.9794C34.812 41.9794 41.9803 34.8111 41.9803 25.9999C41.9803 22.5357 40.8901 19.2398 38.8274 16.4684C36.8055 13.7516 34.0383 11.7783 30.825 10.7619Z" fill="#F37324"/>
<path d="M50.9843 19.8157H47.6286C47.158 18.1663 46.5003 16.579 45.6661 15.0797L48.0396 12.7063C48.4362 12.3097 48.4362 11.6666 48.0396 11.2699L40.7301 3.96042C40.5397 3.76999 40.2813 3.66295 40.012 3.66295C39.7426 3.66295 39.4843 3.76999 39.2938 3.96042L36.9204 6.33393C35.421 5.4997 33.8338 4.84198 32.1844 4.37144V1.01562C32.1844 0.454694 31.7297 0 31.1688 0H20.8314C20.2705 0 19.8158 0.454694 19.8158 1.01562V4.37144C18.1663 4.84198 16.579 5.4997 15.0798 6.33393L12.7064 3.96052C12.5159 3.77009 12.2576 3.66305 11.9882 3.66305C11.7189 3.66305 11.4605 3.77009 11.2701 3.96052L3.96052 11.2701C3.77009 11.4605 3.66305 11.7189 3.66305 11.9882C3.66305 12.2576 3.77009 12.5159 3.96052 12.7064L6.33393 15.0798C5.4997 16.5792 4.84198 18.1664 4.37144 19.8158H1.01562C0.454694 19.8158 0 20.2705 0 20.8314V31.1687C0 31.7296 0.454694 32.1843 1.01562 32.1843H4.37144C4.84198 33.8336 5.4996 35.4209 6.33393 36.9203L3.96052 39.2937C3.77009 39.4842 3.66305 39.7425 3.66305 40.0119C3.66305 40.2812 3.77009 40.5396 3.96052 40.73L11.2701 48.0396C11.6666 48.4362 12.3098 48.4362 12.7064 48.0396L15.0798 45.6662C16.5792 46.5004 18.1664 47.1581 19.8158 47.6287V50.9845C19.8158 51.5454 20.2705 52.0001 20.8314 52.0001H31.1687C31.7296 52.0001 32.1843 51.5454 32.1843 50.9845V47.6287C33.8337 47.1581 35.4209 46.5005 36.9203 45.6662L39.2937 48.0397C39.6903 48.4363 40.3334 48.4363 40.7301 48.0397L48.0396 40.7302C48.4362 40.3336 48.4362 39.6905 48.0396 39.2938L45.6661 36.9204C46.5003 35.4211 47.158 33.8338 47.6286 32.1844H50.9843C51.5452 32.1844 51.9999 31.7297 51.9999 31.1688V20.8313C51.9999 20.2704 51.5452 19.8157 50.9843 19.8157ZM49.9687 30.153H46.8479C46.3809 30.153 45.9741 30.4716 45.862 30.925C45.3709 32.9121 44.5851 34.8083 43.5265 36.5614C43.2849 36.9614 43.3474 37.4743 43.6777 37.8046L45.8849 40.012L40.0118 45.8852L37.8044 43.6779C37.4743 43.3477 36.9613 43.2852 36.5612 43.5267C34.8081 44.5854 32.9118 45.3712 30.9248 45.8622C30.4714 45.9742 30.1528 46.3811 30.1528 46.8481V49.9689H21.8471V46.8481C21.8471 46.3811 21.5285 45.9742 21.0751 45.8622C19.0881 45.3712 17.1918 44.5854 15.4387 43.5267C15.0387 43.2851 14.5257 43.3476 14.1955 43.6779L11.9882 45.8851L6.11496 40.0119L8.32232 37.8046C8.6526 37.4743 8.71506 36.9613 8.47355 36.5614C7.41476 34.8083 6.62897 32.912 6.13802 30.925C6.026 30.4716 5.61914 30.153 5.15205 30.153H2.03125V21.8471H5.15195C5.61904 21.8471 6.02589 21.5285 6.13792 21.0751C6.62887 19.0882 7.41466 17.1919 8.47344 15.4387C8.71496 15.0387 8.6525 14.5257 8.32222 14.1955L6.11486 11.9882L11.9881 6.11496L14.1954 8.32232C14.5258 8.6527 15.0388 8.71506 15.4386 8.47355C17.1915 7.41486 19.0878 6.62897 21.075 6.13792C21.5285 6.02579 21.847 5.61904 21.847 5.15195V2.03125H30.1529V5.15195C30.1529 5.61904 30.4715 6.02589 30.9249 6.13792C32.9119 6.62887 34.8082 7.41466 36.5613 8.47355C36.9612 8.71506 37.4743 8.6526 37.8045 8.32232L40.0119 6.11496L45.885 11.9882L43.6778 14.1956C43.3475 14.5258 43.285 15.0388 43.5266 15.4388C44.5852 17.1918 45.371 19.0881 45.8621 21.0752C45.9742 21.5286 46.381 21.8472 46.848 21.8472H49.9687V30.153Z" fill="#F37324"/>
<path d="M14.4863 26C14.4863 32.3486 19.6513 37.5136 26 37.5136C32.3486 37.5136 37.5136 32.3486 37.5136 26C37.5136 19.6513 32.3485 14.4863 25.9999 14.4863C19.6512 14.4863 14.4863 19.6514 14.4863 26ZM35.4824 26C35.4824 31.2286 31.2286 35.4824 26 35.4824C20.7714 35.4824 16.5176 31.2286 16.5176 26C16.5176 20.7713 20.7713 16.5176 26 16.5176C31.2285 16.5176 35.4824 20.7714 35.4824 26Z" fill="#F37324"/>
<path d="M23.7977 23.2666C23.6073 23.0761 23.3489 22.9691 23.0796 22.9691C22.8103 22.9691 22.5519 23.0761 22.3615 23.2666L19.4889 26.1391C19.0923 26.5357 19.0923 27.1788 19.4889 27.5754L22.8544 30.9411C23.43 31.5166 24.1951 31.8335 25.0089 31.8335C25.8227 31.8335 26.5879 31.5166 27.1633 30.9411L32.7192 25.3852C33.1158 24.9886 33.1158 24.3455 32.7192 23.9488L29.8466 21.0763C29.45 20.6797 28.8069 20.6797 28.4102 21.0763L25.0089 24.4777L23.7977 23.2666ZM29.1284 23.2308L30.5647 24.6671L25.7269 29.5047C25.5351 29.6966 25.2801 29.8022 25.0088 29.8022C24.7375 29.8022 24.4825 29.6966 24.2906 29.5047L21.6432 26.8572L23.0795 25.4209L24.2906 26.632C24.4811 26.8225 24.7394 26.9295 25.0088 26.9295C25.2781 26.9295 25.5365 26.8225 25.7269 26.632L29.1284 23.2308Z" fill="#F37324"/>
<path d="M26 12.0518C26.5609 12.0518 27.0156 11.597 27.0156 11.0361C27.0156 10.4752 26.5609 10.0205 26 10.0205C25.4391 10.0205 24.9844 10.4752 24.9844 11.0361C24.9844 11.597 25.4391 12.0518 26 12.0518Z" fill="#F37324"/>
</svg>
